Hack-Regular-PS.ufo
<glyph name="exclam" format="1">
  <advance width="1233"/>
  <unicode hex="0021"/>
  <outline>
    <contour>
      <point x="481" y="1053" type="line" name="ih01"/>
      <point x="481" y="1498" type="line" name="at01"/>
      <point x="746" y="1498" type="line"/>
      <point x="746" y="1053" type="line" name="sh01"/>
      <point x="679" y="486" type="line"/>
      <point x="558" y="486" type="line"/>
    </contour>
    <contour>
      <point x="616" y="-60" type="curve" smooth="yes" name="dv01"/>
      <point x="569" y="-60"/>
      <point x="531" y="-44" name="dh01"/>
      <point x="500" y="-12" type="curve" smooth="yes"/>
      <point x="469" y="19" name="dv02"/>
      <point x="454" y="61"/>
      <point x="454" y="113" type="curve" smooth="yes" name="dh02"/>
      <point x="454" y="164"/>
      <point x="469" y="206"/>
      <point x="500" y="237" type="curve" smooth="yes"/>
      <point x="531" y="268"/>
      <point x="570" y="284"/>
      <point x="616" y="284" type="curve" smooth="yes"/>
      <point x="662" y="284"/>
      <point x="701" y="268"/>
      <point x="732" y="237" type="curve" smooth="yes" name="hr01"/>
      <point x="763" y="206"/>
      <point x="778" y="165"/>
      <point x="778" y="113" type="curve" smooth="yes"/>
      <point x="778" y="57"/>
      <point x="763" y="19"/>
      <point x="732" y="-12" type="curve" smooth="yes"/>
      <point x="701" y="-44"/>
      <point x="662" y="-60"/>
    </contour>
  </outline>
</glyph>
<glyph name="quotedbl" format="1">
  <advance width="1233"/>
  <unicode hex="0022"/>
  <outline>
    <contour>
      <point x="338" y="1493" type="line" name="sh01"/>
      <point x="512" y="1493" type="line" name="sh02"/>
      <point x="512" y="938" type="line" name="av01"/>
      <point x="338" y="938" type="line"/>
    </contour>
    <contour>
      <point x="721" y="1493" type="line" name="ah01"/>
      <point x="895" y="1493" type="line" name="sh03"/>
      <point x="895" y="938" type="line" name="av02"/>
      <point x="721" y="938" type="line"/>
    </contour>
  </outline>
</glyph>
<glyph name="dollar" format="1">
  <advance width="1233"/>
  <unicode hex="0024"/>
  <outline>
    <contour>
      <point x="591" y="-301" type="line" name="sh10"/>
      <point x="693" y="-301" type="line" name="av01"/>
      <point x="693" y="2" type="line" name="sh09"/>
      <point x="819" y="8"/>
      <point x="921" y="45" name="dh06"/>
      <point x="998" y="114" type="curve" smooth="yes"/>
      <point x="1078" y="186"/>
      <point x="1114" y="272" name="sh08"/>
      <point x="1114" y="373" type="curve" smooth="yes"/>
      <point x="1114" y="474" name="sh07"/>
      <point x="1078" y="557"/>
      <point x="1006" y="622" type="curve" smooth="yes"/>
      <point x="935" y="686" name="sv01"/>
      <point x="830" y="729" name="sh06"/>
      <point x="692" y="750" type="curve" name="sh05"/>
      <point x="692" y="1181" type="line" name="sh03"/>
      <point x="748" y="1178"/>
      <point x="808" y="1167" name="dh01"/>
      <point x="853" y="1154" type="curve" smooth="yes"/>
      <point x="892" y="1143"/>
      <point x="959" y="1118" name="dh03"/>
      <point x="1018" y="1087" type="curve" name="hr01"/>
      <point x="1018" y="1260" type="line" name="iv01"/>
      <point x="962" y="1277" name="sh02"/>
      <point x="908" y="1290"/>
      <point x="853" y="1301" type="curve" smooth="yes" name="sh01"/>
      <point x="804" y="1310"/>
      <point x="747" y="1318"/>
      <point x="692" y="1321" type="curve" name="dh02"/>
      <point x="692" y="1556" type="line"/>
      <point x="592" y="1556" type="line" name="sh04"/>
      <point x="592" y="1321" type="line"/>
      <point x="465" y="1312"/>
      <point x="367" y="1277" name="dh05"/>
      <point x="296" y="1214" type="curve" smooth="yes"/>
      <point x="225" y="1151" name="dh04"/>
      <point x="190" y="1068"/>
      <point x="190" y="964" type="curve" smooth="yes" name="sh11"/>
      <point x="190" y="861"/>
      <point x="223" y="783"/>
      <point x="291" y="722" type="curve" smooth="yes"/>
      <point x="360" y="659"/>
      <point x="459" y="621"/>
      <point x="592" y="600" type="curve"/>
      <point x="592" y="142" type="line"/>
      <point x="527" y="143"/>
      <point x="460" y="154"/>
      <point x="392" y="177" type="curve" smooth="yes"/>
      <point x="323" y="200"/>
      <point x="262" y="228"/>
      <point x="190" y="272" type="curve"/>
      <point x="190" y="92" type="line"/>
      <point x="261" y="63"/>
      <point x="322" y="43"/>
      <point x="389" y="28" type="curve" smooth="yes"/>
      <point x="457" y="13"/>
      <point x="523" y="3"/>
      <point x="591" y="0" type="curve"/>
    </contour>
    <contour>
      <point x="592" y="770" type="line"/>
      <point x="518" y="781"/>
      <point x="463" y="804"/>
      <point x="426" y="837" type="curve" smooth="yes"/>
      <point x="390" y="870"/>
      <point x="371" y="913"/>
      <point x="371" y="974" type="curve" smooth="yes"/>
      <point x="371" y="1036"/>
      <point x="391" y="1086"/>
      <point x="430" y="1123" type="curve" smooth="yes"/>
      <point x="469" y="1160"/>
      <point x="523" y="1180"/>
      <point x="592" y="1183" type="curve"/>
    </contour>
    <contour>
      <point x="692" y="580" type="line"/>
      <point x="774" y="567"/>
      <point x="833" y="543"/>
      <point x="870" y="510" type="curve" smooth="yes"/>
      <point x="909" y="475"/>
      <point x="926" y="424"/>
      <point x="926" y="363" type="curve" smooth="yes"/>
      <point x="926" y="298"/>
      <point x="905" y="246"/>
      <point x="864" y="207" type="curve" smooth="yes"/>
      <point x="823" y="168"/>
      <point x="766" y="148"/>
      <point x="692" y="146" type="curve"/>
    </contour>
  </outline>
</glyph>
<glyph name="parenleft" format="1">
  <advance width="1233"/>
  <unicode hex="0028"/>
  <outline>
    <contour>
      <point x="595" y="-270" type="line" name="av01"/>
      <point x="491" y="-105"/>
      <point x="419" y="43" name="dh01"/>
      <point x="370" y="194" type="curve" smooth="yes"/>
      <point x="321" y="345" name="at01"/>
      <point x="296" y="495"/>
      <point x="296" y="643" type="curve" smooth="yes"/>
      <point x="296" y="790" name="dh02"/>
      <point x="321" y="940"/>
      <point x="370" y="1092" type="curve" name="av02"/>
      <point x="421" y="1245"/>
      <point x="492" y="1394"/>
      <point x="595" y="1554" type="curve"/>
      <point x="755" y="1554" type="line"/>
      <point x="660" y="1393"/>
      <point x="600" y="1249"/>
      <point x="557" y="1100" type="curve" smooth="yes"/>
      <point x="512" y="943"/>
      <point x="491" y="796"/>
      <point x="491" y="643" type="curve" smooth="yes"/>
      <point x="491" y="486"/>
      <point x="513" y="340"/>
      <point x="557" y="187" type="curve" smooth="yes"/>
      <point x="601" y="34"/>
      <point x="663" y="-110"/>
      <point x="755" y="-270" type="curve"/>
    </contour>
  </outline>
</glyph>
<glyph name="parenright" format="1">
  <advance width="1233"/>
  <unicode hex="0029"/>
  <outline>
    <contour>
      <point x="638" y="-270" type="line" name="hr00"/>
      <point x="739" y="-113"/>
      <point x="814" y="41"/>
      <point x="863" y="192" type="curve" smooth="yes"/>
      <point x="912" y="344"/>
      <point x="937" y="494"/>
      <point x="937" y="643" type="curve" smooth="yes"/>
      <point x="937" y="790"/>
      <point x="912" y="940"/>
      <point x="863" y="1092" type="curve" smooth="yes"/>
      <point x="815" y="1242"/>
      <point x="740" y="1396"/>
      <point x="638" y="1554" type="curve"/>
      <point x="478" y="1554" type="line"/>
      <point x="570" y="1395"/>
      <point x="636" y="1241"/>
      <point x="677" y="1098" type="curve" smooth="yes"/>
      <point x="720" y="949"/>
      <point x="742" y="792"/>
      <point x="742" y="643" type="curve" smooth="yes"/>
      <point x="742" y="487"/>
      <point x="718" y="332"/>
      <point x="677" y="189" type="curve"/>
      <point x="632" y="37"/>
      <point x="566" y="-116"/>
      <point x="478" y="-270" type="curve"/>
    </contour>
  </outline>
</glyph>
<glyph name="asterisk" format="1">
  <advance width="1233"/>
  <unicode hex="002A"/>
  <outline>
    <contour>
      <point x="250" y="486" type="line" name="hr00"/>
      <point x="492" y="857" type="line"/>
      <point x="128" y="1015" type="line"/>
      <point x="164" y="1118" type="line"/>
      <point x="540" y="995" type="line" name="iv01"/>
      <point x="560" y="1420" type="line" name="at01"/>
      <point x="668" y="1420" type="line"/>
      <point x="688" y="995" type="line" name="iv02"/>
      <point x="1064" y="1118" type="line"/>
      <point x="1100" y="1015" type="line"/>
      <point x="736" y="857" type="line"/>
      <point x="978" y="486" type="line"/>
      <point x="884" y="419" type="line" name="av01"/>
      <point x="614" y="776" type="line" name="iv03"/>
      <point x="344" y="419" type="line" name="av02"/>
    </contour>
  </outline>
</glyph>
<glyph name="two" format="1">
  <advance width="1233"/>
  <unicode hex="0032"/>
  <outline>
    <contour>
      <point x="152" y="134" type="line" smooth="yes" name="hr00"/>
      <point x="152" y="159"/>
      <point x="158" y="177"/>
      <point x="177" y="196" type="curve" smooth="yes"/>
      <point x="253" y="276"/>
      <point x="360" y="389" name="dh01"/>
      <point x="479" y="518" type="curve" smooth="yes"/>
      <point x="615" y="665" name="sv01"/>
      <point x="634" y="686"/>
      <point x="671" y="731" type="curve" smooth="yes" name="iv01"/>
      <point x="742" y="816"/>
      <point x="780" y="870"/>
      <point x="807" y="929" type="curve" smooth="yes" name="at01"/>
      <point x="830" y="980"/>
      <point x="842" y="1029" name="sh01"/>
      <point x="842" y="1085" type="curve" smooth="yes"/>
      <point x="842" y="1165"/>
      <point x="818" y="1232"/>
      <point x="769" y="1279" type="curve" smooth="yes" name="sv02"/>
      <point x="720" y="1326" name="dh02"/>
      <point x="652" y="1350" name="ab01"/>
      <point x="566" y="1350" type="curve" smooth="yes"/>
      <point x="506" y="1350"/>
      <point x="443" y="1339" name="sh02"/>
      <point x="376" y="1317" type="curve" smooth="yes"/>
      <point x="309" y="1295"/>
      <point x="239" y="1262"/>
      <point x="164" y="1217" type="curve"/>
      <point x="164" y="1421" type="line"/>
      <point x="233" y="1454"/>
      <point x="303" y="1479"/>
      <point x="367" y="1495" type="curve" smooth="yes"/>
      <point x="434" y="1512"/>
      <point x="499" y="1520"/>
      <point x="563" y="1520" type="curve" smooth="yes"/>
      <point x="702" y="1520"/>
      <point x="826" y="1484"/>
      <point x="917" y="1404" type="curve" smooth="yes"/>
      <point x="997" y="1333"/>
      <point x="1049" y="1230"/>
      <point x="1049" y="1102" type="curve" smooth="yes"/>
      <point x="1049" y="1034"/>
      <point x="1034" y="970"/>
      <point x="1005" y="905" type="curve" smooth="yes"/>
      <point x="976" y="838"/>
      <point x="932" y="781"/>
      <point x="860" y="695" type="curve" smooth="yes"/>
      <point x="821" y="650"/>
      <point x="769" y="590"/>
      <point x="698" y="514" type="curve" smooth="yes"/>
      <point x="596" y="404"/>
      <point x="541" y="359"/>
      <point x="363" y="170" type="curve"/>
      <point x="1059" y="170" type="line"/>
      <point x="1059" y="0" type="line"/>
      <point x="152" y="0" type="line"/>
    </contour>
  </outline>
</glyph>
<glyph name="three" format="1">
  <advance width="1233"/>
  <unicode hex="0033"/>
  <outline>
    <contour>
      <point x="566" y="-29" type="curve" smooth="yes" name="dv01"/>
      <point x="502" y="-29"/>
      <point x="431" y="-23"/>
      <point x="359" y="-10" type="curve" smooth="yes"/>
      <point x="298" y="1"/>
      <point x="221" y="20" name="dv02"/>
      <point x="149" y="45" type="curve"/>
      <point x="149" y="249" type="line" name="dh01"/>
      <point x="217" y="214"/>
      <point x="281" y="186" name="dv03"/>
      <point x="350" y="167" type="curve"/>
      <point x="417" y="150"/>
      <point x="480" y="141" name="dv04"/>
      <point x="547" y="141" type="curve" smooth="yes"/>
      <point x="658" y="141" name="sh01"/>
      <point x="743" y="166"/>
      <point x="802" y="216" type="curve" smooth="yes" name="sv01"/>
      <point x="862" y="267"/>
      <point x="891" y="340"/>
      <point x="891" y="429" type="curve" smooth="yes"/>
      <point x="891" y="518"/>
      <point x="862" y="588" name="at01"/>
      <point x="803" y="639" type="curve" smooth="yes"/>
      <point x="746" y="688" name="ih01"/>
      <point x="664" y="715"/>
      <point x="561" y="715" type="curve" smooth="yes" name="iv01"/>
      <point x="407" y="715" type="line"/>
      <point x="407" y="881" type="line" name="dh02"/>
      <point x="561" y="881" type="line" smooth="yes"/>
      <point x="654" y="881"/>
      <point x="727" y="901"/>
      <point x="779" y="942" type="curve" smooth="yes" name="sh02"/>
      <point x="830" y="982"/>
      <point x="856" y="1040"/>
      <point x="856" y="1115" type="curve" smooth="yes"/>
      <point x="856" y="1187"/>
      <point x="832" y="1248"/>
      <point x="784" y="1289" type="curve" smooth="yes"/>
      <point x="737" y="1330"/>
      <point x="667" y="1350"/>
      <point x="574" y="1350" type="curve" smooth="yes"/>
      <point x="519" y="1350"/>
      <point x="457" y="1343"/>
      <point x="393" y="1330" type="curve" smooth="yes"/>
      <point x="328" y="1317"/>
      <point x="262" y="1297"/>
      <point x="194" y="1270" type="curve"/>
      <point x="194" y="1456" type="line"/>
      <point x="275" y="1477"/>
      <point x="347" y="1493"/>
      <point x="410" y="1504" type="curve" smooth="yes"/>
      <point x="471" y="1515"/>
      <point x="528" y="1520"/>
      <point x="579" y="1520" type="curve" smooth="yes"/>
      <point x="719" y="1520"/>
      <point x="839" y="1484"/>
      <point x="927" y="1411" type="curve" smooth="yes" name="hr02"/>
      <point x="1010" y="1342"/>
      <point x="1056" y="1243"/>
      <point x="1056" y="1122" type="curve" smooth="yes"/>
      <point x="1056" y="1035"/>
      <point x="1032" y="968"/>
      <point x="988" y="915" type="curve" smooth="yes"/>
      <point x="943" y="861"/>
      <point x="876" y="822"/>
      <point x="788" y="799" type="curve"/>
      <point x="886" y="773"/>
      <point x="961" y="727"/>
      <point x="1013" y="661" type="curve" smooth="yes"/>
      <point x="1068" y="592"/>
      <point x="1091" y="507"/>
      <point x="1091" y="411" type="curve" smooth="yes"/>
      <point x="1091" y="278"/>
      <point x="1046" y="168"/>
      <point x="954" y="89" type="curve" smooth="yes"/>
      <point x="863" y="12"/>
      <point x="735" y="-29"/>
    </contour>
  </outline>
</glyph>
<glyph name="five" format="1">
  <advance width="1233"/>
  <unicode hex="0035"/>
  <outline>
    <contour>
      <point x="525" y="-29" type="curve" smooth="yes" name="dv01"/>
      <point x="465" y="-29"/>
      <point x="385" y="-24"/>
      <point x="320" y="-13" type="curve" smooth="yes"/>
      <point x="252" y="-2"/>
      <point x="196" y="14" name="dv02"/>
      <point x="143" y="35" type="curve"/>
      <point x="143" y="240" type="line" name="ah02"/>
      <point x="205" y="207"/>
      <point x="267" y="182" name="dv03"/>
      <point x="328" y="166" type="curve" smooth="yes"/>
      <point x="391" y="149" name="sh01"/>
      <point x="452" y="141" name="at01"/>
      <point x="513" y="141" type="curve" smooth="yes"/>
      <point x="629" y="141" name="sv01"/>
      <point x="717" y="170"/>
      <point x="776" y="229" type="curve" smooth="yes" name="sh02"/>
      <point x="836" y="288"/>
      <point x="866" y="370" name="dv04"/>
      <point x="866" y="477" type="curve" smooth="yes"/>
      <point x="866" y="593" name="sh03"/>
      <point x="830" y="674"/>
      <point x="773" y="729" type="curve" smooth="yes"/>
      <point x="717" y="782" name="ah01"/>
      <point x="629" y="817" name="sh04"/>
      <point x="508" y="817" type="curve" smooth="yes"/>
      <point x="459" y="817"/>
      <point x="405" y="811"/>
      <point x="354" y="799" type="curve" smooth="yes"/>
      <point x="305" y="787"/>
      <point x="250" y="766"/>
      <point x="207" y="743" type="curve"/>
      <point x="207" y="1493" type="line"/>
      <point x="963" y="1493" type="line"/>
      <point x="963" y="1323" type="line"/>
      <point x="391" y="1323" type="line"/>
      <point x="391" y="956" type="line"/>
      <point x="420" y="967"/>
      <point x="449" y="975"/>
      <point x="478" y="980" type="curve" smooth="yes"/>
      <point x="505" y="985"/>
      <point x="535" y="987"/>
      <point x="566" y="987" type="curve" smooth="yes"/>
      <point x="727" y="987"/>
      <point x="850" y="934"/>
      <point x="934" y="850" type="curve" smooth="yes"/>
      <point x="1025" y="758"/>
      <point x="1069" y="632"/>
      <point x="1069" y="481" type="curve" smooth="yes"/>
      <point x="1069" y="324"/>
      <point x="1020" y="195"/>
      <point x="928" y="106" type="curve" smooth="yes"/>
      <point x="836" y="18"/>
      <point x="705" y="-29"/>
    </contour>
  </outline>
</glyph>
<glyph name="eight" format="1">
  <advance width="1233"/>
  <unicode hex="0038"/>
  <outline>
    <contour>
      <point x="615" y="-29" type="curve" smooth="yes" name="dv01"/>
      <point x="460" y="-29"/>
      <point x="343" y="12" name="dh01"/>
      <point x="260" y="84" type="curve" smooth="yes"/>
      <point x="177" y="156" name="ih02"/>
      <point x="131" y="260"/>
      <point x="131" y="400" type="curve" smooth="yes" name="ih03"/>
      <point x="131" y="506"/>
      <point x="158" y="593" name="at01"/>
      <point x="211" y="660" type="curve" smooth="yes"/>
      <point x="264" y="727" name="dh04"/>
      <point x="340" y="771"/>
      <point x="440" y="793" type="curve" name="ih04"/>
      <point x="359" y="813"/>
      <point x="287" y="855" name="sh01"/>
      <point x="239" y="915" type="curve" smooth="yes"/>
      <point x="188" y="978"/>
      <point x="166" y="1053" name="dv04"/>
      <point x="166" y="1137" type="curve" smooth="yes"/>
      <point x="166" y="1250" name="dh03"/>
      <point x="206" y="1345"/>
      <point x="287" y="1416" type="curve" smooth="yes" name="sv01"/>
      <point x="366" y="1484"/>
      <point x="473" y="1520" name="sh02"/>
      <point x="616" y="1520" type="curve" smooth="yes"/>
      <point x="759" y="1520"/>
      <point x="867" y="1484" name="dv02"/>
      <point x="946" y="1416" type="curve" smooth="yes"/>
      <point x="1026" y="1348" name="ih01"/>
      <point x="1067" y="1253"/>
      <point x="1067" y="1136" type="curve" smooth="yes" name="dv03"/>
      <point x="1067" y="1045"/>
      <point x="1042" y="975" name="dh02"/>
      <point x="995" y="916" type="curve" smooth="yes" name="hr01"/>
      <point x="948" y="857"/>
      <point x="881" y="816"/>
      <point x="793" y="793" type="curve" name="sh03"/>
      <point x="894" y="771"/>
      <point x="970" y="727"/>
      <point x="1023" y="660" type="curve" smooth="yes"/>
      <point x="1076" y="593"/>
      <point x="1102" y="507"/>
      <point x="1102" y="402" type="curve" smooth="yes"/>
      <point x="1102" y="262"/>
      <point x="1056" y="156"/>
      <point x="973" y="84" type="curve" smooth="yes"/>
      <point x="889" y="11"/>
      <point x="768" y="-29"/>
    </contour>
    <contour>
      <point x="616" y="868" type="curve" smooth="yes"/>
      <point x="697" y="868"/>
      <point x="759" y="889"/>
      <point x="802" y="931" type="curve" smooth="yes"/>
      <point x="845" y="973"/>
      <point x="866" y="1034"/>
      <point x="866" y="1114" type="curve" smooth="yes"/>
      <point x="866" y="1195"/>
      <point x="845" y="1257"/>
      <point x="803" y="1300" type="curve" smooth="yes" name="hr02"/>
      <point x="760" y="1343"/>
      <point x="698" y="1364"/>
      <point x="616" y="1364" type="curve" smooth="yes"/>
      <point x="535" y="1364"/>
      <point x="474" y="1343"/>
      <point x="431" y="1300" type="curve" smooth="yes"/>
      <point x="388" y="1257"/>
      <point x="367" y="1195"/>
      <point x="367" y="1114" type="curve" smooth="yes"/>
      <point x="367" y="1034"/>
      <point x="388" y="973"/>
      <point x="431" y="931" type="curve" smooth="yes" name="hr03"/>
      <point x="474" y="889"/>
      <point x="535" y="868"/>
    </contour>
    <contour>
      <point x="619" y="129" type="curve" smooth="yes"/>
      <point x="707" y="129"/>
      <point x="777" y="154"/>
      <point x="826" y="205" type="curve" smooth="yes"/>
      <point x="875" y="256"/>
      <point x="899" y="327"/>
      <point x="899" y="418" type="curve" smooth="yes"/>
      <point x="899" y="517"/>
      <point x="872" y="586"/>
      <point x="825" y="633" type="curve" smooth="yes"/>
      <point x="775" y="684"/>
      <point x="705" y="709"/>
      <point x="616" y="709" type="curve" smooth="yes"/>
      <point x="526" y="709"/>
      <point x="457" y="684"/>
      <point x="408" y="634" type="curve" smooth="yes"/>
      <point x="361" y="586"/>
      <point x="334" y="514"/>
      <point x="334" y="421" type="curve" smooth="yes" name="hr04"/>
      <point x="334" y="330"/>
      <point x="359" y="257"/>
      <point x="408" y="206" type="curve" smooth="yes"/>
      <point x="459" y="154"/>
      <point x="531" y="129"/>
    </contour>
  </outline>
</glyph>
<glyph name="semicolon" format="1">
  <advance width="1233"/>
  <unicode hex="003B"/>
  <outline>
    <contour>
      <point x="610" y="703" type="curve" smooth="yes"/>
      <point x="659" y="703"/>
      <point x="699" y="720" name="dh02"/>
      <point x="731" y="753" type="curve"/>
      <point x="764" y="785" name="dv02"/>
      <point x="780" y="828"/>
      <point x="780" y="881" type="curve" smooth="yes" name="dh01"/>
      <point x="780" y="934"/>
      <point x="764" y="976" name="dv01"/>
      <point x="731" y="1009" type="curve" smooth="yes" name="av01"/>
      <point x="699" y="1042"/>
      <point x="659" y="1058" name="sh01"/>
      <point x="610" y="1058" type="curve" smooth="yes"/>
      <point x="562" y="1058" name="sv01"/>
      <point x="522" y="1042"/>
      <point x="490" y="1009" type="curve" smooth="yes"/>
      <point x="457" y="976"/>
      <point x="440" y="933" name="ab01"/>
      <point x="440" y="881" type="curve" smooth="yes" name="ih01"/>
      <point x="440" y="828"/>
      <point x="457" y="785"/>
      <point x="490" y="753" type="curve"/>
      <point x="522" y="720"/>
      <point x="562" y="703"/>
    </contour>
    <contour>
      <point x="442" y="-470" type="line"/>
      <point x="559" y="-427"/>
      <point x="650" y="-363"/>
      <point x="715" y="-276" type="curve" smooth="yes"/>
      <point x="780" y="-189"/>
      <point x="812" y="-86"/>
      <point x="812" y="34" type="curve" smooth="yes" name="hr01"/>
      <point x="812" y="118"/>
      <point x="796" y="184"/>
      <point x="764" y="231" type="curve" smooth="yes"/>
      <point x="731" y="278"/>
      <point x="684" y="302"/>
      <point x="625" y="302" type="curve" smooth="yes"/>
      <point x="574" y="302"/>
      <point x="531" y="285"/>
      <point x="503" y="260" type="curve" smooth="yes"/>
      <point x="470" y="231"/>
      <point x="455" y="189"/>
      <point x="455" y="142" type="curve" smooth="yes"/>
      <point x="455" y="93"/>
      <point x="470" y="55"/>
      <point x="501" y="26" type="curve"/>
      <point x="532" y="-1"/>
      <point x="573" y="-15"/>
      <point x="617" y="-15" type="curve" smooth="yes"/>
      <point x="629" y="-15"/>
      <point x="642" y="-14"/>
      <point x="659" y="-10" type="curve"/>
      <point x="653" y="-168"/>
      <point x="565" y="-285"/>
      <point x="394" y="-361" type="curve"/>
    </contour>
  </outline>
</glyph>
<glyph name="equal" format="1">
  <advance width="1233"/>
  <unicode hex="003D"/>
  <outline>
    <contour>
      <point x="88" y="930" type="line" name="hr00"/>
      <point x="1145" y="930" type="line" name="dv04"/>
      <point x="1145" y="760" type="line" name="dv03"/>
      <point x="88" y="760" type="line"/>
    </contour>
    <contour>
      <point x="88" y="524" type="line"/>
      <point x="1145" y="524" type="line" name="dv02"/>
      <point x="1145" y="352" type="line" name="dv01"/>
      <point x="88" y="352" type="line"/>
    </contour>
  </outline>
</glyph>
<glyph name="question" format="1">
  <advance width="1233"/>
  <unicode hex="003F"/>
  <outline>
    <contour>
      <point x="494" y="583" type="line" smooth="yes" name="ih01"/>
      <point x="494" y="635"/>
      <point x="504" y="684"/>
      <point x="524" y="729" type="curve"/>
      <point x="547" y="777"/>
      <point x="582" y="823" name="dh03"/>
      <point x="639" y="880" type="curve" smooth="yes"/>
      <point x="729" y="969" type="line" smooth="yes" name="dv03"/>
      <point x="768" y="1008"/>
      <point x="799" y="1044"/>
      <point x="814" y="1072" type="curve" smooth="yes"/>
      <point x="830" y="1101"/>
      <point x="838" y="1132" name="dv04"/>
      <point x="838" y="1166" type="curve" smooth="yes"/>
      <point x="838" y="1229" name="dh04"/>
      <point x="812" y="1276"/>
      <point x="773" y="1309" type="curve" smooth="yes"/>
      <point x="729" y="1346"/>
      <point x="671" y="1364"/>
      <point x="600" y="1364" type="curve" smooth="yes" name="sh01"/>
      <point x="545" y="1364"/>
      <point x="489" y="1353"/>
      <point x="431" y="1330" type="curve" smooth="yes" name="dv01"/>
      <point x="371" y="1307"/>
      <point x="309" y="1272" name="dh01"/>
      <point x="244" y="1227" type="curve" name="hr01"/>
      <point x="244" y="1415" type="line" name="dv02"/>
      <point x="308" y="1454"/>
      <point x="374" y="1483" name="dh02"/>
      <point x="434" y="1500" type="curve"/>
      <point x="495" y="1519"/>
      <point x="560" y="1528"/>
      <point x="629" y="1528" type="curve" smooth="yes" name="sh02"/>
      <point x="762" y="1528"/>
      <point x="863" y="1492"/>
      <point x="931" y="1432" type="curve" smooth="yes"/>
      <point x="1003" y="1368"/>
      <point x="1040" y="1278"/>
      <point x="1040" y="1178" type="curve" smooth="yes"/>
      <point x="1040" y="1125"/>
      <point x="1029" y="1076"/>
      <point x="1006" y="1033" type="curve" smooth="yes"/>
      <point x="982" y="988"/>
      <point x="940" y="936"/>
      <point x="879" y="876" type="curve" smooth="yes"/>
      <point x="791" y="790" type="line" smooth="yes"/>
      <point x="744" y="745"/>
      <point x="715" y="709"/>
      <point x="703" y="682" type="curve" smooth="yes"/>
      <point x="690" y="655"/>
      <point x="684" y="628"/>
      <point x="684" y="599" type="curve" smooth="yes"/>
      <point x="684" y="472" type="line"/>
      <point x="494" y="472" type="line"/>
    </contour>
    <contour>
      <point x="593" y="-40" type="curve" smooth="yes"/>
      <point x="552" y="-40"/>
      <point x="517" y="-26"/>
      <point x="489" y="2" type="curve" smooth="yes"/>
      <point x="460" y="31"/>
      <point x="446" y="70"/>
      <point x="446" y="113" type="curve" smooth="yes"/>
      <point x="446" y="156"/>
      <point x="460" y="194"/>
      <point x="488" y="222" type="curve" smooth="yes"/>
      <point x="511" y="245"/>
      <point x="547" y="264"/>
      <point x="592" y="264" type="curve" smooth="yes"/>
      <point x="635" y="264"/>
      <point x="669" y="249"/>
      <point x="696" y="222" type="curve" smooth="yes"/>
      <point x="724" y="194"/>
      <point x="738" y="158"/>
      <point x="738" y="113" type="curve" smooth="yes"/>
      <point x="738" y="68"/>
      <point x="724" y="31"/>
      <point x="696" y="3" type="curve" smooth="yes"/>
      <point x="667" y="-26"/>
      <point x="633" y="-40"/>
    </contour>
  </outline>
</glyph>
<glyph name="at" format="1">
  <advance width="1233"/>
  <unicode hex="0040"/>
  <outline>
    <contour>
      <point x="796" y="-319" type="curve" smooth="yes" name="dv01"/>
      <point x="577" y="-319"/>
      <point x="379" y="-244" name="dh01"/>
      <point x="236" y="-87" type="curve" smooth="yes"/>
      <point x="101" y="62" name="dv04"/>
      <point x="27" y="275"/>
      <point x="27" y="547" type="curve" smooth="yes"/>
      <point x="27" y="798" name="dh06"/>
      <point x="89" y="1011" name="dh05"/>
      <point x="214" y="1164" type="curve" smooth="yes" name="iv01"/>
      <point x="342" y="1321"/>
      <point x="518" y="1395" name="dv05"/>
      <point x="709" y="1395" type="curve" smooth="yes"/>
      <point x="861" y="1395" name="dh03"/>
      <point x="974" y="1348"/>
      <point x="1054" y="1263" type="curve" smooth="yes" name="dv08"/>
      <point x="1134" y="1178"/>
      <point x="1178" y="1053" name="sh01"/>
      <point x="1178" y="905" type="curve" smooth="yes"/>
      <point x="1178" y="135" type="line"/>
      <point x="1034" y="135" type="line" name="dv03"/>
      <point x="1034" y="246" type="line"/>
      <point x="1009" y="205" name="dh02"/>
      <point x="975" y="172"/>
      <point x="932" y="149" type="curve" smooth="yes" name="dv02"/>
      <point x="889" y="126"/>
      <point x="840" y="115"/>
      <point x="785" y="115" type="curve" smooth="yes"/>
      <point x="678" y="115"/>
      <point x="585" y="158"/>
      <point x="517" y="235" type="curve" smooth="yes" name="dv06"/>
      <point x="453" y="307"/>
      <point x="412" y="414" name="sh02"/>
      <point x="412" y="546" type="curve" smooth="yes"/>
      <point x="412" y="667" name="dv07"/>
      <point x="446" y="773"/>
      <point x="517" y="854" type="curve" smooth="yes" name="dh04"/>
      <point x="590" y="938"/>
      <point x="685" y="975"/>
      <point x="782" y="975" type="curve" smooth="yes"/>
      <point x="838" y="975" name="sh03"/>
      <point x="886" y="963"/>
      <point x="931" y="940" type="curve" smooth="yes"/>
      <point x="976" y="917"/>
      <point x="1010" y="885"/>
      <point x="1034" y="844" type="curve"/>
      <point x="1034" y="907" type="line" smooth="yes"/>
      <point x="1034" y="1011"/>
      <point x="1003" y="1099"/>
      <point x="947" y="1159" type="curve" smooth="yes"/>
      <point x="891" y="1220"/>
      <point x="809" y="1253"/>
      <point x="702" y="1253" type="curve" smooth="yes"/>
      <point x="553" y="1253"/>
      <point x="419" y="1190"/>
      <point x="322" y="1062" type="curve" smooth="yes"/>
      <point x="227" y="938"/>
      <point x="176" y="764"/>
      <point x="176" y="549" type="curve" smooth="yes"/>
      <point x="176" y="322"/>
      <point x="233" y="143"/>
      <point x="340" y="18" type="curve"/>
      <point x="444" y="-106"/>
      <point x="595" y="-176"/>
      <point x="778" y="-176" type="curve" smooth="yes"/>
      <point x="817" y="-176"/>
      <point x="852" y="-173"/>
      <point x="888" y="-166" type="curve" smooth="yes"/>
      <point x="924" y="-159"/>
      <point x="960" y="-150"/>
      <point x="999" y="-135" type="curve"/>
      <point x="1047" y="-270" type="line"/>
      <point x="1002" y="-289"/>
      <point x="963" y="-299"/>
      <point x="923" y="-307" type="curve" smooth="yes"/>
      <point x="882" y="-315"/>
      <point x="847" y="-319"/>
    </contour>
    <contour>
      <point x="803" y="260" type="curve" smooth="yes"/>
      <point x="872" y="260"/>
      <point x="932" y="287"/>
      <point x="975" y="338" type="curve" smooth="yes"/>
      <point x="1018" y="389"/>
      <point x="1038" y="461"/>
      <point x="1038" y="545" type="curve" smooth="yes"/>
      <point x="1038" y="629"/>
      <point x="1017" y="702"/>
      <point x="974" y="753" type="curve" smooth="yes"/>
      <point x="933" y="802"/>
      <point x="873" y="829"/>
      <point x="802" y="829" type="curve" smooth="yes"/>
      <point x="732" y="829"/>
      <point x="675" y="803"/>
      <point x="632" y="752" type="curve" smooth="yes"/>
      <point x="589" y="701"/>
      <point x="567" y="633"/>
      <point x="567" y="546" type="curve" smooth="yes"/>
      <point x="567" y="458"/>
      <point x="589" y="388"/>
      <point x="632" y="337" type="curve" smooth="yes"/>
      <point x="675" y="286"/>
      <point x="732" y="260"/>
    </contour>
  </outline>
</glyph>
<glyph name="A" format="1">
  <advance width="1233"/>
  <unicode hex="0041"/>
  <outline>
    <contour>
      <point x="494" y="1493" type="line" name="at01"/>
      <point x="739" y="1493" type="line"/>
      <point x="1196" y="0" type="line" name="ab01"/>
      <point x="987" y="0" type="line"/>
      <point x="877" y="389" type="line" name="dv01"/>
      <point x="354" y="389" type="line"/>
      <point x="246" y="0" type="line" name="ab02"/>
      <point x="37" y="0" type="line"/>
    </contour>
    <contour>
      <point x="829" y="551" type="line" name="dv02"/>
      <point x="616" y="1315" type="line"/>
      <point x="403" y="551" type="line"/>
    </contour>
  </outline>
</glyph>
<glyph name="B" format="1">
  <advance width="1233"/>
  <unicode hex="0042"/>
  <outline>
    <contour>
      <point x="166" y="1493" type="line" name="dh01"/>
      <point x="608" y="1493" type="line" smooth="yes"/>
      <point x="760" y="1493"/>
      <point x="878" y="1460" name="dh04"/>
      <point x="961" y="1394" type="curve" smooth="yes"/>
      <point x="1044" y="1328" name="ih02"/>
      <point x="1085" y="1234"/>
      <point x="1085" y="1113" type="curve" smooth="yes" name="sh01"/>
      <point x="1085" y="1020"/>
      <point x="1061" y="949" name="ab01"/>
      <point x="1020" y="898" type="curve"/>
      <point x="977" y="847" name="dv02"/>
      <point x="912" y="812"/>
      <point x="823" y="799" type="curve" name="dh03"/>
      <point x="922" y="784"/>
      <point x="999" y="742" name="sv01"/>
      <point x="1054" y="674" type="curve" smooth="yes" name="dh02"/>
      <point x="1109" y="606"/>
      <point x="1137" y="518" name="sv02"/>
      <point x="1137" y="409" type="curve" smooth="yes"/>
      <point x="1137" y="274" name="ih01"/>
      <point x="1093" y="173"/>
      <point x="1004" y="104" type="curve" smooth="yes" name="dv01"/>
      <point x="915" y="35" name="sh02"/>
      <point x="783" y="0"/>
      <point x="608" y="0" type="curve" smooth="yes"/>
      <point x="166" y="0" type="line" name="sh03"/>
    </contour>
    <contour>
      <point x="604" y="877" type="line" smooth="yes" name="hr01"/>
      <point x="705" y="877"/>
      <point x="772" y="895"/>
      <point x="816" y="934" type="curve" smooth="yes"/>
      <point x="859" y="971"/>
      <point x="881" y="1030"/>
      <point x="881" y="1111" type="curve" smooth="yes"/>
      <point x="881" y="1191"/>
      <point x="860" y="1244"/>
      <point x="817" y="1277" type="curve" smooth="yes"/>
      <point x="774" y="1310"/>
      <point x="703" y="1327"/>
      <point x="604" y="1327" type="curve" smooth="yes"/>
      <point x="369" y="1327" type="line"/>
      <point x="369" y="877" type="line" name="hr02"/>
    </contour>
    <contour>
      <point x="608" y="166" type="line" smooth="yes"/>
      <point x="725" y="166"/>
      <point x="808" y="187"/>
      <point x="859" y="228" type="curve" smooth="yes"/>
      <point x="909" y="269"/>
      <point x="934" y="336"/>
      <point x="934" y="430" type="curve" smooth="yes"/>
      <point x="934" y="527"/>
      <point x="908" y="599"/>
      <point x="855" y="645" type="curve" smooth="yes" name="hr03"/>
      <point x="802" y="690"/>
      <point x="719" y="713"/>
      <point x="608" y="713" type="curve" smooth="yes"/>
      <point x="369" y="713" type="line"/>
      <point x="369" y="166" type="line"/>
    </contour>
  </outline>
</glyph>
<glyph name="C" format="1">
  <advance width="1233"/>
  <unicode hex="0043"/>
  <outline>
    <contour>
      <point x="742" y="-29" type="curve" smooth="yes" name="dv01"/>
      <point x="555" y="-29"/>
      <point x="404" y="37" name="dh01"/>
      <point x="297" y="174" type="curve" smooth="yes"/>
      <point x="192" y="310" name="at01"/>
      <point x="139" y="503"/>
      <point x="139" y="744" type="curve" smooth="yes"/>
      <point x="139" y="985"/>
      <point x="191" y="1179"/>
      <point x="298" y="1316" type="curve" smooth="yes" name="sv01"/>
      <point x="405" y="1453"/>
      <point x="555" y="1520" name="dh02"/>
      <point x="742" y="1520" type="curve" smooth="yes"/>
      <point x="806" y="1520" name="dv02"/>
      <point x="867" y="1512"/>
      <point x="915" y="1500" type="curve" smooth="yes"/>
      <point x="963" y="1488"/>
      <point x="1025" y="1465"/>
      <point x="1073" y="1438" type="curve"/>
      <point x="1073" y="1231" type="line"/>
      <point x="1024" y="1272"/>
      <point x="971" y="1303"/>
      <point x="914" y="1324" type="curve" smooth="yes"/>
      <point x="857" y="1345"/>
      <point x="801" y="1356"/>
      <point x="741" y="1356" type="curve" smooth="yes"/>
      <point x="612" y="1356"/>
      <point x="513" y="1305"/>
      <point x="448" y="1204" type="curve" smooth="yes"/>
      <point x="383" y="1103"/>
      <point x="350" y="950"/>
      <point x="350" y="745" type="curve" smooth="yes"/>
      <point x="350" y="541"/>
      <point x="383" y="388"/>
      <point x="448" y="287" type="curve" smooth="yes"/>
      <point x="513" y="186"/>
      <point x="612" y="135"/>
      <point x="743" y="135" type="curve" smooth="yes"/>
      <point x="803" y="135"/>
      <point x="859" y="146"/>
      <point x="916" y="167" type="curve" smooth="yes"/>
      <point x="971" y="188"/>
      <point x="1024" y="219"/>
      <point x="1073" y="260" type="curve"/>
      <point x="1073" y="53" type="line"/>
      <point x="1021" y="26"/>
      <point x="968" y="5"/>
      <point x="915" y="-9" type="curve" smooth="yes"/>
      <point x="863" y="-22"/>
      <point x="802" y="-29"/>
    </contour>
  </outline>
</glyph>
<glyph name="F" format="1">
  <advance width="1233"/>
  <unicode hex="0046"/>
  <outline>
    <contour>
      <point x="233" y="1493" type="line" name="dh01"/>
      <point x="1112" y="1493" type="line"/>
      <point x="1112" y="1323" type="line" name="sv01"/>
      <point x="436" y="1323" type="line" name="dh02"/>
      <point x="436" y="863" type="line"/>
      <point x="1049" y="863" type="line" name="dv02"/>
      <point x="1049" y="693" type="line" name="dv01"/>
      <point x="436" y="693" type="line" name="sh01"/>
      <point x="436" y="0" type="line" name="ab01"/>
      <point x="233" y="0" type="line"/>
    </contour>
  </outline>
</glyph>
<glyph name="G" format="1">
  <advance width="1233"/>
  <unicode hex="0047"/>
  <outline>
    <contour>
      <point x="700" y="-29" type="curve" smooth="yes" name="dv01"/>
      <point x="509" y="-29"/>
      <point x="362" y="42" name="dh01"/>
      <point x="259" y="175" type="curve" smooth="yes"/>
      <point x="155" y="311" name="at01"/>
      <point x="102" y="503"/>
      <point x="102" y="744" type="curve" smooth="yes"/>
      <point x="102" y="992" name="ih01"/>
      <point x="158" y="1184"/>
      <point x="262" y="1317" type="curve" smooth="yes" name="sv01"/>
      <point x="366" y="1450"/>
      <point x="516" y="1520" name="dh02"/>
      <point x="703" y="1520" type="curve" smooth="yes"/>
      <point x="770" y="1520" name="dv02"/>
      <point x="831" y="1511"/>
      <point x="887" y="1494" type="curve" smooth="yes" name="sh01"/>
      <point x="946" y="1475" name="dv03"/>
      <point x="1001" y="1448"/>
      <point x="1053" y="1413" type="curve" name="dh03"/>
      <point x="1053" y="1206" type="line" name="dh04"/>
      <point x="996" y="1261"/>
      <point x="938" y="1297"/>
      <point x="887" y="1320" type="curve"/>
      <point x="828" y="1345"/>
      <point x="766" y="1356" name="sh02"/>
      <point x="706" y="1356" type="curve" smooth="yes"/>
      <point x="577" y="1356"/>
      <point x="480" y="1308"/>
      <point x="412" y="1204" type="curve" smooth="yes"/>
      <point x="345" y="1101"/>
      <point x="313" y="952"/>
      <point x="313" y="743" type="curve" smooth="yes"/>
      <point x="313" y="532"/>
      <point x="345" y="385"/>
      <point x="409" y="285" type="curve" smooth="yes"/>
      <point x="472" y="185"/>
      <point x="570" y="135"/>
      <point x="703" y="135" type="curve" smooth="yes"/>
      <point x="746" y="135"/>
      <point x="785" y="140"/>
      <point x="820" y="151" type="curve" smooth="yes"/>
      <point x="852" y="162"/>
      <point x="883" y="176"/>
      <point x="911" y="199" type="curve"/>
      <point x="911" y="600" type="line"/>
      <point x="694" y="600" type="line"/>
      <point x="694" y="766" type="line"/>
      <point x="1104" y="766" type="line"/>
      <point x="1104" y="123" type="line"/>
      <point x="1050" y="73"/>
      <point x="989" y="35"/>
      <point x="922" y="10" type="curve" smooth="yes"/>
      <point x="854" y="-16"/>
      <point x="780" y="-29"/>
    </contour>
  </outline>
</glyph>
<glyph name="J" format="1">
  <advance width="1233"/>
  <unicode hex="004A"/>
  <outline>
    <contour>
      <point x="502" y="-29" type="curve" smooth="yes" name="dv01"/>
      <point x="433" y="-29"/>
      <point x="368" y="-22"/>
      <point x="307" y="-7" type="curve" smooth="yes"/>
      <point x="242" y="8"/>
      <point x="176" y="31" name="dv02"/>
      <point x="109" y="61" type="curve"/>
      <point x="109" y="297" type="line" name="dh01"/>
      <point x="170" y="243" name="sv01"/>
      <point x="232" y="203"/>
      <point x="297" y="176" type="curve" smooth="yes" name="at01"/>
      <point x="363" y="149"/>
      <point x="430" y="135" name="dh02"/>
      <point x="499" y="135" type="curve" smooth="yes"/>
      <point x="588" y="135"/>
      <point x="659" y="158"/>
      <point x="698" y="210" type="curve" smooth="yes" name="sh01"/>
      <point x="735" y="259"/>
      <point x="754" y="352"/>
      <point x="754" y="487" type="curve" smooth="yes"/>
      <point x="754" y="1323" type="line"/>
      <point x="373" y="1323" type="line"/>
      <point x="373" y="1493" type="line"/>
      <point x="956" y="1493" type="line"/>
      <point x="956" y="487" type="line" smooth="yes"/>
      <point x="956" y="295"/>
      <point x="923" y="170"/>
      <point x="850" y="89" type="curve" smooth="yes"/>
      <point x="777" y="8"/>
      <point x="665" y="-29"/>
    </contour>
  </outline>
</glyph>
<glyph name="O" format="1">
  <advance width="1233"/>
  <unicode hex="004F"/>
  <outline>
    <contour>
      <point x="616" y="-29" type="curve" smooth="yes" name="dv01"/>
      <point x="447" y="-29"/>
      <point x="322" y="35" name="sh01"/>
      <point x="240" y="162" type="curve" smooth="yes"/>
      <point x="158" y="289" name="at01"/>
      <point x="117" y="483"/>
      <point x="117" y="745" type="curve" smooth="yes" name="sh02"/>
      <point x="117" y="1006"/>
      <point x="158" y="1201"/>
      <point x="241" y="1328" type="curve" smooth="yes" name="dv02"/>
      <point x="324" y="1456"/>
      <point x="445" y="1520" name="ah02"/>
      <point x="616" y="1520" type="curve" smooth="yes"/>
      <point x="780" y="1520" name="sv01"/>
      <point x="908" y="1461"/>
      <point x="993" y="1328" type="curve" smooth="yes" name="sh03"/>
      <point x="1075" y="1200"/>
      <point x="1116" y="1006"/>
      <point x="1116" y="745" type="curve" smooth="yes" name="ah01"/>
      <point x="1116" y="485" name="sh04"/>
      <point x="1075" y="291"/>
      <point x="993" y="163" type="curve" smooth="yes"/>
      <point x="908" y="30"/>
      <point x="780" y="-29"/>
    </contour>
    <contour>
      <point x="616" y="135" type="curve" smooth="yes"/>
      <point x="719" y="135"/>
      <point x="793" y="182"/>
      <point x="838" y="276" type="curve" smooth="yes"/>
      <point x="883" y="368"/>
      <point x="905" y="524"/>
      <point x="905" y="745" type="curve" smooth="yes"/>
      <point x="905" y="965"/>
      <point x="883" y="1122"/>
      <point x="838" y="1215" type="curve" smooth="yes"/>
      <point x="793" y="1309"/>
      <point x="719" y="1356"/>
      <point x="616" y="1356" type="curve" smooth="yes"/>
      <point x="514" y="1356"/>
      <point x="441" y="1309"/>
      <point x="396" y="1215" type="curve" smooth="yes"/>
      <point x="351" y="1120"/>
      <point x="328" y="964"/>
      <point x="328" y="745" type="curve" smooth="yes"/>
      <point x="328" y="527"/>
      <point x="351" y="371"/>
      <point x="396" y="276" type="curve" smooth="yes"/>
      <point x="441" y="182"/>
      <point x="514" y="135"/>
    </contour>
  </outline>
</glyph>
<glyph name="P" format="1">
  <advance width="1233"/>
  <unicode hex="0050"/>
  <outline>
    <contour>
      <point x="172" y="1493" type="line" name="sh01"/>
      <point x="608" y="1493" type="line" smooth="yes"/>
      <point x="774" y="1493"/>
      <point x="900" y="1455" name="sh02"/>
      <point x="987" y="1380" type="curve"/>
      <point x="1076" y="1301" name="dv01"/>
      <point x="1116" y="1187" name="sh04"/>
      <point x="1116" y="1046" type="curve" smooth="yes" name="ab01"/>
      <point x="1116" y="899"/>
      <point x="1073" y="788" name="dv02"/>
      <point x="988" y="713" type="curve" smooth="yes"/>
      <point x="904" y="638" name="ah02"/>
      <point x="777" y="600"/>
      <point x="608" y="600" type="curve" smooth="yes" name="sv01"/>
      <point x="374" y="600" type="line" name="sh03"/>
      <point x="374" y="0" type="line"/>
      <point x="172" y="0" type="line" name="ah01"/>
    </contour>
    <contour>
      <point x="608" y="766" type="line" smooth="yes" name="sh05"/>
      <point x="708" y="766"/>
      <point x="779" y="795"/>
      <point x="827" y="840" type="curve" smooth="yes"/>
      <point x="879" y="889"/>
      <point x="905" y="958"/>
      <point x="905" y="1047" type="curve" smooth="yes"/>
      <point x="905" y="1136"/>
      <point x="879" y="1205"/>
      <point x="827" y="1254" type="curve" smooth="yes"/>
      <point x="776" y="1303"/>
      <point x="703" y="1327"/>
      <point x="608" y="1327" type="curve" smooth="yes"/>
      <point x="374" y="1327" type="line"/>
      <point x="374" y="766" type="line"/>
    </contour>
  </outline>
</glyph>
<glyph name="Q" format="1">
  <advance width="1233"/>
  <unicode hex="0051"/>
  <outline>
    <contour>
      <point x="655" y="-27" type="line" name="ab01"/>
      <point x="650" y="-27" name="ab02"/>
      <point x="644" y="-27" name="ab03"/>
      <point x="635" y="-28" type="curve" smooth="yes"/>
      <point x="626" y="-29" name="sh01"/>
      <point x="620" y="-29"/>
      <point x="617" y="-29" type="curve" smooth="yes" name="at01"/>
      <point x="450" y="-29"/>
      <point x="326" y="30" name="sh02"/>
      <point x="241" y="163" type="curve" smooth="yes"/>
      <point x="156" y="296" name="iv01"/>
      <point x="117" y="489" name="sh03"/>
      <point x="117" y="745" type="curve" smooth="yes"/>
      <point x="117" y="1006" name="sv01"/>
      <point x="158" y="1201"/>
      <point x="241" y="1328" type="curve" smooth="yes" name="ah02"/>
      <point x="324" y="1456"/>
      <point x="445" y="1520" name="sv02"/>
      <point x="616" y="1520" type="curve" smooth="yes"/>
      <point x="780" y="1520" name="sh04"/>
      <point x="908" y="1461"/>
      <point x="993" y="1328" type="curve" smooth="yes"/>
      <point x="1075" y="1200" name="ah01"/>
      <point x="1116" y="1006" name="sh05"/>
      <point x="1116" y="745" type="curve" smooth="yes"/>
      <point x="1116" y="550"/>
      <point x="1093" y="392"/>
      <point x="1048" y="272" type="curve" smooth="yes"/>
      <point x="1004" y="155"/>
      <point x="935" y="68"/>
      <point x="840" y="20" type="curve"/>
      <point x="1125" y="-270" type="line"/>
      <point x="889" y="-270" type="line"/>
    </contour>
    <contour>
      <point x="616" y="135" type="curve" smooth="yes"/>
      <point x="719" y="135"/>
      <point x="793" y="182"/>
      <point x="838" y="276" type="curve" smooth="yes"/>
      <point x="883" y="368"/>
      <point x="905" y="524"/>
      <point x="905" y="745" type="curve" smooth="yes"/>
      <point x="905" y="965"/>
      <point x="883" y="1122"/>
      <point x="838" y="1215" type="curve" smooth="yes"/>
      <point x="793" y="1309"/>
      <point x="719" y="1356"/>
      <point x="616" y="1356" type="curve" smooth="yes"/>
      <point x="514" y="1356"/>
      <point x="441" y="1309"/>
      <point x="396" y="1215" type="curve" smooth="yes"/>
      <point x="351" y="1120"/>
      <point x="328" y="964"/>
      <point x="328" y="745" type="curve" smooth="yes"/>
      <point x="328" y="527"/>
      <point x="351" y="371"/>
      <point x="396" y="276" type="curve" smooth="yes"/>
      <point x="441" y="182"/>
      <point x="514" y="135"/>
    </contour>
  </outline>
</glyph>
<glyph name="R" format="1">
  <advance width="1233"/>
  <unicode hex="0052"/>
  <outline>
    <contour>
      <point x="143" y="1493" type="line" name="sh01"/>
      <point x="559" y="1493" type="line" smooth="yes"/>
      <point x="723" y="1493"/>
      <point x="849" y="1456" name="sh02"/>
      <point x="936" y="1382" type="curve" smooth="yes"/>
      <point x="1024" y="1307" name="ih01"/>
      <point x="1067" y="1200"/>
      <point x="1067" y="1065" type="curve" smooth="yes"/>
      <point x="1067" y="960" name="ab01"/>
      <point x="1040" y="883"/>
      <point x="987" y="820" type="curve" smooth="yes"/>
      <point x="934" y="757"/>
      <point x="858" y="719" name="dv01"/>
      <point x="760" y="705" type="curve" name="sh04"/>
      <point x="813" y="692" name="ab02"/>
      <point x="860" y="665"/>
      <point x="893" y="630" type="curve" smooth="yes" name="dv02"/>
      <point x="930" y="591"/>
      <point x="971" y="525" name="ah02"/>
      <point x="1030" y="408" type="curve" smooth="yes"/>
      <point x="1233" y="0" type="line" name="sv01"/>
      <point x="1016" y="0" type="line" name="sh03"/>
      <point x="838" y="377" type="line" smooth="yes"/>
      <point x="786" y="488" name="ah01"/>
      <point x="740" y="554" name="sh05"/>
      <point x="700" y="585" type="curve" smooth="yes"/>
      <point x="659" y="617"/>
      <point x="602" y="631"/>
      <point x="539" y="631" type="curve" smooth="yes"/>
      <point x="346" y="631" type="line"/>
      <point x="346" y="0" type="line"/>
      <point x="143" y="0" type="line"/>
    </contour>
    <contour>
      <point x="567" y="797" type="line" smooth="yes"/>
      <point x="664" y="797"/>
      <point x="736" y="819"/>
      <point x="783" y="862" type="curve" smooth="yes"/>
      <point x="830" y="905"/>
      <point x="854" y="972"/>
      <point x="854" y="1059" type="curve" smooth="yes"/>
      <point x="854" y="1146"/>
      <point x="830" y="1212"/>
      <point x="779" y="1259" type="curve" smooth="yes"/>
      <point x="731" y="1302"/>
      <point x="659" y="1327"/>
      <point x="559" y="1327" type="curve" smooth="yes"/>
      <point x="346" y="1327" type="line"/>
      <point x="346" y="797" type="line"/>
    </contour>
  </outline>
</glyph>
<glyph name="T" format="1">
  <advance width="1233"/>
  <unicode hex="0054"/>
  <outline>
    <contour>
      <point x="516" y="1323" type="line" name="dh01"/>
      <point x="47" y="1323" type="line"/>
      <point x="47" y="1493" type="line" name="at01"/>
      <point x="1186" y="1493" type="line"/>
      <point x="1186" y="1323" type="line" name="sv01"/>
      <point x="719" y="1323" type="line" name="dh02"/>
      <point x="719" y="0" type="line" name="ab01"/>
      <point x="516" y="0" type="line"/>
    </contour>
  </outline>
</glyph>
<glyph name="U" format="1">
  <advance width="1233"/>
  <unicode hex="0055"/>
  <outline>
    <contour>
      <point x="616" y="-29" type="curve" smooth="yes" name="dv01"/>
      <point x="544" y="-29"/>
      <point x="483" y="-19"/>
      <point x="427" y="0" type="curve"/>
      <point x="375" y="19" name="sh01"/>
      <point x="316" y="49" name="at01"/>
      <point x="273" y="88" type="curve" smooth="yes"/>
      <point x="232" y="125" name="sh02"/>
      <point x="200" y="173" name="sh03"/>
      <point x="177" y="249" type="curve" smooth="yes"/>
      <point x="156" y="316"/>
      <point x="147" y="409" name="dv02"/>
      <point x="147" y="573" type="curve" smooth="yes"/>
      <point x="147" y="1493" type="line"/>
      <point x="350" y="1493" type="line" name="sh04"/>
      <point x="350" y="481" type="line" smooth="yes" name="ah02"/>
      <point x="350" y="408" name="at02"/>
      <point x="352" y="357"/>
      <point x="356" y="326" type="curve" smooth="yes" name="sh05"/>
      <point x="360" y="295"/>
      <point x="367" y="271"/>
      <point x="377" y="254" type="curve" smooth="yes"/>
      <point x="398" y="215"/>
      <point x="429" y="185" name="ah01"/>
      <point x="470" y="165" type="curve" smooth="yes" name="sh06"/>
      <point x="510" y="145"/>
      <point x="559" y="135"/>
      <point x="616" y="135" type="curve" smooth="yes"/>
      <point x="674" y="135"/>
      <point x="723" y="145"/>
      <point x="763" y="165" type="curve" smooth="yes"/>
      <point x="804" y="186"/>
      <point x="835" y="215"/>
      <point x="856" y="254" type="curve" smooth="yes"/>
      <point x="867" y="274"/>
      <point x="873" y="293"/>
      <point x="877" y="325" type="curve" smooth="yes"/>
      <point x="881" y="356"/>
      <point x="883" y="407"/>
      <point x="883" y="479" type="curve" smooth="yes"/>
      <point x="883" y="1493" type="line"/>
      <point x="1085" y="1493" type="line"/>
      <point x="1085" y="573" type="line" smooth="yes"/>
      <point x="1085" y="397"/>
      <point x="1073" y="309"/>
      <point x="1057" y="249" type="curve" smooth="yes"/>
      <point x="1038" y="182"/>
      <point x="1004" y="129"/>
      <point x="959" y="88" type="curve" smooth="yes"/>
      <point x="915" y="48"/>
      <point x="858" y="19"/>
      <point x="806" y="0" type="curve" smooth="yes"/>
      <point x="757" y="-17"/>
      <point x="695" y="-29"/>
    </contour>
  </outline>
</glyph>
<glyph name="Y" format="1">
  <advance width="1233"/>
  <unicode hex="0059"/>
  <outline>
    <contour>
      <point x="514" y="670" type="line" name="dh01"/>
      <point x="37" y="1493" type="line" name="at01"/>
      <point x="252" y="1493" type="line"/>
      <point x="616" y="834" type="line" name="ih01"/>
      <point x="979" y="1493" type="line" name="at02"/>
      <point x="1196" y="1493" type="line"/>
      <point x="717" y="670" type="line" name="dh02"/>
      <point x="717" y="0" type="line" name="ab01"/>
      <point x="514" y="0" type="line"/>
    </contour>
  </outline>
</glyph>
<glyph name="bracketleft" format="1">
  <advance width="1233"/>
  <unicode hex="005B"/>
  <outline>
    <contour>
      <point x="423" y="1636" type="line" name="dh01"/>
      <point x="847" y="1636" type="line" name="sh01"/>
      <point x="847" y="1493" type="line" name="dv02"/>
      <point x="607" y="1493" type="line" name="dh02"/>
      <point x="607" y="-127" type="line"/>
      <point x="847" y="-127" type="line" name="sh02"/>
      <point x="847" y="-270" type="line" name="dv01"/>
      <point x="423" y="-270" type="line"/>
    </contour>
  </outline>
</glyph>
<glyph name="bracketright" format="1">
  <advance width="1233"/>
  <unicode hex="005D"/>
  <outline>
    <contour>
      <point x="386" y="-127" type="line"/>
      <point x="626" y="-127" type="line" name="sh01"/>
      <point x="626" y="1492" type="line" name="dv01"/>
      <point x="386" y="1492" type="line" name="sh02"/>
      <point x="386" y="1635" type="line"/>
      <point x="810" y="1635" type="line" name="dv02"/>
      <point x="810" y="-270" type="line" name="dh02"/>
      <point x="386" y="-270" type="line" name="dh01"/>
    </contour>
  </outline>
</glyph>
<glyph name="c" format="1">
  <advance width="1233"/>
  <unicode hex="0063"/>
  <outline>
    <contour>
      <point x="712" y="-29" type="curve" smooth="yes" name="dv01"/>
      <point x="545" y="-29"/>
      <point x="406" y="24" name="dh01"/>
      <point x="310" y="127" type="curve" smooth="yes"/>
      <point x="213" y="231" name="dv04"/>
      <point x="164" y="376"/>
      <point x="164" y="559" type="curve" smooth="yes"/>
      <point x="164" y="750"/>
      <point x="218" y="893"/>
      <point x="311" y="992" type="curve" smooth="yes" name="dv03"/>
      <point x="410" y="1096"/>
      <point x="546" y="1147" name="dh02"/>
      <point x="713" y="1147" type="curve" smooth="yes"/>
      <point x="774" y="1147" name="dv02"/>
      <point x="824" y="1141"/>
      <point x="875" y="1126" type="curve" smooth="yes"/>
      <point x="926" y="1112"/>
      <point x="977" y="1090"/>
      <point x="1030" y="1061" type="curve"/>
      <point x="1030" y="868" type="line"/>
      <point x="981" y="911"/>
      <point x="933" y="943"/>
      <point x="884" y="962" type="curve" smooth="yes"/>
      <point x="834" y="981"/>
      <point x="779" y="991"/>
      <point x="718" y="991" type="curve" smooth="yes"/>
      <point x="602" y="991"/>
      <point x="513" y="954"/>
      <point x="451" y="879" type="curve" smooth="yes"/>
      <point x="389" y="804"/>
      <point x="358" y="697"/>
      <point x="358" y="560" type="curve" smooth="yes"/>
      <point x="358" y="432"/>
      <point x="384" y="320"/>
      <point x="451" y="240" type="curve" smooth="yes"/>
      <point x="514" y="165"/>
      <point x="604" y="127"/>
      <point x="721" y="127" type="curve" smooth="yes"/>
      <point x="788" y="127"/>
      <point x="842" y="138"/>
      <point x="889" y="157" type="curve" smooth="yes"/>
      <point x="949" y="180"/>
      <point x="989" y="209"/>
      <point x="1030" y="248" type="curve"/>
      <point x="1030" y="57" type="line"/>
      <point x="985" y="30"/>
      <point x="929" y="7"/>
      <point x="878" y="-8" type="curve" smooth="yes"/>
      <point x="831" y="-21"/>
      <point x="776" y="-29"/>
    </contour>
  </outline>
</glyph>
<glyph name="d" format="1">
  <advance width="1233"/>
  <unicode hex="0064"/>
  <outline>
    <contour>
      <point x="559" y="-29" type="curve" smooth="yes" name="dv01"/>
      <point x="418" y="-29"/>
      <point x="311" y="30" name="sh01"/>
      <point x="239" y="129" type="curve" smooth="yes"/>
      <point x="162" y="234" name="dv04"/>
      <point x="123" y="382"/>
      <point x="123" y="562" type="curve" smooth="yes" name="iv01"/>
      <point x="123" y="739" name="ah02"/>
      <point x="160" y="888" name="sh02"/>
      <point x="239" y="992" type="curve" smooth="yes" name="ab01"/>
      <point x="318" y="1096"/>
      <point x="430" y="1147" name="sh03"/>
      <point x="559" y="1147" type="curve" smooth="yes"/>
      <point x="627" y="1147"/>
      <point x="686" y="1133" name="dv02"/>
      <point x="737" y="1104" type="curve" smooth="yes"/>
      <point x="788" y="1075" name="sh04"/>
      <point x="829" y="1032"/>
      <point x="858" y="977" type="curve" name="dv03"/>
      <point x="858" y="1556" type="line"/>
      <point x="1042" y="1556" type="line" name="sh05"/>
      <point x="1042" y="0" type="line"/>
      <point x="876" y="0" type="line"/>
      <point x="858" y="141" type="line" name="ah01"/>
      <point x="827" y="88" name="sh06"/>
      <point x="791" y="46"/>
      <point x="736" y="15" type="curve" smooth="yes" name="hr01"/>
      <point x="685" y="-14"/>
      <point x="626" y="-29"/>
    </contour>
    <contour>
      <point x="585" y="127" type="curve" smooth="yes"/>
      <point x="675" y="127"/>
      <point x="743" y="164"/>
      <point x="789" y="237" type="curve" smooth="yes"/>
      <point x="835" y="310"/>
      <point x="858" y="417"/>
      <point x="858" y="559" type="curve" smooth="yes"/>
      <point x="858" y="701"/>
      <point x="835" y="809"/>
      <point x="789" y="882" type="curve" smooth="yes"/>
      <point x="746" y="950"/>
      <point x="681" y="991"/>
      <point x="586" y="991" type="curve" smooth="yes"/>
      <point x="497" y="991"/>
      <point x="430" y="955"/>
      <point x="385" y="882" type="curve" smooth="yes"/>
      <point x="340" y="809"/>
      <point x="317" y="701"/>
      <point x="317" y="559" type="curve" smooth="yes"/>
      <point x="317" y="417"/>
      <point x="340" y="309"/>
      <point x="385" y="236" type="curve" smooth="yes"/>
      <point x="432" y="160"/>
      <point x="501" y="127"/>
    </contour>
  </outline>
</glyph>
<glyph name="e" format="1">
  <advance width="1233"/>
  <unicode hex="0065"/>
  <outline>
    <contour>
      <point x="677" y="-29" type="curve" smooth="yes" name="dv01"/>
      <point x="505" y="-29"/>
      <point x="367" y="24" name="sh01"/>
      <point x="271" y="127" type="curve" smooth="yes"/>
      <point x="175" y="230" name="dv04"/>
      <point x="124" y="375"/>
      <point x="124" y="558" type="curve" smooth="yes" name="sh02"/>
      <point x="124" y="746"/>
      <point x="178" y="887" name="sh03"/>
      <point x="267" y="987" type="curve" smooth="yes"/>
      <point x="364" y="1095"/>
      <point x="498" y="1147" name="dv02"/>
      <point x="649" y="1147" type="curve" smooth="yes"/>
      <point x="798" y="1147" name="ih01"/>
      <point x="910" y="1096"/>
      <point x="990" y="1003" type="curve" smooth="yes"/>
      <point x="1070" y="910"/>
      <point x="1113" y="777" name="ah02"/>
      <point x="1113" y="606" type="curve" smooth="yes"/>
      <point x="1113" y="516" type="line" name="dv03"/>
      <point x="316" y="516" type="line"/>
      <point x="316" y="510" type="line" smooth="yes" name="sh04"/>
      <point x="316" y="388" name="ah01"/>
      <point x="348" y="294" name="sh05"/>
      <point x="412" y="227" type="curve" smooth="yes"/>
      <point x="473" y="163"/>
      <point x="559" y="127"/>
      <point x="680" y="127" type="curve" smooth="yes"/>
      <point x="741" y="127"/>
      <point x="802" y="136"/>
      <point x="865" y="155" type="curve" smooth="yes"/>
      <point x="930" y="174"/>
      <point x="998" y="203"/>
      <point x="1070" y="240" type="curve"/>
      <point x="1070" y="57" type="line"/>
      <point x="999" y="28"/>
      <point x="933" y="7"/>
      <point x="868" y="-8" type="curve" smooth="yes"/>
      <point x="804" y="-23"/>
      <point x="740" y="-29"/>
    </contour>
    <contour>
      <point x="929" y="660" type="line"/>
      <point x="926" y="775"/>
      <point x="897" y="856"/>
      <point x="853" y="907" type="curve" smooth="yes"/>
      <point x="805" y="963"/>
      <point x="733" y="991"/>
      <point x="645" y="991" type="curve" smooth="yes"/>
      <point x="555" y="991"/>
      <point x="482" y="962"/>
      <point x="425" y="903" type="curve" smooth="yes"/>
      <point x="368" y="844"/>
      <point x="334" y="762"/>
      <point x="323" y="659" type="curve"/>
    </contour>
  </outline>
</glyph>
<glyph name="f" format="1">
  <advance width="1233"/>
  <unicode hex="0066"/>
  <outline>
    <contour>
      <point x="466" y="977" type="line" name="dh01"/>
      <point x="167" y="977" type="line" name="sv01"/>
      <point x="167" y="1120" type="line" name="at02"/>
      <point x="466" y="1120" type="line" name="sh01"/>
      <point x="466" y="1198" type="line" smooth="yes"/>
      <point x="466" y="1321"/>
      <point x="494" y="1412" name="at01"/>
      <point x="551" y="1469" type="curve"/>
      <point x="607" y="1527" name="sv02"/>
      <point x="695" y="1556"/>
      <point x="814" y="1556" type="curve" smooth="yes"/>
      <point x="1035" y="1556" type="line" name="sh02"/>
      <point x="1035" y="1403" type="line" name="at03"/>
      <point x="826" y="1403" type="line" smooth="yes"/>
      <point x="754" y="1403" name="sv03"/>
      <point x="713" y="1388" name="dh02"/>
      <point x="689" y="1363" type="curve" smooth="yes" name="ab01"/>
      <point x="663" y="1336"/>
      <point x="650" y="1288"/>
      <point x="650" y="1219" type="curve" smooth="yes"/>
      <point x="650" y="1120" type="line"/>
      <point x="1035" y="1120" type="line"/>
      <point x="1035" y="977" type="line"/>
      <point x="650" y="977" type="line"/>
      <point x="650" y="0" type="line"/>
      <point x="466" y="0" type="line"/>
    </contour>
  </outline>
</glyph>
<glyph name="h" format="1">
  <advance width="1233"/>
  <unicode hex="0068"/>
  <outline>
    <contour>
      <point x="195" y="1556" type="line" name="sh01"/>
      <point x="379" y="1556" type="line" name="sh02"/>
      <point x="379" y="952" type="line" name="iv01"/>
      <point x="412" y="1017"/>
      <point x="457" y="1065" name="dv02"/>
      <point x="512" y="1098" type="curve" smooth="yes"/>
      <point x="567" y="1131"/>
      <point x="633" y="1147" name="sh03"/>
      <point x="710" y="1147" type="curve" smooth="yes" name="ah02"/>
      <point x="830" y="1147"/>
      <point x="912" y="1107"/>
      <point x="967" y="1035" type="curve" smooth="yes" name="dv01"/>
      <point x="1023" y="960"/>
      <point x="1051" y="846" name="sh04"/>
      <point x="1051" y="694" type="curve" smooth="yes" name="ab01"/>
      <point x="1051" y="0" type="line"/>
      <point x="866" y="0" type="line" name="ah01"/>
      <point x="866" y="694" type="line" smooth="yes" name="sh05"/>
      <point x="866" y="795"/>
      <point x="848" y="869"/>
      <point x="813" y="916" type="curve" smooth="yes"/>
      <point x="778" y="963"/>
      <point x="722" y="987"/>
      <point x="646" y="987" type="curve" smooth="yes"/>
      <point x="558" y="987"/>
      <point x="494" y="956"/>
      <point x="449" y="896" type="curve" smooth="yes"/>
      <point x="402" y="835"/>
      <point x="379" y="748"/>
      <point x="379" y="633" type="curve" smooth="yes"/>
      <point x="379" y="0" type="line"/>
      <point x="195" y="0" type="line"/>
    </contour>
  </outline>
</glyph>
<glyph name="j" format="1">
  <advance width="1233"/>
  <unicode hex="006A"/>
  <outline>
    <contour>
      <point x="652" y="1323" type="line" smooth="yes" name="sv01"/>
      <point x="632" y="1323"/>
      <point x="622" y="1333"/>
      <point x="622" y="1353" type="curve" smooth="yes" name="at01"/>
      <point x="622" y="1526" type="line" smooth="yes"/>
      <point x="622" y="1546" name="sh01"/>
      <point x="632" y="1556"/>
      <point x="652" y="1556" type="curve" smooth="yes"/>
      <point x="796" y="1556" type="line" smooth="yes" name="sv02"/>
      <point x="816" y="1556"/>
      <point x="826" y="1546"/>
      <point x="826" y="1526" type="curve" smooth="yes"/>
      <point x="826" y="1353" type="line" smooth="yes" name="dh01"/>
      <point x="826" y="1333"/>
      <point x="816" y="1323" name="at02"/>
      <point x="796" y="1323" type="curve" smooth="yes" name="dh02"/>
    </contour>
    <contour>
      <point x="238" y="-270" type="line"/>
      <point x="472" y="-270" type="line" smooth="yes"/>
      <point x="532" y="-270" name="ab01"/>
      <point x="577" y="-249"/>
      <point x="607" y="-208" type="curve" smooth="yes"/>
      <point x="637" y="-166"/>
      <point x="652" y="-103"/>
      <point x="652" y="-20" type="curve" smooth="yes"/>
      <point x="652" y="977" type="line"/>
      <point x="335" y="977" type="line"/>
      <point x="335" y="1120" type="line"/>
      <point x="836" y="1120" type="line"/>
      <point x="836" y="-20" type="line" smooth="yes"/>
      <point x="836" y="-147"/>
      <point x="807" y="-249"/>
      <point x="747" y="-321" type="curve" smooth="yes"/>
      <point x="687" y="-393"/>
      <point x="600" y="-426"/>
      <point x="492" y="-426" type="curve" smooth="yes"/>
      <point x="238" y="-426" type="line"/>
    </contour>
  </outline>
</glyph>
<glyph name="m" format="1">
  <advance width="1233"/>
  <unicode hex="006D"/>
  <outline>
    <contour>
      <point x="109" y="1120" type="line" name="dh01"/>
      <point x="260" y="1120" type="line"/>
      <point x="276" y="1024" type="line" name="dh02"/>
      <point x="298" y="1064" name="at01"/>
      <point x="326" y="1095" name="sv01"/>
      <point x="359" y="1116" type="curve" smooth="yes" name="at02"/>
      <point x="392" y="1137" name="ih01"/>
      <point x="429" y="1147" name="at03"/>
      <point x="472" y="1147" type="curve" smooth="yes" name="dv02"/>
      <point x="521" y="1147"/>
      <point x="563" y="1135"/>
      <point x="598" y="1112" type="curve" smooth="yes" name="dh06"/>
      <point x="631" y="1089" name="dh05"/>
      <point x="657" y="1054"/>
      <point x="676" y="1006" type="curve"/>
      <point x="699" y="1055" name="dv01"/>
      <point x="728" y="1090"/>
      <point x="763" y="1113" type="curve" smooth="yes"/>
      <point x="798" y="1136" name="dh04"/>
      <point x="840" y="1147" name="dh03"/>
      <point x="889" y="1147" type="curve" smooth="yes"/>
      <point x="981" y="1147"/>
      <point x="1045" y="1111" name="sv02"/>
      <point x="1080" y="1043" type="curve" smooth="yes"/>
      <point x="1117" y="974" name="sh01"/>
      <point x="1135" y="842" name="ab01"/>
      <point x="1135" y="649" type="curve" smooth="yes"/>
      <point x="1135" y="0" type="line"/>
      <point x="967" y="0" type="line" name="sh02"/>
      <point x="967" y="641" type="line" smooth="yes"/>
      <point x="967" y="810"/>
      <point x="959" y="895"/>
      <point x="940" y="936" type="curve" smooth="yes"/>
      <point x="925" y="971"/>
      <point x="897" y="993"/>
      <point x="841" y="993" type="curve" smooth="yes"/>
      <point x="790" y="993"/>
      <point x="756" y="975"/>
      <point x="736" y="932" type="curve" smooth="yes"/>
      <point x="713" y="885"/>
      <point x="705" y="800"/>
      <point x="705" y="641" type="curve" smooth="yes"/>
      <point x="705" y="0" type="line"/>
      <point x="537" y="0" type="line"/>
      <point x="537" y="641" type="line" smooth="yes"/>
      <point x="537" y="836"/>
      <point x="524" y="902"/>
      <point x="508" y="937" type="curve" smooth="yes"/>
      <point x="491" y="972"/>
      <point x="459" y="993"/>
      <point x="407" y="993" type="curve" smooth="yes"/>
      <point x="351" y="993"/>
      <point x="322" y="969"/>
      <point x="306" y="933" type="curve" smooth="yes"/>
      <point x="287" y="893"/>
      <point x="276" y="816"/>
      <point x="276" y="641" type="curve" smooth="yes"/>
      <point x="276" y="0" type="line" name="hr01"/>
      <point x="109" y="0" type="line"/>
    </contour>
  </outline>
</glyph>
<glyph name="o" format="1">
  <advance width="1233"/>
  <unicode hex="006F"/>
  <outline>
    <contour>
      <point x="616" y="-29" type="curve" smooth="yes" name="dv01"/>
      <point x="463" y="-29"/>
      <point x="343" y="21" name="sh01"/>
      <point x="260" y="121" type="curve"/>
      <point x="176" y="225" name="dv04"/>
      <point x="137" y="373"/>
      <point x="137" y="560" type="curve" smooth="yes" name="sh02"/>
      <point x="137" y="749"/>
      <point x="178" y="895"/>
      <point x="260" y="996" type="curve" smooth="yes" name="dv02"/>
      <point x="342" y="1097"/>
      <point x="461" y="1147" name="ah02"/>
      <point x="616" y="1147" type="curve" smooth="yes"/>
      <point x="776" y="1147" name="dv03"/>
      <point x="893" y="1095"/>
      <point x="973" y="996" type="curve" smooth="yes" name="sh03"/>
      <point x="1055" y="895"/>
      <point x="1096" y="750"/>
      <point x="1096" y="561" type="curve" smooth="yes" name="ah01"/>
      <point x="1096" y="370" name="sh04"/>
      <point x="1056" y="221"/>
      <point x="973" y="121" type="curve"/>
      <point x="893" y="22"/>
      <point x="773" y="-29"/>
    </contour>
    <contour>
      <point x="616" y="127" type="curve" smooth="yes"/>
      <point x="710" y="127"/>
      <point x="781" y="164"/>
      <point x="829" y="237" type="curve" smooth="yes"/>
      <point x="877" y="310"/>
      <point x="901" y="417"/>
      <point x="901" y="559" type="curve" smooth="yes"/>
      <point x="901" y="701"/>
      <point x="877" y="809"/>
      <point x="829" y="882" type="curve" smooth="yes"/>
      <point x="781" y="955"/>
      <point x="710" y="991"/>
      <point x="616" y="991" type="curve" smooth="yes"/>
      <point x="523" y="991"/>
      <point x="452" y="955"/>
      <point x="404" y="882" type="curve" smooth="yes"/>
      <point x="356" y="809"/>
      <point x="332" y="701"/>
      <point x="332" y="559" type="curve" smooth="yes"/>
      <point x="332" y="417"/>
      <point x="356" y="310"/>
      <point x="404" y="237" type="curve" smooth="yes"/>
      <point x="452" y="164"/>
      <point x="523" y="127"/>
    </contour>
  </outline>
</glyph>
<glyph name="p" format="1">
  <advance width="1233"/>
  <unicode hex="0070"/>
  <outline>
    <contour>
      <point x="190" y="1120" type="line" name="sh01"/>
      <point x="357" y="1120" type="line"/>
      <point x="375" y="977" type="line" name="sh02"/>
      <point x="406" y="1033"/>
      <point x="447" y="1075" name="dv02"/>
      <point x="498" y="1104" type="curve" smooth="yes"/>
      <point x="549" y="1133" name="sh03"/>
      <point x="608" y="1147"/>
      <point x="675" y="1147" type="curve" smooth="yes" name="dv03"/>
      <point x="808" y="1147"/>
      <point x="916" y="1095" name="sh04"/>
      <point x="993" y="990" type="curve" smooth="yes" name="ab01"/>
      <point x="1070" y="885"/>
      <point x="1108" y="740" name="dv04"/>
      <point x="1108" y="557" type="curve" smooth="yes"/>
      <point x="1108" y="374" name="ah02"/>
      <point x="1069" y="230"/>
      <point x="992" y="127" type="curve" smooth="yes" name="dv01"/>
      <point x="915" y="23"/>
      <point x="809" y="-29" name="sh05"/>
      <point x="674" y="-29" type="curve" smooth="yes"/>
      <point x="598" y="-29"/>
      <point x="545" y="-13" name="ah01"/>
      <point x="496" y="15" type="curve" smooth="yes" name="sh06"/>
      <point x="444" y="45"/>
      <point x="404" y="87"/>
      <point x="375" y="141" type="curve"/>
      <point x="375" y="-426" type="line"/>
      <point x="190" y="-426" type="line"/>
    </contour>
    <contour>
      <point x="647" y="127" type="curve" smooth="yes"/>
      <point x="736" y="127"/>
      <point x="803" y="163"/>
      <point x="848" y="236" type="curve" smooth="yes"/>
      <point x="893" y="309"/>
      <point x="915" y="416"/>
      <point x="915" y="559" type="curve" smooth="yes"/>
      <point x="915" y="702"/>
      <point x="893" y="809"/>
      <point x="848" y="882" type="curve" smooth="yes"/>
      <point x="803" y="955"/>
      <point x="736" y="991"/>
      <point x="647" y="991" type="curve" smooth="yes"/>
      <point x="558" y="991"/>
      <point x="490" y="955"/>
      <point x="444" y="882" type="curve" smooth="yes"/>
      <point x="398" y="809"/>
      <point x="375" y="701"/>
      <point x="375" y="559" type="curve" smooth="yes"/>
      <point x="375" y="417"/>
      <point x="398" y="310"/>
      <point x="444" y="237" type="curve" smooth="yes" name="hr01"/>
      <point x="490" y="164"/>
      <point x="558" y="127"/>
    </contour>
  </outline>
</glyph>
<glyph name="q" format="1">
  <advance width="1233"/>
  <unicode hex="0071"/>
  <outline>
    <contour>
      <point x="870" y="139" type="line" name="iv01"/>
      <point x="841" y="86"/>
      <point x="804" y="43" name="dv01"/>
      <point x="749" y="12" type="curve" smooth="yes"/>
      <point x="698" y="-18" name="sh01"/>
      <point x="638" y="-33"/>
      <point x="569" y="-33" type="curve" smooth="yes" name="at01"/>
      <point x="442" y="-33"/>
      <point x="333" y="16" name="sh02"/>
      <point x="253" y="123" type="curve" smooth="yes"/>
      <point x="182" y="218"/>
      <point x="137" y="355" name="sh03"/>
      <point x="137" y="551" type="curve" smooth="yes" name="ah02"/>
      <point x="137" y="730" name="dv02"/>
      <point x="174" y="880"/>
      <point x="253" y="987" type="curve" smooth="yes" name="sh04"/>
      <point x="330" y="1091"/>
      <point x="438" y="1143" name="sv01"/>
      <point x="570" y="1143" type="curve" smooth="yes"/>
      <point x="638" y="1143" name="sh05"/>
      <point x="697" y="1129"/>
      <point x="748" y="1100" type="curve" smooth="yes"/>
      <point x="799" y="1071" name="ah01"/>
      <point x="839" y="1029" name="sh06"/>
      <point x="870" y="973" type="curve"/>
      <point x="888" y="1116" type="line"/>
      <point x="1055" y="1116" type="line"/>
      <point x="1055" y="-430" type="line"/>
      <point x="870" y="-430" type="line"/>
    </contour>
    <contour>
      <point x="599" y="123" type="curve" smooth="yes"/>
      <point x="687" y="123"/>
      <point x="755" y="158"/>
      <point x="802" y="233" type="curve" smooth="yes"/>
      <point x="847" y="306"/>
      <point x="870" y="414"/>
      <point x="870" y="555" type="curve" smooth="yes"/>
      <point x="870" y="697"/>
      <point x="847" y="805"/>
      <point x="802" y="878" type="curve" smooth="yes"/>
      <point x="755" y="953"/>
      <point x="688" y="987"/>
      <point x="600" y="987" type="curve" smooth="yes"/>
      <point x="511" y="987"/>
      <point x="445" y="951"/>
      <point x="400" y="878" type="curve" smooth="yes"/>
      <point x="355" y="805"/>
      <point x="332" y="697"/>
      <point x="332" y="555" type="curve" smooth="yes"/>
      <point x="332" y="413"/>
      <point x="355" y="305"/>
      <point x="400" y="232" type="curve" smooth="yes"/>
      <point x="445" y="159"/>
      <point x="511" y="123"/>
    </contour>
  </outline>
</glyph>
<glyph name="r" format="1">
  <advance width="1233"/>
  <unicode hex="0072"/>
  <outline>
    <contour>
      <point x="302" y="1120" type="line" name="dh01"/>
      <point x="469" y="1120" type="line"/>
      <point x="487" y="901" type="line" name="dh02"/>
      <point x="518" y="980"/>
      <point x="566" y="1041" name="dv02"/>
      <point x="629" y="1084" type="curve" smooth="yes" name="at01"/>
      <point x="692" y="1126"/>
      <point x="767" y="1147" name="iv01"/>
      <point x="854" y="1147" type="curve" smooth="yes"/>
      <point x="899" y="1147" name="dv01"/>
      <point x="942" y="1141"/>
      <point x="982" y="1130" type="curve" smooth="yes" name="sh01"/>
      <point x="1021" y="1119" name="ab01"/>
      <point x="1060" y="1101"/>
      <point x="1095" y="1077" type="curve"/>
      <point x="1095" y="889" type="line"/>
      <point x="1057" y="920"/>
      <point x="1017" y="942"/>
      <point x="975" y="956" type="curve" smooth="yes"/>
      <point x="934" y="970"/>
      <point x="889" y="977"/>
      <point x="840" y="977" type="curve" smooth="yes"/>
      <point x="726" y="977"/>
      <point x="639" y="941"/>
      <point x="578" y="869" type="curve" smooth="yes"/>
      <point x="517" y="798"/>
      <point x="487" y="694"/>
      <point x="487" y="557" type="curve" smooth="yes"/>
      <point x="487" y="0" type="line" name="hr01"/>
      <point x="302" y="0" type="line"/>
    </contour>
  </outline>
</glyph>
<glyph name="t" format="1">
  <advance width="1233"/>
  <unicode hex="0074"/>
  <outline>
    <contour>
      <point x="807" y="-4" type="line" smooth="yes" name="ab01"/>
      <point x="670" y="-4"/>
      <point x="572" y="24" name="dh01"/>
      <point x="515" y="79" type="curve" smooth="yes" name="sv01"/>
      <point x="458" y="134" name="sv02"/>
      <point x="430" y="229" name="at01"/>
      <point x="430" y="365" type="curve" smooth="yes" name="sh01"/>
      <point x="430" y="977" type="line"/>
      <point x="131" y="977" type="line" name="sh02"/>
      <point x="131" y="1120" type="line" name="at02"/>
      <point x="430" y="1120" type="line"/>
      <point x="430" y="1413" type="line" name="sv03"/>
      <point x="614" y="1493" type="line" name="sv04"/>
      <point x="614" y="1120" type="line" name="dh02"/>
      <point x="1032" y="1120" type="line"/>
      <point x="1032" y="977" type="line" name="sv05"/>
      <point x="614" y="977" type="line" name="sv06"/>
      <point x="614" y="365" type="line" smooth="yes" name="ab02"/>
      <point x="614" y="283"/>
      <point x="630" y="225"/>
      <point x="661" y="192" type="curve" smooth="yes"/>
      <point x="692" y="159"/>
      <point x="746" y="143"/>
      <point x="825" y="143" type="curve" smooth="yes"/>
      <point x="1032" y="143" type="line"/>
      <point x="1032" y="-4" type="line"/>
    </contour>
  </outline>
</glyph>
<glyph name="u" format="1">
  <advance width="1233"/>
  <unicode hex="0075"/>
  <outline>
    <contour>
      <point x="534" y="-29" type="curve" smooth="yes" name="dv01"/>
      <point x="420" y="-29"/>
      <point x="335" y="9" name="sh01"/>
      <point x="279" y="84" type="curve" smooth="yes" name="at01"/>
      <point x="223" y="159"/>
      <point x="195" y="272" name="sh02"/>
      <point x="195" y="424" type="curve" smooth="yes"/>
      <point x="195" y="1118" type="line" name="dv02"/>
      <point x="379" y="1118" type="line"/>
      <point x="379" y="424" type="line" smooth="yes" name="sh03"/>
      <point x="379" y="323" name="at02"/>
      <point x="397" y="249"/>
      <point x="433" y="202" type="curve" smooth="yes" name="sh04"/>
      <point x="468" y="157"/>
      <point x="518" y="131" name="ah02"/>
      <point x="598" y="131" type="curve" smooth="yes"/>
      <point x="685" y="131"/>
      <point x="751" y="162" name="ah01"/>
      <point x="797" y="223" type="curve" smooth="yes" name="sh05"/>
      <point x="843" y="284"/>
      <point x="866" y="371"/>
      <point x="866" y="485" type="curve" smooth="yes" name="hr02"/>
      <point x="866" y="1118" type="line"/>
      <point x="1051" y="1118" type="line"/>
      <point x="1051" y="0" type="line"/>
      <point x="884" y="0" type="line"/>
      <point x="866" y="168" type="line"/>
      <point x="833" y="103"/>
      <point x="788" y="54"/>
      <point x="733" y="21" type="curve" smooth="yes"/>
      <point x="676" y="-12"/>
      <point x="610" y="-29"/>
    </contour>
  </outline>
</glyph>
<glyph name="v" format="1">
  <advance width="1233"/>
  <unicode hex="0076"/>
  <outline>
    <contour>
      <point x="100" y="1120" type="line" name="at01"/>
      <point x="291" y="1120" type="line"/>
      <point x="616" y="180" type="line" name="iv01"/>
      <point x="942" y="1120" type="line" name="at02"/>
      <point x="1133" y="1120" type="line"/>
      <point x="735" y="0" type="line" name="ab01"/>
      <point x="498" y="0" type="line"/>
    </contour>
  </outline>
</glyph>
<glyph name="asciitilde" format="1">
  <advance width="1233"/>
  <unicode hex="007E"/>
  <outline>
    <contour>
      <point x="995" y="782" type="line"/>
      <point x="992" y="559"/>
      <point x="949" y="452"/>
      <point x="842" y="452" type="curve" smooth="yes"/>
      <point x="809" y="452"/>
      <point x="782" y="467"/>
      <point x="754" y="496" type="curve" smooth="yes"/>
      <point x="720" y="530"/>
      <point x="685" y="572"/>
      <point x="649" y="621" type="curve" smooth="yes"/>
      <point x="606" y="681"/>
      <point x="558" y="727"/>
      <point x="518" y="751" type="curve" smooth="yes"/>
      <point x="479" y="774"/>
      <point x="435" y="786"/>
      <point x="386" y="786" type="curve" smooth="yes"/>
      <point x="285" y="786"/>
      <point x="207" y="738"/>
      <point x="152" y="643" type="curve"/>
      <point x="110" y="555"/>
      <point x="87" y="442"/>
      <point x="84" y="303" type="curve"/>
      <point x="240" y="303" type="line"/>
      <point x="245" y="417"/>
      <point x="259" y="502"/>
      <point x="282" y="558" type="curve" smooth="yes"/>
      <point x="303" y="606"/>
      <point x="340" y="630"/>
      <point x="391" y="630" type="curve" smooth="yes"/>
      <point x="416" y="630"/>
      <point x="441" y="620"/>
      <point x="468" y="601" type="curve" smooth="yes"/>
      <point x="493" y="582"/>
      <point x="531" y="536"/>
      <point x="583" y="464" type="curve" smooth="yes"/>
      <point x="632" y="397"/>
      <point x="674" y="352"/>
      <point x="709" y="330" type="curve" smooth="yes"/>
      <point x="748" y="307"/>
      <point x="793" y="296"/>
      <point x="846" y="296" type="curve" smooth="yes" name="hr01"/>
      <point x="956" y="296"/>
      <point x="1035" y="344"/>
      <point x="1083" y="441" type="curve"/>
      <point x="1132" y="528"/>
      <point x="1146" y="633"/>
      <point x="1151" y="782" type="curve"/>
    </contour>
  </outline>
</glyph>
<glyph name="exclamdown" format="1">
  <advance width="1233"/>
  <unicode hex="00A1"/>
  <outline>
    <contour>
      <point x="626" y="1498" type="curve" smooth="yes" name="at01"/>
      <point x="672" y="1498"/>
      <point x="711" y="1482" name="dh02"/>
      <point x="742" y="1450" type="curve" smooth="yes"/>
      <point x="773" y="1419" name="sv01"/>
      <point x="788" y="1381"/>
      <point x="788" y="1325" type="curve" smooth="yes" name="dh01"/>
      <point x="788" y="1273"/>
      <point x="773" y="1232"/>
      <point x="742" y="1201" type="curve" smooth="yes"/>
      <point x="711" y="1170"/>
      <point x="672" y="1154" name="sh01"/>
      <point x="626" y="1154" type="curve" smooth="yes" name="ih01"/>
      <point x="580" y="1154"/>
      <point x="541" y="1170"/>
      <point x="510" y="1201" type="curve" smooth="yes"/>
      <point x="479" y="1232"/>
      <point x="464" y="1274"/>
      <point x="464" y="1325" type="curve" smooth="yes"/>
      <point x="464" y="1377"/>
      <point x="479" y="1419"/>
      <point x="510" y="1450" type="curve" smooth="yes"/>
      <point x="541" y="1482"/>
      <point x="579" y="1498"/>
    </contour>
    <contour>
      <point x="689" y="952" type="line"/>
      <point x="756" y="385" type="line"/>
      <point x="756" y="-60" type="line"/>
      <point x="491" y="-60" type="line"/>
      <point x="491" y="385" type="line"/>
      <point x="568" y="952" type="line"/>
    </contour>
  </outline>
</glyph>
<glyph name="sterling" format="1">
  <advance width="1233"/>
  <unicode hex="00A3"/>
  <outline>
    <contour>
      <point x="139" y="170" type="line" name="sv01"/>
      <point x="375" y="170" type="line" name="dh01"/>
      <point x="375" y="635" type="line" name="dv01"/>
      <point x="176" y="635" type="line"/>
      <point x="176" y="778" type="line"/>
      <point x="375" y="778" type="line" name="sh01"/>
      <point x="375" y="1016" type="line" smooth="yes"/>
      <point x="375" y="1185"/>
      <point x="412" y="1312" name="at01"/>
      <point x="485" y="1395" type="curve" smooth="yes" name="at02"/>
      <point x="558" y="1479"/>
      <point x="670" y="1520" name="iv01"/>
      <point x="810" y="1520" type="curve" smooth="yes"/>
      <point x="858" y="1520" name="sv02"/>
      <point x="908" y="1515"/>
      <point x="951" y="1506" type="curve" smooth="yes" name="sh02"/>
      <point x="983" y="1499" name="sv03"/>
      <point x="1039" y="1483"/>
      <point x="1092" y="1462" type="curve" name="sv04"/>
      <point x="1092" y="1278" type="line"/>
      <point x="1047" y="1310" name="dh02"/>
      <point x="1002" y="1332" name="sv05"/>
      <point x="967" y="1344" type="curve" smooth="yes" name="ab01"/>
      <point x="925" y="1359"/>
      <point x="882" y="1366"/>
      <point x="837" y="1366" type="curve" smooth="yes"/>
      <point x="747" y="1366"/>
      <point x="681" y="1336"/>
      <point x="639" y="1277" type="curve" smooth="yes"/>
      <point x="596" y="1218"/>
      <point x="575" y="1124"/>
      <point x="575" y="995" type="curve" smooth="yes"/>
      <point x="575" y="778" type="line"/>
      <point x="946" y="778" type="line"/>
      <point x="946" y="635" type="line"/>
      <point x="575" y="635" type="line"/>
      <point x="575" y="170" type="line"/>
      <point x="1112" y="170" type="line"/>
      <point x="1112" y="0" type="line"/>
      <point x="139" y="0" type="line"/>
    </contour>
  </outline>
</glyph>
<glyph name="currency" format="1">
  <advance width="1233"/>
  <unicode hex="00A4"/>
  <outline>
    <contour>
      <point x="205" y="285" type="line" name="hr00"/>
      <point x="371" y="451" type="line"/>
      <point x="346" y="492"/>
      <point x="337" y="517" name="sh01"/>
      <point x="326" y="549" type="curve" smooth="yes"/>
      <point x="315" y="581"/>
      <point x="311" y="607"/>
      <point x="311" y="642" type="curve" smooth="yes" name="sh02"/>
      <point x="311" y="679"/>
      <point x="316" y="707"/>
      <point x="327" y="738" type="curve" smooth="yes" name="dv04"/>
      <point x="338" y="770"/>
      <point x="353" y="800"/>
      <point x="373" y="829" type="curve" name="av01"/>
      <point x="205" y="995" type="line"/>
      <point x="299" y="1090" type="line"/>
      <point x="465" y="922" type="line" name="sh04"/>
      <point x="496" y="943" name="sh03"/>
      <point x="526" y="958"/>
      <point x="557" y="968" type="curve" smooth="yes"/>
      <point x="587" y="978"/>
      <point x="618" y="983" name="sh05"/>
      <point x="651" y="983" type="curve" smooth="yes"/>
      <point x="682" y="983"/>
      <point x="717" y="978" name="dv01"/>
      <point x="746" y="969" type="curve" smooth="yes"/>
      <point x="775" y="960"/>
      <point x="812" y="943" name="sh06"/>
      <point x="844" y="924" type="curve" name="dv02"/>
      <point x="1010" y="1090" type="line"/>
      <point x="1100" y="997" type="line" name="ah02"/>
      <point x="934" y="831" type="line"/>
      <point x="954" y="798" name="dv03"/>
      <point x="972" y="760"/>
      <point x="979" y="736" type="curve" smooth="yes" name="sh07"/>
      <point x="988" y="707"/>
      <point x="993" y="671"/>
      <point x="993" y="640" type="curve" smooth="yes" name="ah01"/>
      <point x="993" y="607" name="sh08"/>
      <point x="988" y="576"/>
      <point x="978" y="546" type="curve" smooth="yes"/>
      <point x="968" y="515"/>
      <point x="953" y="484"/>
      <point x="932" y="455" type="curve"/>
      <point x="1100" y="289" type="line"/>
      <point x="1006" y="195" type="line"/>
      <point x="840" y="362" type="line"/>
      <point x="809" y="341"/>
      <point x="779" y="326"/>
      <point x="749" y="316" type="curve" smooth="yes"/>
      <point x="718" y="306"/>
      <point x="685" y="301"/>
      <point x="652" y="301" type="curve" smooth="yes"/>
      <point x="617" y="301"/>
      <point x="592" y="305"/>
      <point x="557" y="316" type="curve" smooth="yes"/>
      <point x="522" y="327"/>
      <point x="500" y="335"/>
      <point x="461" y="358" type="curve"/>
      <point x="297" y="195" type="line"/>
    </contour>
    <contour>
      <point x="653" y="426" type="curve" smooth="yes"/>
      <point x="712" y="426"/>
      <point x="765" y="447"/>
      <point x="806" y="488" type="curve" smooth="yes"/>
      <point x="846" y="529"/>
      <point x="868" y="583"/>
      <point x="868" y="643" type="curve" smooth="yes"/>
      <point x="868" y="703"/>
      <point x="846" y="756"/>
      <point x="807" y="795" type="curve" smooth="yes"/>
      <point x="767" y="835"/>
      <point x="713" y="856"/>
      <point x="653" y="856" type="curve" smooth="yes"/>
      <point x="596" y="856"/>
      <point x="542" y="836"/>
      <point x="501" y="796" type="curve" smooth="yes"/>
      <point x="462" y="759"/>
      <point x="438" y="706"/>
      <point x="438" y="642" type="curve" smooth="yes"/>
      <point x="438" y="583"/>
      <point x="459" y="532"/>
      <point x="500" y="489" type="curve" smooth="yes"/>
      <point x="540" y="449"/>
      <point x="592" y="426"/>
    </contour>
  </outline>
</glyph>
<glyph name="dieresis" format="1">
  <advance width="1233"/>
  <unicode hex="00A8"/>
  <outline>
    <contour>
      <point x="492" y="1552" type="line" smooth="yes" name="dv02"/>
      <point x="512" y="1552"/>
      <point x="522" y="1542" name="sh02"/>
      <point x="522" y="1522" type="curve" smooth="yes" name="dv01"/>
      <point x="522" y="1380" type="line" smooth="yes"/>
      <point x="522" y="1360" name="sh01"/>
      <point x="512" y="1350"/>
      <point x="492" y="1350" type="curve" smooth="yes"/>
      <point x="349" y="1350" type="line" smooth="yes" name="sv01"/>
      <point x="329" y="1350"/>
      <point x="319" y="1360" name="sh03"/>
      <point x="319" y="1380" type="curve" smooth="yes" name="sv02"/>
      <point x="319" y="1522" type="line" smooth="yes"/>
      <point x="319" y="1542" name="ah02"/>
      <point x="329" y="1552"/>
      <point x="349" y="1552" type="curve" smooth="yes"/>
    </contour>
    <contour>
      <point x="883" y="1552" type="line" smooth="yes" name="ah01"/>
      <point x="903" y="1552"/>
      <point x="913" y="1542"/>
      <point x="913" y="1522" type="curve" smooth="yes"/>
      <point x="913" y="1380" type="line" smooth="yes"/>
      <point x="913" y="1360"/>
      <point x="903" y="1350"/>
      <point x="883" y="1350" type="curve" smooth="yes"/>
      <point x="741" y="1350" type="line" smooth="yes"/>
      <point x="721" y="1350"/>
      <point x="711" y="1360"/>
      <point x="711" y="1380" type="curve" smooth="yes"/>
      <point x="711" y="1522" type="line" smooth="yes"/>
      <point x="711" y="1542"/>
      <point x="721" y="1552"/>
      <point x="741" y="1552" type="curve" smooth="yes"/>
    </contour>
  </outline>
</glyph>
<glyph name="ordfeminine" format="1">
  <advance width="1233"/>
  <unicode hex="00AA"/>
  <outline>
    <contour>
      <point x="547" y="698" type="curve" smooth="yes" name="hr00"/>
      <point x="463" y="698"/>
      <point x="396" y="721" name="sh01"/>
      <point x="345" y="766" type="curve" smooth="yes"/>
      <point x="295" y="811"/>
      <point x="270" y="872" name="ah02"/>
      <point x="270" y="949" type="curve" smooth="yes"/>
      <point x="270" y="1035"/>
      <point x="301" y="1102" name="sv01"/>
      <point x="363" y="1149" type="curve" smooth="yes"/>
      <point x="426" y="1196" name="ih01"/>
      <point x="514" y="1219"/>
      <point x="629" y="1219" type="curve" smooth="yes" name="at01"/>
      <point x="811" y="1219" type="line" name="at02"/>
      <point x="811" y="1223" type="line" smooth="yes"/>
      <point x="811" y="1282" name="sh03"/>
      <point x="794" y="1327"/>
      <point x="751" y="1359" type="curve" smooth="yes" name="sh04"/>
      <point x="704" y="1394"/>
      <point x="643" y="1405"/>
      <point x="583" y="1405" type="curve" smooth="yes"/>
      <point x="539" y="1405" name="dv02"/>
      <point x="501" y="1399"/>
      <point x="462" y="1388" type="curve" smooth="yes" name="sh05"/>
      <point x="421" y="1376" name="dv03"/>
      <point x="377" y="1359"/>
      <point x="332" y="1337" type="curve"/>
      <point x="332" y="1464" type="line" name="sh02"/>
      <point x="377" y="1483"/>
      <point x="427" y="1498"/>
      <point x="468" y="1506" type="curve" smooth="yes"/>
      <point x="513" y="1515" name="sh06"/>
      <point x="552" y="1520" name="dv01"/>
      <point x="603" y="1520" type="curve" smooth="yes"/>
      <point x="721" y="1520" name="ah01"/>
      <point x="809" y="1491" name="sh07"/>
      <point x="867" y="1434" type="curve" smooth="yes"/>
      <point x="926" y="1377"/>
      <point x="954" y="1290"/>
      <point x="954" y="1165" type="curve" smooth="yes"/>
      <point x="954" y="717" type="line"/>
      <point x="825" y="717" type="line"/>
      <point x="811" y="829" type="line"/>
      <point x="778" y="786"/>
      <point x="740" y="753"/>
      <point x="697" y="731" type="curve" smooth="yes"/>
      <point x="653" y="708"/>
      <point x="606" y="698"/>
    </contour>
    <contour>
      <point x="576" y="817" type="curve" smooth="yes"/>
      <point x="648" y="817"/>
      <point x="703" y="842"/>
      <point x="746" y="889" type="curve" smooth="yes"/>
      <point x="789" y="936"/>
      <point x="811" y="998"/>
      <point x="811" y="1075" type="curve" smooth="yes"/>
      <point x="811" y="1104" type="line"/>
      <point x="684" y="1104" type="line" smooth="yes"/>
      <point x="587" y="1104"/>
      <point x="519" y="1093"/>
      <point x="478" y="1070" type="curve" smooth="yes"/>
      <point x="437" y="1047"/>
      <point x="416" y="1009"/>
      <point x="416" y="958" type="curve" smooth="yes"/>
      <point x="416" y="910"/>
      <point x="433" y="879"/>
      <point x="460" y="856" type="curve" smooth="yes"/>
      <point x="489" y="830"/>
      <point x="527" y="817"/>
    </contour>
    <contour>
      <point x="293" y="592" type="line"/>
      <point x="961" y="592" type="line"/>
      <point x="961" y="469" type="line"/>
      <point x="293" y="469" type="line"/>
    </contour>
  </outline>
</glyph>
<glyph name="registered" format="1">
  <advance width="1233"/>
  <unicode hex="00AE"/>
  <outline>
    <contour>
      <point x="616" y="125" type="curve" smooth="yes" name="dv01"/>
      <point x="528" y="125"/>
      <point x="454" y="140"/>
      <point x="382" y="171" type="curve" smooth="yes"/>
      <point x="310" y="202" name="dh01"/>
      <point x="241" y="247"/>
      <point x="181" y="307" type="curve" smooth="yes"/>
      <point x="122" y="366"/>
      <point x="77" y="434" name="dv04"/>
      <point x="46" y="507" type="curve" smooth="yes"/>
      <point x="15" y="579"/>
      <point x="0" y="653"/>
      <point x="0" y="741" type="curve" smooth="yes" name="dh08"/>
      <point x="0" y="826"/>
      <point x="15" y="905"/>
      <point x="46" y="977" type="curve" smooth="yes"/>
      <point x="77" y="1049"/>
      <point x="122" y="1117" name="dv02"/>
      <point x="182" y="1178" type="curve" smooth="yes"/>
      <point x="239" y="1237"/>
      <point x="305" y="1282"/>
      <point x="381" y="1313" type="curve" smooth="yes" name="dh07"/>
      <point x="454" y="1343"/>
      <point x="532" y="1358"/>
      <point x="616" y="1358" type="curve" smooth="yes"/>
      <point x="700" y="1358" name="dv03"/>
      <point x="779" y="1343"/>
      <point x="852" y="1313" type="curve" smooth="yes"/>
      <point x="928" y="1282"/>
      <point x="995" y="1235" name="dh02"/>
      <point x="1051" y="1178" type="curve" smooth="yes"/>
      <point x="1116" y="1111"/>
      <point x="1160" y="1041"/>
      <point x="1187" y="977" type="curve" smooth="yes"/>
      <point x="1218" y="905" name="dh03"/>
      <point x="1233" y="827" name="dv06"/>
      <point x="1233" y="742" type="curve" smooth="yes"/>
      <point x="1233" y="657" name="dh06"/>
      <point x="1218" y="579"/>
      <point x="1188" y="508" type="curve" smooth="yes" name="ih01"/>
      <point x="1159" y="439"/>
      <point x="1112" y="367"/>
      <point x="1052" y="307" type="curve" smooth="yes" name="ih02"/>
      <point x="996" y="251"/>
      <point x="927" y="203"/>
      <point x="851" y="171" type="curve" smooth="yes"/>
      <point x="779" y="140"/>
      <point x="701" y="125" name="sh01"/>
    </contour>
    <contour>
      <point x="617" y="227" type="curve" smooth="yes"/>
      <point x="686" y="227"/>
      <point x="751" y="240"/>
      <point x="812" y="265" type="curve" smooth="yes" name="dh05"/>
      <point x="875" y="292"/>
      <point x="932" y="331" name="dv05"/>
      <point x="979" y="378" type="curve" smooth="yes" name="dh04"/>
      <point x="1024" y="423"/>
      <point x="1068" y="485"/>
      <point x="1093" y="546" type="curve" smooth="yes" name="sh02"/>
      <point x="1118" y="605"/>
      <point x="1130" y="670"/>
      <point x="1130" y="741" type="curve" smooth="yes"/>
      <point x="1130" y="813"/>
      <point x="1117" y="878"/>
      <point x="1092" y="939" type="curve" smooth="yes"/>
      <point x="1067" y="1000"/>
      <point x="1029" y="1056"/>
      <point x="979" y="1106" type="curve" smooth="yes"/>
      <point x="930" y="1155"/>
      <point x="875" y="1193"/>
      <point x="814" y="1218" type="curve" smooth="yes"/>
      <point x="754" y="1243"/>
      <point x="688" y="1255"/>
      <point x="616" y="1255" type="curve" smooth="yes"/>
      <point x="545" y="1255"/>
      <point x="479" y="1243"/>
      <point x="420" y="1218" type="curve" smooth="yes"/>
      <point x="359" y="1193"/>
      <point x="303" y="1155"/>
      <point x="254" y="1106" type="curve" smooth="yes"/>
      <point x="203" y="1055"/>
      <point x="166" y="1000"/>
      <point x="141" y="939" type="curve" smooth="yes"/>
      <point x="115" y="877"/>
      <point x="102" y="811"/>
      <point x="102" y="742" type="curve" smooth="yes"/>
      <point x="102" y="670"/>
      <point x="114" y="609"/>
      <point x="141" y="546" type="curve" smooth="yes"/>
      <point x="173" y="470"/>
      <point x="215" y="418"/>
      <point x="254" y="379" type="curve" smooth="yes"/>
      <point x="305" y="328"/>
      <point x="357" y="292"/>
      <point x="421" y="265" type="curve" smooth="yes"/>
      <point x="481" y="240"/>
      <point x="545" y="227"/>
    </contour>
    <contour>
      <point x="362" y="1100" type="line"/>
      <point x="600" y="1100" type="line" smooth="yes"/>
      <point x="699" y="1100"/>
      <point x="772" y="1084"/>
      <point x="819" y="1051" type="curve" smooth="yes"/>
      <point x="867" y="1018"/>
      <point x="891" y="968"/>
      <point x="891" y="903" type="curve" smooth="yes"/>
      <point x="891" y="852"/>
      <point x="876" y="815"/>
      <point x="847" y="784" type="curve" smooth="yes"/>
      <point x="818" y="753"/>
      <point x="776" y="732"/>
      <point x="723" y="723" type="curve"/>
      <point x="736" y="720"/>
      <point x="752" y="706"/>
      <point x="771" y="685" type="curve"/>
      <point x="787" y="664"/>
      <point x="819" y="622"/>
      <point x="838" y="592" type="curve" smooth="yes"/>
      <point x="952" y="406" type="line"/>
      <point x="809" y="406" type="line"/>
      <point x="702" y="580" type="line" smooth="yes"/>
      <point x="670" y="632"/>
      <point x="642" y="668"/>
      <point x="623" y="681" type="curve" smooth="yes"/>
      <point x="604" y="695"/>
      <point x="578" y="702"/>
      <point x="547" y="702" type="curve" smooth="yes"/>
      <point x="492" y="702" type="line"/>
      <point x="492" y="406" type="line"/>
      <point x="362" y="406" type="line"/>
    </contour>
    <contour>
      <point x="594" y="784" type="line" smooth="yes"/>
      <point x="653" y="784"/>
      <point x="696" y="793"/>
      <point x="721" y="811" type="curve" smooth="yes"/>
      <point x="746" y="829"/>
      <point x="758" y="859"/>
      <point x="758" y="900" type="curve" smooth="yes"/>
      <point x="758" y="939"/>
      <point x="748" y="971"/>
      <point x="721" y="990" type="curve" smooth="yes"/>
      <point x="696" y="1007"/>
      <point x="653" y="1016"/>
      <point x="594" y="1016" type="curve" smooth="yes"/>
      <point x="492" y="1016" type="line"/>
      <point x="492" y="784" type="line"/>
    </contour>
  </outline>
</glyph>
<glyph name="mu" format="1">
  <advance width="1233"/>
  <unicode hex="00B5"/>
  <outline>
    <contour>
      <point x="165" y="1120" type="line" name="sh01"/>
      <point x="349" y="1120" type="line" name="sh02"/>
      <point x="349" y="424" type="line" smooth="yes"/>
      <point x="349" y="320"/>
      <point x="372" y="254" name="dv02"/>
      <point x="409" y="207" type="curve" smooth="yes"/>
      <point x="449" y="156" name="ah02"/>
      <point x="507" y="131" name="at01"/>
      <point x="582" y="131" type="curve" smooth="yes"/>
      <point x="665" y="131" name="sh03"/>
      <point x="729" y="159"/>
      <point x="772" y="216" type="curve" smooth="yes" name="sv01"/>
      <point x="815" y="273"/>
      <point x="836" y="356" name="iv01"/>
      <point x="836" y="467" type="curve" smooth="yes"/>
      <point x="836" y="1120" type="line"/>
      <point x="1021" y="1120" type="line" name="sh04"/>
      <point x="1021" y="256" type="line" smooth="yes"/>
      <point x="1021" y="217" name="ih01"/>
      <point x="1026" y="188"/>
      <point x="1037" y="169" type="curve" smooth="yes" name="dv01"/>
      <point x="1048" y="150"/>
      <point x="1064" y="141" name="ih02"/>
      <point x="1083" y="141" type="curve" smooth="yes" name="ab01"/>
      <point x="1091" y="141"/>
      <point x="1100" y="143" name="ah01"/>
      <point x="1110" y="146" type="curve" smooth="yes" name="sh05"/>
      <point x="1119" y="149"/>
      <point x="1133" y="155"/>
      <point x="1152" y="164" type="curve"/>
      <point x="1152" y="16" type="line"/>
      <point x="1127" y="1"/>
      <point x="1101" y="-11"/>
      <point x="1080" y="-18" type="curve" smooth="yes"/>
      <point x="1056" y="-25"/>
      <point x="1033" y="-29"/>
      <point x="1012" y="-29" type="curve" smooth="yes"/>
      <point x="971" y="-29"/>
      <point x="938" y="-16"/>
      <point x="913" y="11" type="curve" smooth="yes"/>
      <point x="888" y="38"/>
      <point x="871" y="77"/>
      <point x="863" y="129" type="curve"/>
      <point x="832" y="75"/>
      <point x="794" y="35"/>
      <point x="751" y="10" type="curve" smooth="yes"/>
      <point x="707" y="-16"/>
      <point x="655" y="-29"/>
      <point x="594" y="-29" type="curve" smooth="yes"/>
      <point x="534" y="-29"/>
      <point x="483" y="-16"/>
      <point x="440" y="9" type="curve" smooth="yes"/>
      <point x="397" y="34"/>
      <point x="361" y="74"/>
      <point x="332" y="127" type="curve"/>
      <point x="332" y="-428" type="line"/>
      <point x="165" y="-428" type="line"/>
    </contour>
  </outline>
</glyph>
<glyph name="cedilla" format="1">
  <advance width="1233"/>
  <unicode hex="00B8"/>
  <outline>
    <contour>
      <point x="700" y="0" type="line" name="ab01"/>
      <point x="737" y="-41"/>
      <point x="764" y="-79" name="dh02"/>
      <point x="783" y="-115" type="curve" smooth="yes"/>
      <point x="798" y="-146" name="dv01"/>
      <point x="809" y="-179" name="sv01"/>
      <point x="809" y="-219" type="curve" smooth="yes"/>
      <point x="809" y="-272" name="dh01"/>
      <point x="789" y="-319"/>
      <point x="749" y="-350" type="curve" smooth="yes" name="dv02"/>
      <point x="710" y="-379"/>
      <point x="653" y="-395"/>
      <point x="570" y="-395" type="curve" smooth="yes"/>
      <point x="541" y="-395" name="ih01"/>
      <point x="512" y="-393"/>
      <point x="483" y="-389" type="curve" smooth="yes"/>
      <point x="452" y="-385"/>
      <point x="423" y="-379"/>
      <point x="395" y="-371" type="curve"/>
      <point x="395" y="-240" type="line"/>
      <point x="418" y="-251"/>
      <point x="442" y="-260"/>
      <point x="467" y="-265" type="curve" smooth="yes"/>
      <point x="492" y="-270"/>
      <point x="523" y="-272"/>
      <point x="546" y="-272" type="curve" smooth="yes"/>
      <point x="589" y="-272"/>
      <point x="620" y="-264"/>
      <point x="640" y="-248" type="curve" smooth="yes"/>
      <point x="660" y="-232"/>
      <point x="670" y="-209"/>
      <point x="670" y="-180" type="curve" smooth="yes"/>
      <point x="670" y="-159"/>
      <point x="663" y="-134"/>
      <point x="648" y="-105" type="curve" smooth="yes"/>
      <point x="633" y="-76"/>
      <point x="611" y="-41"/>
      <point x="582" y="0" type="curve"/>
    </contour>
  </outline>
</glyph>
<glyph name="onesuperior" format="1">
  <advance width="1233"/>
  <unicode hex="00B9"/>
  <outline>
    <contour>
      <point x="362" y="1230" type="line" name="sv01"/>
      <point x="567" y="1230" type="line" name="sh01"/>
      <point x="567" y="1841" type="line"/>
      <point x="344" y="1800" type="line"/>
      <point x="344" y="1916" type="line" name="dh01"/>
      <point x="573" y="1955" type="line" name="av01"/>
      <point x="711" y="1955" type="line" name="dh02"/>
      <point x="711" y="1230" type="line"/>
      <point x="915" y="1230" type="line" name="dv02"/>
      <point x="915" y="1120" type="line" name="dv01"/>
      <point x="362" y="1120" type="line"/>
    </contour>
  </outline>
</glyph>
<glyph name="ordmasculine" format="1">
  <advance width="1233"/>
  <unicode hex="00BA"/>
  <outline>
    <contour>
      <point x="616" y="698" type="curve" smooth="yes" name="dv03"/>
      <point x="491" y="698"/>
      <point x="405" y="744" name="sh01"/>
      <point x="345" y="809" type="curve" smooth="yes"/>
      <point x="282" y="877" name="at01"/>
      <point x="244" y="977"/>
      <point x="244" y="1108" type="curve" smooth="yes" name="sh02"/>
      <point x="244" y="1231"/>
      <point x="277" y="1332"/>
      <point x="345" y="1408" type="curve" smooth="yes" name="dv04"/>
      <point x="408" y="1477"/>
      <point x="496" y="1520" name="ah02"/>
      <point x="617" y="1520" type="curve" smooth="yes"/>
      <point x="737" y="1520" name="sv01"/>
      <point x="826" y="1478"/>
      <point x="889" y="1407" type="curve" smooth="yes" name="sh03"/>
      <point x="956" y="1332"/>
      <point x="989" y="1233"/>
      <point x="989" y="1108" type="curve" smooth="yes"/>
      <point x="989" y="984" name="dv02"/>
      <point x="956" y="885" name="dv01"/>
      <point x="889" y="810" type="curve" smooth="yes"/>
      <point x="826" y="741" name="ah01"/>
      <point x="737" y="698" name="sh04"/>
    </contour>
    <contour>
      <point x="616" y="815" type="curve" smooth="yes"/>
      <point x="681" y="815"/>
      <point x="737" y="841"/>
      <point x="776" y="893" type="curve" smooth="yes"/>
      <point x="812" y="941"/>
      <point x="834" y="1013"/>
      <point x="834" y="1110" type="curve" smooth="yes"/>
      <point x="834" y="1201"/>
      <point x="815" y="1273"/>
      <point x="777" y="1325" type="curve" smooth="yes"/>
      <point x="741" y="1374"/>
      <point x="689" y="1403"/>
      <point x="617" y="1403" type="curve" smooth="yes"/>
      <point x="548" y="1403"/>
      <point x="495" y="1377"/>
      <point x="457" y="1326" type="curve" smooth="yes"/>
      <point x="418" y="1273"/>
      <point x="399" y="1201"/>
      <point x="399" y="1108" type="curve" smooth="yes"/>
      <point x="399" y="1016"/>
      <point x="418" y="943"/>
      <point x="457" y="891" type="curve" smooth="yes"/>
      <point x="496" y="840"/>
      <point x="549" y="815"/>
    </contour>
    <contour>
      <point x="276" y="592" type="line"/>
      <point x="952" y="592" type="line"/>
      <point x="952" y="469" type="line"/>
      <point x="276" y="469" type="line"/>
    </contour>
  </outline>
</glyph>
<glyph name="guillemotright" format="1">
  <advance width="1233"/>
  <unicode hex="00BB"/>
  <outline>
    <contour>
      <point x="231" y="332" type="line" name="hr00"/>
      <point x="532" y="600" type="line"/>
      <point x="231" y="868" type="line"/>
      <point x="231" y="1059" type="line" name="av03"/>
      <point x="700" y="641" type="line"/>
      <point x="700" y="559" type="line"/>
      <point x="231" y="141" type="line" name="av01"/>
    </contour>
    <contour>
      <point x="685" y="332" type="line"/>
      <point x="986" y="600" type="line"/>
      <point x="685" y="868" type="line"/>
      <point x="685" y="1059" type="line" name="av04"/>
      <point x="1154" y="641" type="line"/>
      <point x="1154" y="559" type="line"/>
      <point x="685" y="141" type="line" name="av02"/>
    </contour>
  </outline>
</glyph>
<glyph name="threequarters" format="1">
  <advance width="1233"/>
  <unicode hex="00BE"/>
  <outline>
    <contour>
      <point x="335" y="809" type="curve" smooth="yes" name="dv05"/>
      <point x="288" y="809"/>
      <point x="254" y="813"/>
      <point x="215" y="820" type="curve" smooth="yes"/>
      <point x="172" y="828"/>
      <point x="139" y="837" name="dv06"/>
      <point x="99" y="850" type="curve"/>
      <point x="99" y="971" type="line"/>
      <point x="146" y="952"/>
      <point x="186" y="940" name="dv03"/>
      <point x="225" y="931" type="curve" smooth="yes"/>
      <point x="260" y="922"/>
      <point x="295" y="918" name="dv04"/>
      <point x="329" y="918" type="curve" smooth="yes"/>
      <point x="392" y="918" name="sh01"/>
      <point x="447" y="932"/>
      <point x="487" y="959" type="curve" smooth="yes" name="dv01"/>
      <point x="522" y="983"/>
      <point x="545" y="1020"/>
      <point x="545" y="1071" type="curve" smooth="yes"/>
      <point x="545" y="1118"/>
      <point x="525" y="1155" name="dv02"/>
      <point x="490" y="1179" type="curve" smooth="yes"/>
      <point x="453" y="1204"/>
      <point x="398" y="1217"/>
      <point x="326" y="1217" type="curve" smooth="yes" name="iv01"/>
      <point x="260" y="1217" type="line"/>
      <point x="260" y="1325" type="line" name="sh02"/>
      <point x="334" y="1325" type="line" smooth="yes"/>
      <point x="395" y="1325"/>
      <point x="443" y="1336"/>
      <point x="476" y="1357" type="curve" smooth="yes"/>
      <point x="509" y="1378"/>
      <point x="525" y="1408"/>
      <point x="525" y="1447" type="curve" smooth="yes" name="ah02"/>
      <point x="525" y="1486"/>
      <point x="509" y="1515"/>
      <point x="477" y="1536" type="curve" smooth="yes"/>
      <point x="445" y="1557" name="sh04"/>
      <point x="398" y="1567" name="sv01"/>
      <point x="345" y="1567" type="curve" smooth="yes"/>
      <point x="310" y="1567" name="sv02"/>
      <point x="279" y="1563" name="sh03"/>
      <point x="242" y="1555" type="curve" smooth="yes" name="av01"/>
      <point x="205" y="1547"/>
      <point x="167" y="1535" name="sh05"/>
      <point x="127" y="1520" type="curve" name="ih01"/>
      <point x="127" y="1641" type="line" name="ih02"/>
      <point x="174" y="1652" name="ah01"/>
      <point x="216" y="1660" name="sh06"/>
      <point x="255" y="1667" type="curve" smooth="yes"/>
      <point x="294" y="1673"/>
      <point x="330" y="1676"/>
      <point x="365" y="1676" type="curve" smooth="yes"/>
      <point x="460" y="1676"/>
      <point x="535" y="1656"/>
      <point x="592" y="1617" type="curve" smooth="yes"/>
      <point x="648" y="1578"/>
      <point x="676" y="1525"/>
      <point x="676" y="1460" type="curve" smooth="yes"/>
      <point x="676" y="1413"/>
      <point x="661" y="1373"/>
      <point x="632" y="1342" type="curve" smooth="yes"/>
      <point x="603" y="1311"/>
      <point x="561" y="1289"/>
      <point x="504" y="1276" type="curve"/>
      <point x="567" y="1262"/>
      <point x="615" y="1237"/>
      <point x="648" y="1201" type="curve" smooth="yes"/>
      <point x="681" y="1166"/>
      <point x="697" y="1120"/>
      <point x="697" y="1065" type="curve" smooth="yes"/>
      <point x="697" y="984"/>
      <point x="665" y="921"/>
      <point x="602" y="876" type="curve" smooth="yes"/>
      <point x="538" y="831"/>
      <point x="446" y="809"/>
    </contour>
    <contour>
      <point x="27" y="612" type="line"/>
      <point x="1087" y="874" type="line"/>
      <point x="1114" y="766" type="line"/>
      <point x="51" y="504" type="line"/>
    </contour>
    <contour>
      <point x="839" y="-84" type="line"/>
      <point x="452" y="-84" type="line"/>
      <point x="452" y="37" type="line"/>
      <point x="815" y="565" type="line"/>
      <point x="977" y="565" type="line"/>
      <point x="977" y="27" type="line"/>
      <point x="1093" y="27" type="line"/>
      <point x="1093" y="-84" type="line"/>
      <point x="977" y="-84" type="line"/>
      <point x="977" y="-270" type="line"/>
      <point x="839" y="-270" type="line"/>
    </contour>
    <contour>
      <point x="839" y="27" type="line"/>
      <point x="839" y="440" type="line"/>
      <point x="565" y="27" type="line"/>
    </contour>
  </outline>
</glyph>
<glyph name="questiondown" format="1">
  <advance width="1233"/>
  <unicode hex="00BF"/>
  <outline>
    <contour>
      <point x="656" y="1252" type="curve" smooth="yes" name="sv01"/>
      <point x="615" y="1252"/>
      <point x="580" y="1266" name="dh03"/>
      <point x="552" y="1294" type="curve" smooth="yes"/>
      <point x="523" y="1323" name="at01"/>
      <point x="509" y="1362"/>
      <point x="509" y="1405" type="curve" smooth="yes" name="dh04"/>
      <point x="509" y="1448"/>
      <point x="523" y="1486"/>
      <point x="551" y="1514" type="curve" smooth="yes" name="ab01"/>
      <point x="574" y="1537"/>
      <point x="610" y="1556" name="dh01"/>
      <point x="655" y="1556" type="curve" smooth="yes"/>
      <point x="698" y="1556"/>
      <point x="732" y="1541"/>
      <point x="759" y="1514" type="curve" smooth="yes"/>
      <point x="787" y="1486" name="sh01"/>
      <point x="801" y="1450"/>
      <point x="801" y="1405" type="curve" smooth="yes" name="ih01"/>
      <point x="801" y="1360"/>
      <point x="787" y="1323"/>
      <point x="759" y="1295" type="curve" smooth="yes" name="sh02"/>
      <point x="730" y="1266"/>
      <point x="696" y="1252"/>
    </contour>
    <contour>
      <point x="602" y="-27" type="curve" smooth="yes"/>
      <point x="477" y="-27" name="dh02"/>
      <point x="377" y="5"/>
      <point x="304" y="68" type="curve" smooth="yes" name="sv02"/>
      <point x="232" y="131"/>
      <point x="193" y="219" name="iv01"/>
      <point x="193" y="324" type="curve" smooth="yes"/>
      <point x="193" y="380"/>
      <point x="204" y="424"/>
      <point x="227" y="468" type="curve" smooth="yes"/>
      <point x="250" y="512"/>
      <point x="289" y="561"/>
      <point x="354" y="625" type="curve" smooth="yes"/>
      <point x="442" y="711" type="line" smooth="yes"/>
      <point x="482" y="750"/>
      <point x="513" y="784"/>
      <point x="528" y="817" type="curve" smooth="yes"/>
      <point x="541" y="844"/>
      <point x="547" y="879"/>
      <point x="547" y="922" type="curve" smooth="yes"/>
      <point x="547" y="927" type="line" smooth="yes"/>
      <point x="548" y="942"/>
      <point x="549" y="956"/>
      <point x="549" y="969" type="curve" smooth="yes"/>
      <point x="549" y="1092" type="line"/>
      <point x="739" y="1092" type="line"/>
      <point x="739" y="938" type="line" smooth="yes"/>
      <point x="739" y="872"/>
      <point x="729" y="817"/>
      <point x="709" y="772" type="curve" smooth="yes"/>
      <point x="689" y="727"/>
      <point x="651" y="676"/>
      <point x="594" y="621" type="curve" smooth="yes"/>
      <point x="504" y="532" type="line" smooth="yes"/>
      <point x="477" y="505"/>
      <point x="437" y="465"/>
      <point x="418" y="429" type="curve" smooth="yes"/>
      <point x="401" y="397"/>
      <point x="395" y="359"/>
      <point x="395" y="332" type="curve" smooth="yes"/>
      <point x="395" y="275"/>
      <point x="421" y="224"/>
      <point x="460" y="192" type="curve" smooth="yes" name="hr01"/>
      <point x="504" y="155"/>
      <point x="565" y="137"/>
      <point x="633" y="137" type="curve" smooth="yes"/>
      <point x="689" y="137"/>
      <point x="742" y="149"/>
      <point x="802" y="172" type="curve" smooth="yes"/>
      <point x="863" y="195"/>
      <point x="925" y="229"/>
      <point x="989" y="274" type="curve"/>
      <point x="989" y="86" type="line"/>
      <point x="922" y="46"/>
      <point x="857" y="18"/>
      <point x="800" y="1" type="curve" smooth="yes"/>
      <point x="736" y="-18"/>
      <point x="667" y="-27"/>
    </contour>
  </outline>
</glyph>
<glyph name="Agrave" format="1">
  <advance width="1233"/>
  <unicode hex="00C0"/>
  <outline>
    <contour>
      <point x="358" y="1849" type="line" name="av01"/>
      <point x="542" y="1849" type="line"/>
      <point x="739" y="1585" type="line" name="iv01"/>
      <point x="585" y="1585" type="line"/>
    </contour>
    <contour>
      <point x="494" y="1493" type="line" name="at01"/>
      <point x="739" y="1493" type="line"/>
      <point x="1196" y="0" type="line" name="ab01"/>
      <point x="987" y="0" type="line"/>
      <point x="877" y="389" type="line" name="dv01"/>
      <point x="354" y="389" type="line"/>
      <point x="246" y="0" type="line" name="ab02"/>
      <point x="37" y="0" type="line"/>
    </contour>
    <contour>
      <point x="829" y="551" type="line" name="dv02"/>
      <point x="616" y="1315" type="line"/>
      <point x="403" y="551" type="line"/>
    </contour>
  </outline>
</glyph>
<glyph name="Aring" format="1">
  <advance width="1233"/>
  <unicode hex="00C5"/>
  <outline>
    <contour>
      <point x="465" y="1399" type="line" name="sh03"/>
      <point x="425" y="1422"/>
      <point x="395" y="1455" name="sh01"/>
      <point x="375" y="1492" type="curve" smooth="yes"/>
      <point x="352" y="1533" name="dv02"/>
      <point x="342" y="1578"/>
      <point x="342" y="1625" type="curve" smooth="yes" name="sh04"/>
      <point x="342" y="1704"/>
      <point x="373" y="1773" name="sh05"/>
      <point x="422" y="1822" type="curve" smooth="yes" name="ab01"/>
      <point x="471" y="1871"/>
      <point x="540" y="1901" name="sh06"/>
      <point x="616" y="1901" type="curve" smooth="yes" name="sh07"/>
      <point x="693" y="1901" name="ab02"/>
      <point x="763" y="1870"/>
      <point x="812" y="1821" type="curve" smooth="yes"/>
      <point x="859" y="1774"/>
      <point x="891" y="1706" name="ah02"/>
      <point x="891" y="1625" type="curve" smooth="yes"/>
      <point x="891" y="1577" name="dv01"/>
      <point x="880" y="1533"/>
      <point x="859" y="1494" type="curve" smooth="yes" name="sh02"/>
      <point x="838" y="1455"/>
      <point x="808" y="1424"/>
      <point x="768" y="1399" type="curve" name="ih01"/>
      <point x="1196" y="0" type="line" name="ih02"/>
      <point x="987" y="0" type="line" name="ih03"/>
      <point x="877" y="389" type="line" name="ah01"/>
      <point x="354" y="389" type="line"/>
      <point x="246" y="0" type="line"/>
      <point x="37" y="0" type="line"/>
    </contour>
    <contour>
      <point x="616" y="1475" type="curve" smooth="yes"/>
      <point x="661" y="1475"/>
      <point x="697" y="1492"/>
      <point x="724" y="1519" type="curve" smooth="yes"/>
      <point x="753" y="1548"/>
      <point x="768" y="1584"/>
      <point x="768" y="1626" type="curve" smooth="yes"/>
      <point x="768" y="1671"/>
      <point x="751" y="1707"/>
      <point x="724" y="1734" type="curve" smooth="yes"/>
      <point x="693" y="1765"/>
      <point x="654" y="1778"/>
      <point x="615" y="1778" type="curve" smooth="yes"/>
      <point x="573" y="1778"/>
      <point x="538" y="1764"/>
      <point x="509" y="1735" type="curve" smooth="yes"/>
      <point x="480" y="1706"/>
      <point x="465" y="1669"/>
      <point x="465" y="1626" type="curve" smooth="yes"/>
      <point x="465" y="1584"/>
      <point x="480" y="1548"/>
      <point x="509" y="1519" type="curve" smooth="yes"/>
      <point x="538" y="1490"/>
      <point x="574" y="1475"/>
    </contour>
    <contour>
      <point x="829" y="551" type="line"/>
      <point x="616" y="1311" type="line"/>
      <point x="403" y="551" type="line"/>
    </contour>
  </outline>
</glyph>
<glyph name="Ccedilla" format="1">
  <advance width="1233"/>
  <unicode hex="00C7"/>
  <outline>
    <contour>
      <point x="741" y="1356" type="curve" smooth="yes" name="sv01"/>
      <point x="612" y="1356"/>
      <point x="513" y="1305" name="dh02"/>
      <point x="448" y="1204" type="curve" smooth="yes"/>
      <point x="383" y="1103" name="dv04"/>
      <point x="350" y="950"/>
      <point x="350" y="745" type="curve" smooth="yes"/>
      <point x="350" y="541"/>
      <point x="383" y="388"/>
      <point x="448" y="287" type="curve" smooth="yes" name="ih01"/>
      <point x="511" y="191"/>
      <point x="606" y="135" name="dh04"/>
      <point x="742" y="135" type="curve" smooth="yes"/>
      <point x="801" y="135" name="dv01"/>
      <point x="859" y="146" name="sv02"/>
      <point x="916" y="167" type="curve" smooth="yes"/>
      <point x="971" y="188" name="dh03"/>
      <point x="1024" y="219"/>
      <point x="1073" y="260" type="curve" name="dv02"/>
      <point x="1073" y="53" type="line"/>
      <point x="1021" y="26"/>
      <point x="968" y="5"/>
      <point x="915" y="-9" type="curve" smooth="yes" name="dv03"/>
      <point x="886" y="-16"/>
      <point x="854" y="-22" name="dh01"/>
      <point x="822" y="-25" type="curve"/>
      <point x="849" y="-58" name="at01"/>
      <point x="870" y="-88"/>
      <point x="883" y="-115" type="curve" smooth="yes"/>
      <point x="898" y="-146"/>
      <point x="909" y="-179"/>
      <point x="909" y="-219" type="curve" smooth="yes"/>
      <point x="909" y="-272"/>
      <point x="889" y="-319"/>
      <point x="849" y="-350" type="curve" smooth="yes"/>
      <point x="810" y="-379"/>
      <point x="753" y="-395"/>
      <point x="670" y="-395" type="curve" smooth="yes"/>
      <point x="641" y="-395"/>
      <point x="612" y="-393"/>
      <point x="583" y="-389" type="curve" smooth="yes"/>
      <point x="552" y="-385"/>
      <point x="523" y="-379"/>
      <point x="495" y="-371" type="curve"/>
      <point x="495" y="-240" type="line"/>
      <point x="518" y="-251"/>
      <point x="542" y="-260"/>
      <point x="567" y="-265" type="curve" smooth="yes"/>
      <point x="592" y="-270"/>
      <point x="623" y="-272"/>
      <point x="646" y="-272" type="curve" smooth="yes"/>
      <point x="689" y="-272"/>
      <point x="720" y="-264"/>
      <point x="740" y="-248" type="curve" smooth="yes"/>
      <point x="760" y="-232"/>
      <point x="770" y="-209"/>
      <point x="770" y="-180" type="curve" smooth="yes"/>
      <point x="770" y="-159"/>
      <point x="763" y="-134"/>
      <point x="748" y="-105" type="curve" smooth="yes"/>
      <point x="737" y="-84"/>
      <point x="722" y="-58"/>
      <point x="701" y="-28" type="curve"/>
      <point x="529" y="-17"/>
      <point x="393" y="51"/>
      <point x="297" y="174" type="curve" smooth="yes"/>
      <point x="192" y="310"/>
      <point x="139" y="503"/>
      <point x="139" y="744" type="curve" smooth="yes"/>
      <point x="139" y="985"/>
      <point x="191" y="1179"/>
      <point x="298" y="1316" type="curve" smooth="yes"/>
      <point x="402" y="1449"/>
      <point x="551" y="1520"/>
      <point x="742" y="1520" type="curve" smooth="yes"/>
      <point x="802" y="1520"/>
      <point x="863" y="1513"/>
      <point x="915" y="1500" type="curve" smooth="yes"/>
      <point x="966" y="1487"/>
      <point x="1022" y="1465"/>
      <point x="1073" y="1438" type="curve"/>
      <point x="1073" y="1231" type="line"/>
      <point x="1024" y="1272"/>
      <point x="971" y="1303"/>
      <point x="914" y="1324" type="curve" smooth="yes"/>
      <point x="857" y="1345"/>
      <point x="801" y="1356"/>
    </contour>
  </outline>
</glyph>
<glyph name="Egrave" format="1">
  <advance width="1233"/>
  <unicode hex="00C8"/>
  <outline>
    <contour>
      <point x="395" y="1856" type="line" name="ih01"/>
      <point x="579" y="1856" type="line"/>
      <point x="776" y="1592" type="line" name="iv01"/>
      <point x="622" y="1592" type="line"/>
    </contour>
    <contour>
      <point x="197" y="1493" type="line" name="dh01"/>
      <point x="1083" y="1493" type="line"/>
      <point x="1083" y="1323" type="line" name="sv01"/>
      <point x="399" y="1323" type="line" name="dh02"/>
      <point x="399" y="881" type="line"/>
      <point x="1053" y="881" type="line" name="dv02"/>
      <point x="1053" y="711" type="line" name="dv01"/>
      <point x="399" y="711" type="line" name="sh01"/>
      <point x="399" y="170" type="line" name="sv02"/>
      <point x="1102" y="170" type="line"/>
      <point x="1102" y="0" type="line" name="ab01"/>
      <point x="197" y="0" type="line"/>
    </contour>
  </outline>
</glyph>
<glyph name="Edieresis" format="1">
  <advance width="1233"/>
  <unicode hex="00CB"/>
  <outline>
    <contour>
      <point x="367" y="1647" type="line" smooth="yes" name="dv01"/>
      <point x="347" y="1647" name="ih01"/>
      <point x="337" y="1657"/>
      <point x="337" y="1677" type="curve" smooth="yes" name="dv02"/>
      <point x="337" y="1820" type="line" smooth="yes"/>
      <point x="337" y="1840"/>
      <point x="347" y="1850" name="sh01"/>
      <point x="367" y="1850" type="curve" smooth="yes"/>
      <point x="510" y="1850" type="line" smooth="yes" name="sv01"/>
      <point x="530" y="1850" name="dh03"/>
      <point x="540" y="1840"/>
      <point x="540" y="1820" type="curve" smooth="yes" name="sv02"/>
      <point x="540" y="1677" type="line" smooth="yes"/>
      <point x="540" y="1657"/>
      <point x="530" y="1647" name="dh04"/>
      <point x="510" y="1647" type="curve" smooth="yes"/>
    </contour>
    <contour>
      <point x="759" y="1647" type="line" smooth="yes" name="dh01"/>
      <point x="739" y="1647"/>
      <point x="729" y="1657" name="sv03"/>
      <point x="729" y="1677" type="curve" smooth="yes" name="dh02"/>
      <point x="729" y="1820" type="line" smooth="yes"/>
      <point x="729" y="1840" name="dv04"/>
      <point x="739" y="1850" name="dv03"/>
      <point x="759" y="1850" type="curve" smooth="yes" name="sh02"/>
      <point x="901" y="1850" type="line" smooth="yes" name="sv04"/>
      <point x="921" y="1850"/>
      <point x="931" y="1840" name="ab01"/>
      <point x="931" y="1820" type="curve" smooth="yes"/>
      <point x="931" y="1677" type="line" smooth="yes"/>
      <point x="931" y="1657" name="sh03"/>
      <point x="921" y="1647"/>
      <point x="901" y="1647" type="curve" smooth="yes"/>
    </contour>
    <contour>
      <point x="197" y="1493" type="line"/>
      <point x="1083" y="1493" type="line"/>
      <point x="1083" y="1323" type="line"/>
      <point x="399" y="1323" type="line"/>
      <point x="399" y="881" type="line"/>
      <point x="1053" y="881" type="line" name="hr01"/>
      <point x="1053" y="711" type="line"/>
      <point x="399" y="711" type="line"/>
      <point x="399" y="170" type="line"/>
      <point x="1102" y="170" type="line"/>
      <point x="1102" y="0" type="line"/>
      <point x="197" y="0" type="line"/>
    </contour>
  </outline>
</glyph>
<glyph name="Eth" format="1">
  <advance width="1233"/>
  <unicode hex="00D0"/>
  <outline>
    <contour>
      <point x="133" y="709" type="line" name="sh01"/>
      <point x="8" y="709" type="line"/>
      <point x="8" y="858" type="line"/>
      <point x="133" y="858" type="line" name="sh02"/>
      <point x="133" y="1493" type="line" name="at01"/>
      <point x="436" y="1493" type="line" smooth="yes"/>
      <point x="664" y="1493"/>
      <point x="832" y="1432" name="sh03"/>
      <point x="940" y="1311" type="curve" smooth="yes"/>
      <point x="1048" y="1190" name="ab01"/>
      <point x="1102" y="1001"/>
      <point x="1102" y="746" type="curve" smooth="yes" name="sv01"/>
      <point x="1102" y="491"/>
      <point x="1048" y="303" name="ah02"/>
      <point x="940" y="182" type="curve" smooth="yes"/>
      <point x="829" y="58" name="sv02"/>
      <point x="660" y="0" name="sh05"/>
      <point x="436" y="0" type="curve" smooth="yes" name="sv03"/>
      <point x="133" y="0" type="line"/>
    </contour>
    <contour>
      <point x="436" y="166" type="line" smooth="yes" name="sv04"/>
      <point x="620" y="166" name="sh04"/>
      <point x="725" y="211"/>
      <point x="791" y="293" type="curve" smooth="yes" name="ah01"/>
      <point x="860" y="380" name="sh06"/>
      <point x="893" y="521"/>
      <point x="893" y="748" type="curve" smooth="yes"/>
      <point x="893" y="982"/>
      <point x="858" y="1115"/>
      <point x="792" y="1200" type="curve"/>
      <point x="721" y="1289"/>
      <point x="609" y="1327"/>
      <point x="436" y="1327" type="curve" smooth="yes"/>
      <point x="340" y="1327" type="line"/>
      <point x="340" y="858" type="line"/>
      <point x="604" y="858" type="line"/>
      <point x="604" y="709" type="line"/>
      <point x="340" y="709" type="line"/>
      <point x="340" y="166" type="line"/>
    </contour>
  </outline>
</glyph>
<glyph name="Ntilde" format="1">
  <advance width="1233"/>
  <unicode hex="00D1"/>
  <outline>
    <contour>
      <point x="287" y="1633" type="line" name="hr00"/>
      <point x="287" y="1697" name="sh03"/>
      <point x="302" y="1750" name="dv02"/>
      <point x="339" y="1793" type="curve" smooth="yes"/>
      <point x="373" y="1832"/>
      <point x="419" y="1852"/>
      <point x="476" y="1852" type="curve" smooth="yes"/>
      <point x="497" y="1852"/>
      <point x="519" y="1849"/>
      <point x="542" y="1844" type="curve" smooth="yes"/>
      <point x="562" y="1839" name="sv01"/>
      <point x="586" y="1828"/>
      <point x="621" y="1809" type="curve" smooth="yes" name="sh04"/>
      <point x="678" y="1779" type="line" name="sv02"/>
      <point x="692" y="1770"/>
      <point x="705" y="1764"/>
      <point x="718" y="1760" type="curve" smooth="yes"/>
      <point x="729" y="1756"/>
      <point x="739" y="1754"/>
      <point x="750" y="1754" type="curve" smooth="yes"/>
      <point x="771" y="1754"/>
      <point x="788" y="1763" name="dv01"/>
      <point x="801" y="1780" type="curve" smooth="yes" name="sh01"/>
      <point x="814" y="1797"/>
      <point x="821" y="1819" name="ah02"/>
      <point x="821" y="1846" type="curve" smooth="yes" name="at01"/>
      <point x="821" y="1852" type="line"/>
      <point x="946" y="1852" type="line" name="sh05"/>
      <point x="945" y="1786"/>
      <point x="928" y="1733" name="sh02"/>
      <point x="893" y="1693" type="curve" smooth="yes" name="ab01"/>
      <point x="859" y="1653"/>
      <point x="814" y="1633" name="ah01"/>
      <point x="757" y="1633" type="curve" smooth="yes" name="sh06"/>
      <point x="736" y="1633"/>
      <point x="715" y="1636"/>
      <point x="694" y="1641" type="curve" smooth="yes"/>
      <point x="675" y="1646"/>
      <point x="653" y="1655"/>
      <point x="612" y="1676" type="curve"/>
      <point x="555" y="1709" type="line" smooth="yes"/>
      <point x="540" y="1718"/>
      <point x="526" y="1724"/>
      <point x="514" y="1729" type="curve" smooth="yes"/>
      <point x="503" y="1733"/>
      <point x="492" y="1734"/>
      <point x="485" y="1734" type="curve" smooth="yes"/>
      <point x="465" y="1734"/>
      <point x="445" y="1726"/>
      <point x="432" y="1709" type="curve" smooth="yes"/>
      <point x="419" y="1692"/>
      <point x="412" y="1668"/>
      <point x="412" y="1639" type="curve" smooth="yes"/>
      <point x="412" y="1633" type="line"/>
    </contour>
    <contour>
      <point x="139" y="1493" type="line"/>
      <point x="395" y="1493" type="line"/>
      <point x="899" y="264" type="line"/>
      <point x="899" y="1493" type="line"/>
      <point x="1094" y="1493" type="line"/>
      <point x="1094" y="0" type="line"/>
      <point x="838" y="0" type="line"/>
      <point x="334" y="1229" type="line"/>
      <point x="334" y="0" type="line"/>
      <point x="139" y="0" type="line"/>
    </contour>
  </outline>
</glyph>
<glyph name="Ograve" format="1">
  <advance width="1233"/>
  <unicode hex="00D2"/>
  <outline>
    <contour>
      <point x="382" y="1856" type="line" name="ih01"/>
      <point x="566" y="1856" type="line" name="sv02"/>
      <point x="763" y="1592" type="line" name="ih02"/>
      <point x="609" y="1592" type="line"/>
    </contour>
    <contour>
      <point x="616" y="-29" type="curve" smooth="yes" name="dv01"/>
      <point x="447" y="-29"/>
      <point x="322" y="35" name="sh01"/>
      <point x="240" y="162" type="curve" smooth="yes"/>
      <point x="158" y="289" name="at01"/>
      <point x="117" y="483"/>
      <point x="117" y="745" type="curve" smooth="yes" name="sh02"/>
      <point x="117" y="1006"/>
      <point x="158" y="1201"/>
      <point x="241" y="1328" type="curve" smooth="yes" name="dv02"/>
      <point x="324" y="1456"/>
      <point x="445" y="1520" name="ah02"/>
      <point x="616" y="1520" type="curve" smooth="yes"/>
      <point x="780" y="1520" name="sv01"/>
      <point x="908" y="1461"/>
      <point x="993" y="1328" type="curve" smooth="yes" name="sh03"/>
      <point x="1075" y="1200"/>
      <point x="1116" y="1006"/>
      <point x="1116" y="745" type="curve" smooth="yes" name="ah01"/>
      <point x="1116" y="485" name="sh04"/>
      <point x="1075" y="291"/>
      <point x="993" y="163" type="curve" smooth="yes"/>
      <point x="908" y="30"/>
      <point x="780" y="-29"/>
    </contour>
    <contour>
      <point x="616" y="135" type="curve" smooth="yes"/>
      <point x="719" y="135"/>
      <point x="793" y="182"/>
      <point x="838" y="276" type="curve" smooth="yes"/>
      <point x="883" y="368"/>
      <point x="905" y="524"/>
      <point x="905" y="745" type="curve" smooth="yes"/>
      <point x="905" y="965"/>
      <point x="883" y="1122"/>
      <point x="838" y="1215" type="curve" smooth="yes"/>
      <point x="793" y="1309"/>
      <point x="719" y="1356"/>
      <point x="616" y="1356" type="curve" smooth="yes"/>
      <point x="514" y="1356"/>
      <point x="441" y="1309"/>
      <point x="396" y="1215" type="curve" smooth="yes"/>
      <point x="351" y="1120"/>
      <point x="328" y="964"/>
      <point x="328" y="745" type="curve" smooth="yes"/>
      <point x="328" y="527"/>
      <point x="351" y="371"/>
      <point x="396" y="276" type="curve" smooth="yes" name="hr01"/>
      <point x="441" y="182"/>
      <point x="514" y="135"/>
    </contour>
  </outline>
</glyph>
<glyph name="Otilde" format="1">
  <advance width="1233"/>
  <unicode hex="00D5"/>
  <outline>
    <contour>
      <point x="287" y="1633" type="line" name="hr00"/>
      <point x="287" y="1697" name="sh03"/>
      <point x="302" y="1750" name="dv04"/>
      <point x="339" y="1793" type="curve" smooth="yes"/>
      <point x="373" y="1832"/>
      <point x="419" y="1852"/>
      <point x="476" y="1852" type="curve" smooth="yes"/>
      <point x="497" y="1852"/>
      <point x="519" y="1849"/>
      <point x="542" y="1844" type="curve" smooth="yes"/>
      <point x="562" y="1839" name="sv01"/>
      <point x="586" y="1828"/>
      <point x="621" y="1809" type="curve" smooth="yes" name="sh04"/>
      <point x="678" y="1779" type="line" name="sv02"/>
      <point x="692" y="1770"/>
      <point x="705" y="1764"/>
      <point x="718" y="1760" type="curve" smooth="yes"/>
      <point x="729" y="1756"/>
      <point x="739" y="1754"/>
      <point x="750" y="1754" type="curve" smooth="yes"/>
      <point x="771" y="1754"/>
      <point x="788" y="1763" name="dv03"/>
      <point x="801" y="1780" type="curve" smooth="yes" name="dv01"/>
      <point x="814" y="1797"/>
      <point x="821" y="1819" name="sh01"/>
      <point x="821" y="1846" type="curve" smooth="yes"/>
      <point x="821" y="1852" type="line" name="at01"/>
      <point x="946" y="1852" type="line"/>
      <point x="945" y="1786" name="sh05"/>
      <point x="928" y="1733"/>
      <point x="893" y="1693" type="curve" smooth="yes"/>
      <point x="859" y="1653" name="dv02"/>
      <point x="814" y="1633"/>
      <point x="757" y="1633" type="curve" smooth="yes" name="ah02"/>
      <point x="736" y="1633"/>
      <point x="715" y="1636" name="sv03"/>
      <point x="694" y="1641" type="curve" smooth="yes"/>
      <point x="675" y="1646" name="sh02"/>
      <point x="653" y="1655"/>
      <point x="612" y="1676" type="curve"/>
      <point x="555" y="1709" type="line" smooth="yes" name="ah01"/>
      <point x="540" y="1718" name="sh06"/>
      <point x="526" y="1724"/>
      <point x="514" y="1729" type="curve" smooth="yes"/>
      <point x="503" y="1733"/>
      <point x="492" y="1734"/>
      <point x="485" y="1734" type="curve" smooth="yes"/>
      <point x="465" y="1734"/>
      <point x="445" y="1726"/>
      <point x="432" y="1709" type="curve" smooth="yes"/>
      <point x="419" y="1692"/>
      <point x="412" y="1668"/>
      <point x="412" y="1639" type="curve" smooth="yes"/>
      <point x="412" y="1633" type="line"/>
    </contour>
    <contour>
      <point x="616" y="-29" type="curve" smooth="yes"/>
      <point x="447" y="-29"/>
      <point x="322" y="35"/>
      <point x="240" y="162" type="curve" smooth="yes"/>
      <point x="158" y="289"/>
      <point x="117" y="483"/>
      <point x="117" y="745" type="curve" smooth="yes"/>
      <point x="117" y="1006"/>
      <point x="158" y="1201"/>
      <point x="241" y="1328" type="curve" smooth="yes"/>
      <point x="324" y="1456"/>
      <point x="445" y="1520"/>
      <point x="616" y="1520" type="curve" smooth="yes"/>
      <point x="780" y="1520"/>
      <point x="908" y="1461"/>
      <point x="993" y="1328" type="curve" smooth="yes"/>
      <point x="1075" y="1200"/>
      <point x="1116" y="1006"/>
      <point x="1116" y="745" type="curve" smooth="yes"/>
      <point x="1116" y="485"/>
      <point x="1075" y="291"/>
      <point x="993" y="163" type="curve" smooth="yes"/>
      <point x="908" y="30"/>
      <point x="780" y="-29"/>
    </contour>
    <contour>
      <point x="616" y="135" type="curve" smooth="yes"/>
      <point x="719" y="135"/>
      <point x="793" y="182"/>
      <point x="838" y="276" type="curve" smooth="yes"/>
      <point x="883" y="368"/>
      <point x="905" y="524"/>
      <point x="905" y="745" type="curve" smooth="yes"/>
      <point x="905" y="965"/>
      <point x="883" y="1122"/>
      <point x="838" y="1215" type="curve" smooth="yes"/>
      <point x="793" y="1309"/>
      <point x="719" y="1356"/>
      <point x="616" y="1356" type="curve" smooth="yes"/>
      <point x="514" y="1356"/>
      <point x="441" y="1309"/>
      <point x="396" y="1215" type="curve" smooth="yes"/>
      <point x="351" y="1120"/>
      <point x="328" y="964"/>
      <point x="328" y="745" type="curve" smooth="yes"/>
      <point x="328" y="527"/>
      <point x="351" y="371"/>
      <point x="396" y="276" type="curve" smooth="yes"/>
      <point x="441" y="182"/>
      <point x="514" y="135"/>
    </contour>
  </outline>
</glyph>
<glyph name="Odieresis" format="1">
  <advance width="1233"/>
  <unicode hex="00D6"/>
  <outline>
    <contour>
      <point x="349" y="1647" type="line" smooth="yes" name="dv03"/>
      <point x="329" y="1647" name="sh01"/>
      <point x="319" y="1657"/>
      <point x="319" y="1677" type="curve" smooth="yes" name="dv04"/>
      <point x="319" y="1820" type="line" smooth="yes"/>
      <point x="319" y="1840"/>
      <point x="329" y="1850" name="sh02"/>
      <point x="349" y="1850" type="curve" smooth="yes"/>
      <point x="492" y="1850" type="line" smooth="yes" name="sv01"/>
      <point x="512" y="1850" name="dh03"/>
      <point x="522" y="1840"/>
      <point x="522" y="1820" type="curve" smooth="yes" name="sv02"/>
      <point x="522" y="1677" type="line" smooth="yes"/>
      <point x="522" y="1657"/>
      <point x="512" y="1647" name="dh04"/>
      <point x="492" y="1647" type="curve" smooth="yes"/>
    </contour>
    <contour>
      <point x="741" y="1647" type="line" smooth="yes" name="dv01"/>
      <point x="721" y="1647"/>
      <point x="711" y="1657" name="dh01"/>
      <point x="711" y="1677" type="curve" smooth="yes"/>
      <point x="711" y="1820" type="line" smooth="yes" name="at01"/>
      <point x="711" y="1840"/>
      <point x="721" y="1850" name="sh03"/>
      <point x="741" y="1850" type="curve" smooth="yes"/>
      <point x="883" y="1850" type="line" smooth="yes"/>
      <point x="903" y="1850" name="dv02"/>
      <point x="913" y="1840"/>
      <point x="913" y="1820" type="curve" smooth="yes" name="sh04"/>
      <point x="913" y="1677" type="line" smooth="yes"/>
      <point x="913" y="1657" name="sv03"/>
      <point x="903" y="1647"/>
      <point x="883" y="1647" type="curve" smooth="yes" name="dh02"/>
    </contour>
    <contour>
      <point x="616" y="-29" type="curve" smooth="yes"/>
      <point x="447" y="-29"/>
      <point x="322" y="35"/>
      <point x="240" y="162" type="curve" smooth="yes"/>
      <point x="158" y="289"/>
      <point x="117" y="483"/>
      <point x="117" y="745" type="curve" smooth="yes"/>
      <point x="117" y="1006"/>
      <point x="158" y="1201"/>
      <point x="241" y="1328" type="curve" smooth="yes" name="hr01"/>
      <point x="324" y="1456"/>
      <point x="445" y="1520"/>
      <point x="616" y="1520" type="curve" smooth="yes"/>
      <point x="780" y="1520"/>
      <point x="908" y="1461"/>
      <point x="993" y="1328" type="curve" smooth="yes"/>
      <point x="1075" y="1200"/>
      <point x="1116" y="1006"/>
      <point x="1116" y="745" type="curve" smooth="yes"/>
      <point x="1116" y="485"/>
      <point x="1075" y="291"/>
      <point x="993" y="163" type="curve" smooth="yes"/>
      <point x="908" y="30"/>
      <point x="780" y="-29"/>
    </contour>
    <contour>
      <point x="616" y="135" type="curve" smooth="yes"/>
      <point x="719" y="135"/>
      <point x="793" y="182"/>
      <point x="838" y="276" type="curve" smooth="yes"/>
      <point x="883" y="368"/>
      <point x="905" y="524"/>
      <point x="905" y="745" type="curve" smooth="yes"/>
      <point x="905" y="965"/>
      <point x="883" y="1122"/>
      <point x="838" y="1215" type="curve" smooth="yes"/>
      <point x="793" y="1309"/>
      <point x="719" y="1356"/>
      <point x="616" y="1356" type="curve" smooth="yes"/>
      <point x="514" y="1356"/>
      <point x="441" y="1309"/>
      <point x="396" y="1215" type="curve" smooth="yes"/>
      <point x="351" y="1120"/>
      <point x="328" y="964"/>
      <point x="328" y="745" type="curve" smooth="yes"/>
      <point x="328" y="527"/>
      <point x="351" y="371"/>
      <point x="396" y="276" type="curve" smooth="yes"/>
      <point x="441" y="182"/>
      <point x="514" y="135"/>
    </contour>
  </outline>
</glyph>
<glyph name="Oslash" format="1">
  <advance width="1233"/>
  <unicode hex="00D8"/>
  <outline>
    <contour>
      <point x="8" y="0" type="line" name="hr00"/>
      <point x="186" y="252" type="line"/>
      <point x="163" y="304"/>
      <point x="149" y="364" name="sh01"/>
      <point x="136" y="456" type="curve" smooth="yes"/>
      <point x="124" y="540" name="at02"/>
      <point x="117" y="628"/>
      <point x="117" y="740" type="curve" smooth="yes" name="ih01"/>
      <point x="117" y="1011" name="at01"/>
      <point x="157" y="1199"/>
      <point x="241" y="1328" type="curve" smooth="yes"/>
      <point x="326" y="1460"/>
      <point x="450" y="1520" name="sh02"/>
      <point x="615" y="1520" type="curve" smooth="yes"/>
      <point x="695" y="1520" name="dv01"/>
      <point x="759" y="1506"/>
      <point x="818" y="1479" type="curve" smooth="yes" name="ih02"/>
      <point x="875" y="1452" name="sh04"/>
      <point x="922" y="1412"/>
      <point x="961" y="1358" type="curve"/>
      <point x="1100" y="1559" type="line" name="sv01"/>
      <point x="1200" y="1485" type="line"/>
      <point x="1032" y="1247" type="line" name="sh03"/>
      <point x="1060" y="1192" name="sh05"/>
      <point x="1080" y="1118" name="sh06"/>
      <point x="1095" y="1037" type="curve" name="dv02"/>
      <point x="1108" y="960"/>
      <point x="1116" y="859" name="ah02"/>
      <point x="1116" y="744" type="curve" smooth="yes" name="sh07"/>
      <point x="1116" y="485" name="ih03"/>
      <point x="1075" y="291"/>
      <point x="993" y="163" type="curve" smooth="yes"/>
      <point x="913" y="38"/>
      <point x="791" y="-29" name="ah01"/>
      <point x="612" y="-29" type="curve" smooth="yes" name="sh08"/>
      <point x="536" y="-29"/>
      <point x="469" y="-17"/>
      <point x="405" y="12" type="curve" smooth="yes"/>
      <point x="345" y="39"/>
      <point x="295" y="79"/>
      <point x="254" y="133" type="curve"/>
      <point x="111" y="-70" type="line"/>
    </contour>
    <contour>
      <point x="842" y="1190" type="line"/>
      <point x="825" y="1246"/>
      <point x="795" y="1287"/>
      <point x="760" y="1314" type="curve" smooth="yes"/>
      <point x="721" y="1343"/>
      <point x="671" y="1356"/>
      <point x="615" y="1356" type="curve" smooth="yes"/>
      <point x="503" y="1356"/>
      <point x="437" y="1304"/>
      <point x="394" y="1208" type="curve" smooth="yes"/>
      <point x="349" y="1107"/>
      <point x="328" y="951"/>
      <point x="328" y="686" type="curve" smooth="yes"/>
      <point x="328" y="628"/>
      <point x="328" y="598"/>
      <point x="331" y="556" type="curve" smooth="yes"/>
      <point x="332" y="537"/>
      <point x="331" y="518"/>
      <point x="338" y="471" type="curve"/>
    </contour>
    <contour>
      <point x="617" y="135" type="curve" smooth="yes"/>
      <point x="726" y="135"/>
      <point x="795" y="186"/>
      <point x="838" y="277" type="curve" smooth="yes"/>
      <point x="881" y="365"/>
      <point x="905" y="506"/>
      <point x="905" y="748" type="curve" smooth="yes"/>
      <point x="905" y="817"/>
      <point x="903" y="878"/>
      <point x="900" y="923" type="curve" smooth="yes"/>
      <point x="897" y="967"/>
      <point x="893" y="1001"/>
      <point x="885" y="1036" type="curve"/>
      <point x="371" y="303" type="line"/>
      <point x="391" y="251"/>
      <point x="423" y="210"/>
      <point x="467" y="180" type="curve" smooth="yes"/>
      <point x="512" y="149"/>
      <point x="561" y="135"/>
    </contour>
  </outline>
</glyph>
<glyph name="Udieresis" format="1">
  <advance width="1233"/>
  <unicode hex="00DC"/>
  <outline>
    <contour>
      <point x="349" y="1647" type="line" smooth="yes" name="dv03"/>
      <point x="329" y="1647" name="ih01"/>
      <point x="319" y="1657"/>
      <point x="319" y="1677" type="curve" smooth="yes" name="dv04"/>
      <point x="319" y="1820" type="line" smooth="yes"/>
      <point x="319" y="1840"/>
      <point x="329" y="1850" name="sh01"/>
      <point x="349" y="1850" type="curve" smooth="yes"/>
      <point x="492" y="1850" type="line" smooth="yes" name="sv01"/>
      <point x="512" y="1850" name="dh03"/>
      <point x="522" y="1840"/>
      <point x="522" y="1820" type="curve" smooth="yes" name="sv02"/>
      <point x="522" y="1677" type="line" smooth="yes"/>
      <point x="522" y="1657"/>
      <point x="512" y="1647" name="dh04"/>
      <point x="492" y="1647" type="curve" smooth="yes"/>
    </contour>
    <contour>
      <point x="741" y="1647" type="line" smooth="yes" name="dv01"/>
      <point x="721" y="1647"/>
      <point x="711" y="1657"/>
      <point x="711" y="1677" type="curve" smooth="yes"/>
      <point x="711" y="1820" type="line" smooth="yes" name="dh01"/>
      <point x="711" y="1840" name="at01"/>
      <point x="721" y="1850"/>
      <point x="741" y="1850" type="curve" smooth="yes" name="dh02"/>
      <point x="883" y="1850" type="line" smooth="yes" name="sh02"/>
      <point x="903" y="1850"/>
      <point x="913" y="1840"/>
      <point x="913" y="1820" type="curve" smooth="yes" name="dv02"/>
      <point x="913" y="1677" type="line" smooth="yes"/>
      <point x="913" y="1657"/>
      <point x="903" y="1647" name="sh03"/>
      <point x="883" y="1647" type="curve" smooth="yes"/>
    </contour>
    <contour>
      <point x="616" y="-29" type="curve" smooth="yes" name="ih02"/>
      <point x="544" y="-29" name="sh04"/>
      <point x="483" y="-19"/>
      <point x="427" y="0" type="curve"/>
      <point x="375" y="19"/>
      <point x="316" y="49"/>
      <point x="273" y="88" type="curve" smooth="yes"/>
      <point x="232" y="125"/>
      <point x="200" y="173" name="sh05"/>
      <point x="177" y="249" type="curve" smooth="yes"/>
      <point x="156" y="316"/>
      <point x="147" y="409"/>
      <point x="147" y="573" type="curve" smooth="yes"/>
      <point x="147" y="1493" type="line"/>
      <point x="350" y="1493" type="line"/>
      <point x="350" y="481" type="line" smooth="yes"/>
      <point x="350" y="408"/>
      <point x="352" y="357"/>
      <point x="356" y="326" type="curve" smooth="yes" name="hr01"/>
      <point x="360" y="295"/>
      <point x="367" y="271"/>
      <point x="377" y="254" type="curve" smooth="yes"/>
      <point x="398" y="215"/>
      <point x="429" y="185"/>
      <point x="470" y="165" type="curve" smooth="yes" name="hr02"/>
      <point x="510" y="145"/>
      <point x="559" y="135"/>
      <point x="616" y="135" type="curve" smooth="yes"/>
      <point x="674" y="135"/>
      <point x="723" y="145"/>
      <point x="763" y="165" type="curve" smooth="yes" name="hr03"/>
      <point x="804" y="186"/>
      <point x="835" y="215"/>
      <point x="856" y="254" type="curve" smooth="yes" name="hr04"/>
      <point x="867" y="274"/>
      <point x="873" y="293"/>
      <point x="877" y="325" type="curve" smooth="yes"/>
      <point x="881" y="356"/>
      <point x="883" y="407"/>
      <point x="883" y="479" type="curve" smooth="yes"/>
      <point x="883" y="1493" type="line"/>
      <point x="1085" y="1493" type="line"/>
      <point x="1085" y="573" type="line" smooth="yes"/>
      <point x="1085" y="397"/>
      <point x="1073" y="309"/>
      <point x="1057" y="249" type="curve" smooth="yes"/>
      <point x="1038" y="182"/>
      <point x="1004" y="129"/>
      <point x="959" y="88" type="curve" smooth="yes"/>
      <point x="915" y="48"/>
      <point x="858" y="19"/>
      <point x="806" y="0" type="curve" smooth="yes"/>
      <point x="757" y="-17"/>
      <point x="695" y="-29"/>
    </contour>
  </outline>
</glyph>
<glyph name="Thorn" format="1">
  <advance width="1233"/>
  <unicode hex="00DE"/>
  <outline>
    <contour>
      <point x="201" y="1493" type="line" name="sh01"/>
      <point x="403" y="1493" type="line" name="sh02"/>
      <point x="403" y="1223" type="line"/>
      <point x="657" y="1223" type="line" smooth="yes" name="dv04"/>
      <point x="830" y="1223"/>
      <point x="958" y="1188" name="sh03"/>
      <point x="1041" y="1118" type="curve" smooth="yes"/>
      <point x="1124" y="1048" name="dv01"/>
      <point x="1165" y="940" name="sh04"/>
      <point x="1165" y="794" type="curve" smooth="yes" name="ab01"/>
      <point x="1165" y="645"/>
      <point x="1122" y="540" name="dv02"/>
      <point x="1041" y="472" type="curve" smooth="yes"/>
      <point x="958" y="402" name="ah02"/>
      <point x="830" y="367"/>
      <point x="657" y="367" type="curve" smooth="yes" name="dv03"/>
      <point x="403" y="367" type="line" name="sh05"/>
      <point x="403" y="0" type="line"/>
      <point x="201" y="0" type="line" name="ah01"/>
    </contour>
    <contour>
      <point x="637" y="532" type="line" smooth="yes" name="sh06"/>
      <point x="742" y="532"/>
      <point x="821" y="554"/>
      <point x="874" y="598" type="curve" smooth="yes"/>
      <point x="926" y="642"/>
      <point x="952" y="708"/>
      <point x="952" y="795" type="curve" smooth="yes"/>
      <point x="952" y="879"/>
      <point x="927" y="948"/>
      <point x="874" y="992" type="curve" smooth="yes"/>
      <point x="826" y="1032"/>
      <point x="748" y="1057"/>
      <point x="637" y="1057" type="curve" smooth="yes"/>
      <point x="403" y="1057" type="line"/>
      <point x="403" y="532" type="line"/>
    </contour>
  </outline>
</glyph>
<glyph name="acircumflex" format="1">
  <advance width="1233"/>
  <unicode hex="00E2"/>
  <outline>
    <contour>
      <point x="546" y="1673" type="line" name="av01"/>
      <point x="693" y="1673" type="line"/>
      <point x="939" y="1297" type="line" name="ih01"/>
      <point x="800" y="1297" type="line"/>
      <point x="619" y="1542" type="line" name="ih02"/>
      <point x="439" y="1297" type="line"/>
      <point x="300" y="1297" type="line" name="ih03"/>
    </contour>
    <contour>
      <point x="513" y="-29" type="curve" smooth="yes" name="dv01"/>
      <point x="397" y="-29"/>
      <point x="305" y="3" name="sh02"/>
      <point x="238" y="68" type="curve" smooth="yes"/>
      <point x="174" y="129"/>
      <point x="136" y="210" name="ah02"/>
      <point x="136" y="327" type="curve" smooth="yes"/>
      <point x="136" y="450"/>
      <point x="178" y="545" name="dv04"/>
      <point x="262" y="610" type="curve" smooth="yes"/>
      <point x="345" y="675" name="ih04"/>
      <point x="467" y="707"/>
      <point x="630" y="707" type="curve" smooth="yes"/>
      <point x="877" y="707" type="line" name="dv05"/>
      <point x="877" y="736" type="line" smooth="yes" name="hr01"/>
      <point x="877" y="821"/>
      <point x="854" y="890"/>
      <point x="809" y="931" type="curve" smooth="yes" name="sh01"/>
      <point x="765" y="971"/>
      <point x="692" y="991" name="sh03"/>
      <point x="596" y="991" type="curve" smooth="yes"/>
      <point x="533" y="991" name="ab01"/>
      <point x="469" y="982"/>
      <point x="405" y="964" type="curve" smooth="yes"/>
      <point x="340" y="946" name="ih05"/>
      <point x="278" y="920"/>
      <point x="218" y="885" type="curve"/>
      <point x="218" y="1069" type="line" name="dv02"/>
      <point x="274" y="1090"/>
      <point x="345" y="1113" name="sh05"/>
      <point x="414" y="1128" type="curve" smooth="yes" name="dv03"/>
      <point x="475" y="1141"/>
      <point x="536" y="1147"/>
      <point x="597" y="1147" type="curve" smooth="yes" name="sh04"/>
      <point x="692" y="1147"/>
      <point x="767" y="1133"/>
      <point x="834" y="1105" type="curve" name="ah01"/>
      <point x="895" y="1078" name="sh06"/>
      <point x="953" y="1037"/>
      <point x="992" y="984" type="curve" smooth="yes"/>
      <point x="1020" y="945"/>
      <point x="1037" y="901"/>
      <point x="1046" y="860" type="curve" smooth="yes"/>
      <point x="1057" y="811"/>
      <point x="1062" y="738"/>
      <point x="1062" y="639" type="curve" smooth="yes"/>
      <point x="1062" y="410" type="line"/>
      <point x="1065" y="333"/>
      <point x="1064" y="277"/>
      <point x="1071" y="226" type="curve" smooth="yes"/>
      <point x="1078" y="170"/>
      <point x="1087" y="116"/>
      <point x="1094" y="91" type="curve"/>
      <point x="1103" y="50"/>
      <point x="1118" y="7"/>
      <point x="1121" y="0" type="curve"/>
      <point x="936" y="0" type="line"/>
      <point x="929" y="16"/>
      <point x="918" y="50"/>
      <point x="909" y="87" type="curve" smooth="yes"/>
      <point x="902" y="116"/>
      <point x="896" y="149"/>
      <point x="893" y="170" type="curve"/>
      <point x="854" y="103"/>
      <point x="788" y="50"/>
      <point x="729" y="19" type="curve" smooth="yes"/>
      <point x="665" y="-14"/>
      <point x="594" y="-29"/>
    </contour>
    <contour>
      <point x="551" y="125" type="curve" smooth="yes"/>
      <point x="652" y="125"/>
      <point x="731" y="160"/>
      <point x="789" y="231" type="curve" smooth="yes" name="hr02"/>
      <point x="848" y="303"/>
      <point x="877" y="400"/>
      <point x="877" y="522" type="curve" smooth="yes"/>
      <point x="877" y="563" type="line"/>
      <point x="644" y="563" type="line" smooth="yes"/>
      <point x="537" y="563"/>
      <point x="457" y="544"/>
      <point x="402" y="507" type="curve" smooth="yes"/>
      <point x="345" y="468"/>
      <point x="320" y="412"/>
      <point x="320" y="337" type="curve" smooth="yes"/>
      <point x="320" y="268"/>
      <point x="342" y="217"/>
      <point x="381" y="181" type="curve" smooth="yes"/>
      <point x="420" y="146"/>
      <point x="474" y="125"/>
    </contour>
  </outline>
</glyph>
<glyph name="adieresis" format="1">
  <advance width="1233"/>
  <unicode hex="00E4"/>
  <outline>
    <contour>
      <point x="352" y="1350" type="line" smooth="yes" name="dv03"/>
      <point x="332" y="1350" name="sh01"/>
      <point x="322" y="1360"/>
      <point x="322" y="1380" type="curve" smooth="yes" name="dv04"/>
      <point x="322" y="1522" type="line" smooth="yes"/>
      <point x="322" y="1542"/>
      <point x="332" y="1552" name="sh02"/>
      <point x="352" y="1552" type="curve" smooth="yes"/>
      <point x="495" y="1552" type="line" smooth="yes" name="sv01"/>
      <point x="515" y="1552" name="sh03"/>
      <point x="525" y="1542"/>
      <point x="525" y="1522" type="curve" smooth="yes" name="sv02"/>
      <point x="525" y="1380" type="line" smooth="yes"/>
      <point x="525" y="1360"/>
      <point x="515" y="1350" name="ih01"/>
      <point x="495" y="1350" type="curve" smooth="yes"/>
    </contour>
    <contour>
      <point x="744" y="1350" type="line" smooth="yes" name="dv01"/>
      <point x="724" y="1350"/>
      <point x="714" y="1360" name="dh01"/>
      <point x="714" y="1380" type="curve" smooth="yes"/>
      <point x="714" y="1522" type="line" smooth="yes"/>
      <point x="714" y="1542" name="dh03"/>
      <point x="724" y="1552"/>
      <point x="744" y="1552" type="curve" smooth="yes"/>
      <point x="886" y="1552" type="line" smooth="yes" name="dv05"/>
      <point x="906" y="1552"/>
      <point x="916" y="1542" name="ih02"/>
      <point x="916" y="1522" type="curve" smooth="yes" name="hr01"/>
      <point x="916" y="1380" type="line" smooth="yes"/>
      <point x="916" y="1360" name="dv06"/>
      <point x="906" y="1350"/>
      <point x="886" y="1350" type="curve" smooth="yes"/>
    </contour>
    <contour>
      <point x="513" y="-29" type="curve" smooth="yes"/>
      <point x="397" y="-29" name="dh04"/>
      <point x="305" y="3"/>
      <point x="238" y="68" type="curve" smooth="yes" name="sh04"/>
      <point x="174" y="129"/>
      <point x="136" y="210" name="ab01"/>
      <point x="136" y="327" type="curve" smooth="yes"/>
      <point x="136" y="450"/>
      <point x="178" y="545" name="ih03"/>
      <point x="262" y="610" type="curve" smooth="yes"/>
      <point x="345" y="675"/>
      <point x="467" y="707" name="dv02"/>
      <point x="630" y="707" type="curve" smooth="yes"/>
      <point x="877" y="707" type="line" name="sh05"/>
      <point x="877" y="736" type="line" smooth="yes" name="dv07"/>
      <point x="877" y="821"/>
      <point x="854" y="890"/>
      <point x="809" y="931" type="curve" smooth="yes" name="dh02"/>
      <point x="765" y="971"/>
      <point x="692" y="991"/>
      <point x="596" y="991" type="curve" smooth="yes"/>
      <point x="533" y="991" name="sh06"/>
      <point x="469" y="982"/>
      <point x="405" y="964" type="curve" smooth="yes"/>
      <point x="340" y="946"/>
      <point x="278" y="920"/>
      <point x="218" y="885" type="curve"/>
      <point x="218" y="1069" type="line"/>
      <point x="274" y="1090"/>
      <point x="345" y="1113"/>
      <point x="414" y="1128" type="curve" smooth="yes"/>
      <point x="475" y="1141"/>
      <point x="536" y="1147"/>
      <point x="597" y="1147" type="curve" smooth="yes"/>
      <point x="692" y="1147"/>
      <point x="767" y="1133"/>
      <point x="834" y="1105" type="curve"/>
      <point x="895" y="1078"/>
      <point x="953" y="1037"/>
      <point x="992" y="984" type="curve" smooth="yes"/>
      <point x="1020" y="945"/>
      <point x="1037" y="901"/>
      <point x="1046" y="860" type="curve" smooth="yes"/>
      <point x="1057" y="811"/>
      <point x="1062" y="738"/>
      <point x="1062" y="639" type="curve" smooth="yes"/>
      <point x="1062" y="410" type="line"/>
      <point x="1065" y="333"/>
      <point x="1064" y="277"/>
      <point x="1071" y="226" type="curve" smooth="yes" name="hr02"/>
      <point x="1078" y="170"/>
      <point x="1087" y="116"/>
      <point x="1094" y="91" type="curve"/>
      <point x="1103" y="50"/>
      <point x="1118" y="7"/>
      <point x="1121" y="0" type="curve"/>
      <point x="936" y="0" type="line"/>
      <point x="929" y="16"/>
      <point x="918" y="50"/>
      <point x="909" y="87" type="curve" smooth="yes"/>
      <point x="902" y="116"/>
      <point x="896" y="149"/>
      <point x="893" y="170" type="curve"/>
      <point x="854" y="103"/>
      <point x="788" y="50"/>
      <point x="729" y="19" type="curve" smooth="yes"/>
      <point x="665" y="-14"/>
      <point x="594" y="-29"/>
    </contour>
    <contour>
      <point x="551" y="125" type="curve" smooth="yes"/>
      <point x="652" y="125"/>
      <point x="731" y="160"/>
      <point x="789" y="231" type="curve" smooth="yes"/>
      <point x="848" y="303"/>
      <point x="877" y="400"/>
      <point x="877" y="522" type="curve" smooth="yes"/>
      <point x="877" y="563" type="line"/>
      <point x="644" y="563" type="line" smooth="yes"/>
      <point x="537" y="563"/>
      <point x="457" y="544"/>
      <point x="402" y="507" type="curve" smooth="yes"/>
      <point x="345" y="468"/>
      <point x="320" y="412"/>
      <point x="320" y="337" type="curve" smooth="yes"/>
      <point x="320" y="268"/>
      <point x="342" y="217"/>
      <point x="381" y="181" type="curve" smooth="yes"/>
      <point x="420" y="146"/>
      <point x="474" y="125"/>
    </contour>
  </outline>
</glyph>
<glyph name="aring" format="1">
  <advance width="1233"/>
  <unicode hex="00E5"/>
  <outline>
    <contour>
      <point x="619" y="1249" type="curve" smooth="yes" name="dv05"/>
      <point x="543" y="1249"/>
      <point x="478" y="1276" name="dh05"/>
      <point x="425" y="1329" type="curve" smooth="yes"/>
      <point x="372" y="1382" name="dv04"/>
      <point x="345" y="1447"/>
      <point x="345" y="1524" type="curve" smooth="yes" name="ih01"/>
      <point x="345" y="1601"/>
      <point x="372" y="1666"/>
      <point x="425" y="1719" type="curve" smooth="yes" name="dv06"/>
      <point x="478" y="1772"/>
      <point x="542" y="1798" name="sh01"/>
      <point x="619" y="1798" type="curve" smooth="yes"/>
      <point x="697" y="1798" name="dv03"/>
      <point x="762" y="1772"/>
      <point x="815" y="1719" type="curve" smooth="yes" name="dh06"/>
      <point x="868" y="1666"/>
      <point x="894" y="1601"/>
      <point x="894" y="1524" type="curve" smooth="yes" name="dv01"/>
      <point x="894" y="1447"/>
      <point x="868" y="1382" name="dh01"/>
      <point x="815" y="1329" type="curve" smooth="yes"/>
      <point x="762" y="1276"/>
      <point x="696" y="1249" name="dh03"/>
    </contour>
    <contour>
      <point x="619" y="1372" type="curve" smooth="yes"/>
      <point x="662" y="1372" name="dv08"/>
      <point x="698" y="1387"/>
      <point x="727" y="1416" type="curve" smooth="yes" name="ih02"/>
      <point x="756" y="1445"/>
      <point x="771" y="1481"/>
      <point x="771" y="1524" type="curve" smooth="yes" name="dv09"/>
      <point x="771" y="1566"/>
      <point x="756" y="1602"/>
      <point x="727" y="1631" type="curve" smooth="yes"/>
      <point x="698" y="1660" name="dh04"/>
      <point x="661" y="1675"/>
      <point x="618" y="1675" type="curve" smooth="yes" name="sh02"/>
      <point x="576" y="1675"/>
      <point x="541" y="1661" name="ab01"/>
      <point x="512" y="1632" type="curve" smooth="yes"/>
      <point x="483" y="1603"/>
      <point x="468" y="1567" name="sh03"/>
      <point x="468" y="1524" type="curve" smooth="yes"/>
      <point x="468" y="1481"/>
      <point x="483" y="1445" name="dv02"/>
      <point x="512" y="1416" type="curve" smooth="yes"/>
      <point x="541" y="1387" name="sh04"/>
      <point x="577" y="1372" name="dv07"/>
    </contour>
    <contour>
      <point x="513" y="-29" type="curve" smooth="yes"/>
      <point x="397" y="-29" name="dh02"/>
      <point x="305" y="3"/>
      <point x="238" y="68" type="curve" smooth="yes"/>
      <point x="174" y="129"/>
      <point x="136" y="210" name="sh05"/>
      <point x="136" y="327" type="curve" smooth="yes"/>
      <point x="136" y="450"/>
      <point x="178" y="545"/>
      <point x="262" y="610" type="curve" smooth="yes"/>
      <point x="345" y="675"/>
      <point x="467" y="707"/>
      <point x="630" y="707" type="curve" smooth="yes"/>
      <point x="877" y="707" type="line"/>
      <point x="877" y="736" type="line" smooth="yes"/>
      <point x="877" y="821"/>
      <point x="854" y="890"/>
      <point x="809" y="931" type="curve" smooth="yes"/>
      <point x="765" y="971"/>
      <point x="692" y="991"/>
      <point x="596" y="991" type="curve" smooth="yes"/>
      <point x="533" y="991"/>
      <point x="469" y="982"/>
      <point x="405" y="964" type="curve" smooth="yes"/>
      <point x="340" y="946"/>
      <point x="278" y="920"/>
      <point x="218" y="885" type="curve"/>
      <point x="218" y="1069" type="line"/>
      <point x="274" y="1090"/>
      <point x="345" y="1113"/>
      <point x="414" y="1128" type="curve" smooth="yes"/>
      <point x="475" y="1141"/>
      <point x="536" y="1147"/>
      <point x="597" y="1147" type="curve" smooth="yes"/>
      <point x="692" y="1147"/>
      <point x="767" y="1133"/>
      <point x="834" y="1105" type="curve"/>
      <point x="895" y="1078"/>
      <point x="953" y="1037"/>
      <point x="992" y="984" type="curve" smooth="yes"/>
      <point x="1020" y="945"/>
      <point x="1037" y="901"/>
      <point x="1046" y="860" type="curve" smooth="yes"/>
      <point x="1057" y="811"/>
      <point x="1062" y="738"/>
      <point x="1062" y="639" type="curve" smooth="yes" name="hr02"/>
      <point x="1062" y="410" type="line"/>
      <point x="1065" y="333"/>
      <point x="1064" y="277"/>
      <point x="1071" y="226" type="curve" smooth="yes"/>
      <point x="1078" y="170"/>
      <point x="1087" y="116"/>
      <point x="1094" y="91" type="curve"/>
      <point x="1103" y="50"/>
      <point x="1118" y="7"/>
      <point x="1121" y="0" type="curve"/>
      <point x="936" y="0" type="line"/>
      <point x="929" y="16"/>
      <point x="918" y="50"/>
      <point x="909" y="87" type="curve" smooth="yes"/>
      <point x="902" y="116"/>
      <point x="896" y="149"/>
      <point x="893" y="170" type="curve"/>
      <point x="854" y="103"/>
      <point x="788" y="50"/>
      <point x="729" y="19" type="curve" smooth="yes"/>
      <point x="665" y="-14"/>
      <point x="594" y="-29"/>
    </contour>
    <contour>
      <point x="551" y="125" type="curve" smooth="yes"/>
      <point x="652" y="125"/>
      <point x="731" y="160"/>
      <point x="789" y="231" type="curve" smooth="yes"/>
      <point x="848" y="303"/>
      <point x="877" y="400"/>
      <point x="877" y="522" type="curve" smooth="yes"/>
      <point x="877" y="563" type="line"/>
      <point x="644" y="563" type="line" smooth="yes"/>
      <point x="537" y="563"/>
      <point x="457" y="544"/>
      <point x="402" y="507" type="curve" smooth="yes"/>
      <point x="345" y="468"/>
      <point x="320" y="412"/>
      <point x="320" y="337" type="curve" smooth="yes"/>
      <point x="320" y="268"/>
      <point x="342" y="217"/>
      <point x="381" y="181" type="curve" smooth="yes"/>
      <point x="420" y="146"/>
      <point x="474" y="125"/>
    </contour>
  </outline>
</glyph>
<glyph name="ae" format="1">
  <advance width="1233"/>
  <unicode hex="00E6"/>
  <outline>
    <contour>
      <point x="358" y="-29" type="curve" smooth="yes" name="dv01"/>
      <point x="255" y="-29"/>
      <point x="177" y="0" name="dh01"/>
      <point x="123" y="57" type="curve" smooth="yes"/>
      <point x="66" y="117" name="sv01"/>
      <point x="41" y="201" name="dh05"/>
      <point x="41" y="304" type="curve" smooth="yes"/>
      <point x="41" y="417"/>
      <point x="70" y="505" name="dv03"/>
      <point x="141" y="568" type="curve" smooth="yes"/>
      <point x="208" y="627" name="ih01"/>
      <point x="305" y="657"/>
      <point x="432" y="657" type="curve" smooth="yes"/>
      <point x="549" y="657" type="line" name="dv04"/>
      <point x="549" y="745" type="line" smooth="yes"/>
      <point x="549" y="825" name="ih02"/>
      <point x="533" y="886"/>
      <point x="500" y="929" type="curve" smooth="yes" name="sv02"/>
      <point x="467" y="972"/>
      <point x="420" y="993" name="dh04"/>
      <point x="357" y="993" type="curve" smooth="yes" name="dv05"/>
      <point x="318" y="993"/>
      <point x="273" y="985" name="sh01"/>
      <point x="234" y="972" type="curve" smooth="yes" name="dh06"/>
      <point x="194" y="959"/>
      <point x="147" y="938" name="sv03"/>
      <point x="106" y="911" type="curve"/>
      <point x="106" y="1079" type="line" name="ih03"/>
      <point x="157" y="1102"/>
      <point x="205" y="1120"/>
      <point x="249" y="1131" type="curve" smooth="yes" name="sv04"/>
      <point x="292" y="1142"/>
      <point x="334" y="1147" name="ih04"/>
      <point x="376" y="1147" type="curve" smooth="yes"/>
      <point x="437" y="1147"/>
      <point x="487" y="1137" name="dh03"/>
      <point x="528" y="1116" type="curve" smooth="yes"/>
      <point x="569" y="1095"/>
      <point x="602" y="1063" name="sv05"/>
      <point x="627" y="1020" type="curve"/>
      <point x="649" y="1061" name="sh02"/>
      <point x="682" y="1092"/>
      <point x="726" y="1114" type="curve" smooth="yes" name="dv02"/>
      <point x="770" y="1136"/>
      <point x="822" y="1147" name="sh03"/>
      <point x="882" y="1147" type="curve" smooth="yes" name="sv06"/>
      <point x="995" y="1147"/>
      <point x="1080" y="1109"/>
      <point x="1128" y="1029" type="curve" smooth="yes" name="dh02"/>
      <point x="1176" y="950"/>
      <point x="1200" y="808"/>
      <point x="1200" y="604" type="curve" smooth="yes"/>
      <point x="1200" y="514" type="line" name="sh04"/>
      <point x="709" y="514" type="line"/>
      <point x="708" y="503"/>
      <point x="708" y="493"/>
      <point x="708" y="482" type="curve" smooth="yes"/>
      <point x="708" y="478"/>
      <point x="707" y="474"/>
      <point x="707" y="443" type="curve" smooth="yes"/>
      <point x="707" y="312"/>
      <point x="726" y="241"/>
      <point x="758" y="196" type="curve" smooth="yes"/>
      <point x="794" y="145"/>
      <point x="848" y="125"/>
      <point x="923" y="125" type="curve" smooth="yes"/>
      <point x="973" y="125"/>
      <point x="1020" y="134"/>
      <point x="1064" y="151" type="curve" smooth="yes"/>
      <point x="1107" y="168"/>
      <point x="1145" y="194"/>
      <point x="1178" y="227" type="curve"/>
      <point x="1178" y="55" type="line"/>
      <point x="1139" y="27"/>
      <point x="1096" y="5"/>
      <point x="1057" y="-8" type="curve" smooth="yes"/>
      <point x="1018" y="-21"/>
      <point x="969" y="-29"/>
      <point x="917" y="-29" type="curve" smooth="yes"/>
      <point x="849" y="-29"/>
      <point x="785" y="-15"/>
      <point x="736" y="12" type="curve" smooth="yes"/>
      <point x="686" y="39"/>
      <point x="650" y="79"/>
      <point x="629" y="131" type="curve"/>
      <point x="603" y="78"/>
      <point x="568" y="38"/>
      <point x="524" y="11" type="curve" smooth="yes"/>
      <point x="479" y="-16"/>
      <point x="426" y="-29"/>
    </contour>
    <contour>
      <point x="1036" y="657" type="line"/>
      <point x="1036" y="709" type="line" smooth="yes"/>
      <point x="1036" y="813"/>
      <point x="1022" y="884"/>
      <point x="998" y="927" type="curve" smooth="yes"/>
      <point x="975" y="967"/>
      <point x="935" y="993"/>
      <point x="872" y="993" type="curve" smooth="yes"/>
      <point x="814" y="993"/>
      <point x="772" y="970"/>
      <point x="747" y="925" type="curve" smooth="yes"/>
      <point x="722" y="880"/>
      <point x="709" y="805"/>
      <point x="709" y="700" type="curve" smooth="yes"/>
      <point x="709" y="657" type="line"/>
    </contour>
    <contour>
      <point x="375" y="125" type="curve" smooth="yes"/>
      <point x="438" y="125"/>
      <point x="481" y="147"/>
      <point x="506" y="192" type="curve" smooth="yes"/>
      <point x="529" y="235"/>
      <point x="543" y="306"/>
      <point x="543" y="442" type="curve" smooth="yes"/>
      <point x="543" y="514" type="line"/>
      <point x="494" y="514" type="line" smooth="yes"/>
      <point x="381" y="514"/>
      <point x="305" y="499"/>
      <point x="265" y="469" type="curve" smooth="yes"/>
      <point x="225" y="438"/>
      <point x="205" y="385"/>
      <point x="205" y="313" type="curve" smooth="yes"/>
      <point x="205" y="252"/>
      <point x="220" y="206"/>
      <point x="250" y="174" type="curve" smooth="yes"/>
      <point x="280" y="141"/>
      <point x="322" y="125"/>
    </contour>
  </outline>
</glyph>
<glyph name="edieresis" format="1">
  <advance width="1233"/>
  <unicode hex="00EB"/>
  <outline>
    <contour>
      <point x="364" y="1350" type="line" smooth="yes" name="dv03"/>
      <point x="344" y="1350"/>
      <point x="334" y="1360"/>
      <point x="334" y="1380" type="curve" smooth="yes" name="dv04"/>
      <point x="334" y="1522" type="line" smooth="yes"/>
      <point x="334" y="1542"/>
      <point x="344" y="1552" name="sh02"/>
      <point x="364" y="1552" type="curve" smooth="yes"/>
      <point x="507" y="1552" type="line" smooth="yes" name="sv01"/>
      <point x="527" y="1552" name="dh03"/>
      <point x="537" y="1542"/>
      <point x="537" y="1522" type="curve" smooth="yes" name="sv02"/>
      <point x="537" y="1380" type="line" smooth="yes"/>
      <point x="537" y="1360"/>
      <point x="527" y="1350" name="dh04"/>
      <point x="507" y="1350" type="curve" smooth="yes"/>
    </contour>
    <contour>
      <point x="756" y="1350" type="line" smooth="yes" name="dv01"/>
      <point x="736" y="1350"/>
      <point x="726" y="1360" name="dh01"/>
      <point x="726" y="1380" type="curve" smooth="yes"/>
      <point x="726" y="1522" type="line" smooth="yes" name="dv06"/>
      <point x="726" y="1542"/>
      <point x="736" y="1552" name="sh03"/>
      <point x="756" y="1552" type="curve" smooth="yes"/>
      <point x="898" y="1552" type="line" smooth="yes" name="dh02"/>
      <point x="918" y="1552"/>
      <point x="928" y="1542"/>
      <point x="928" y="1522" type="curve" smooth="yes" name="dv02"/>
      <point x="928" y="1380" type="line" smooth="yes"/>
      <point x="928" y="1360" name="ih01"/>
      <point x="918" y="1350"/>
      <point x="898" y="1350" type="curve" smooth="yes"/>
    </contour>
    <contour>
      <point x="677" y="-29" type="curve" smooth="yes"/>
      <point x="505" y="-29" name="sh04"/>
      <point x="367" y="24"/>
      <point x="271" y="127" type="curve" smooth="yes" name="dv05"/>
      <point x="175" y="230"/>
      <point x="124" y="375" name="sh01"/>
      <point x="124" y="558" type="curve" smooth="yes"/>
      <point x="124" y="746" name="sh05"/>
      <point x="178" y="887"/>
      <point x="267" y="987" type="curve" smooth="yes"/>
      <point x="364" y="1095"/>
      <point x="498" y="1147"/>
      <point x="649" y="1147" type="curve" smooth="yes"/>
      <point x="798" y="1147"/>
      <point x="910" y="1096"/>
      <point x="990" y="1003" type="curve" smooth="yes"/>
      <point x="1070" y="910"/>
      <point x="1113" y="777"/>
      <point x="1113" y="606" type="curve" smooth="yes"/>
      <point x="1113" y="516" type="line"/>
      <point x="316" y="516" type="line"/>
      <point x="316" y="510" type="line" smooth="yes"/>
      <point x="316" y="388"/>
      <point x="348" y="294"/>
      <point x="412" y="227" type="curve" smooth="yes"/>
      <point x="473" y="163"/>
      <point x="559" y="127"/>
      <point x="680" y="127" type="curve" smooth="yes"/>
      <point x="741" y="127"/>
      <point x="802" y="136"/>
      <point x="865" y="155" type="curve" smooth="yes"/>
      <point x="930" y="174"/>
      <point x="998" y="203"/>
      <point x="1070" y="240" type="curve"/>
      <point x="1070" y="57" type="line"/>
      <point x="999" y="28"/>
      <point x="923" y="4"/>
      <point x="868" y="-8" type="curve" smooth="yes"/>
      <point x="804" y="-23"/>
      <point x="740" y="-29"/>
    </contour>
    <contour>
      <point x="929" y="660" type="line"/>
      <point x="926" y="775"/>
      <point x="897" y="856"/>
      <point x="853" y="907" type="curve" smooth="yes"/>
      <point x="805" y="963"/>
      <point x="733" y="991"/>
      <point x="645" y="991" type="curve" smooth="yes"/>
      <point x="555" y="991"/>
      <point x="482" y="962"/>
      <point x="425" y="903" type="curve" smooth="yes"/>
      <point x="368" y="844"/>
      <point x="334" y="762"/>
      <point x="323" y="659" type="curve"/>
    </contour>
  </outline>
</glyph>
<glyph name="igrave" format="1">
  <advance width="1233"/>
  <unicode hex="00EC"/>
  <outline>
    <contour>
      <point x="218" y="1647" type="line" name="av01"/>
      <point x="416" y="1647" type="line"/>
      <point x="697" y="1271" type="line" name="iv01"/>
      <point x="543" y="1271" type="line"/>
    </contour>
    <contour>
      <point x="859" y="-8" type="line" smooth="yes" name="ab01"/>
      <point x="752" y="-8"/>
      <point x="668" y="23" name="sh01"/>
      <point x="604" y="98" type="curve" smooth="yes" name="sv01"/>
      <point x="543" y="169"/>
      <point x="513" y="269" name="dh01"/>
      <point x="513" y="398" type="curve" smooth="yes" name="dh02"/>
      <point x="513" y="976" type="line"/>
      <point x="268" y="976" type="line" name="hr01"/>
      <point x="268" y="1120" type="line" name="sv02"/>
      <point x="697" y="1120" type="line"/>
      <point x="697" y="398" type="line" smooth="yes"/>
      <point x="697" y="315"/>
      <point x="712" y="252"/>
      <point x="743" y="211" type="curve" smooth="yes"/>
      <point x="775" y="167"/>
      <point x="820" y="148"/>
      <point x="877" y="148" type="curve" smooth="yes"/>
      <point x="1092" y="148" type="line"/>
      <point x="1092" y="-8" type="line"/>
    </contour>
  </outline>
</glyph>
<glyph name="icircumflex" format="1">
  <advance width="1233"/>
  <unicode hex="00EE"/>
  <outline>
    <contour>
      <point x="514" y="1648" type="line" name="av01"/>
      <point x="661" y="1648" type="line"/>
      <point x="907" y="1272" type="line" name="iv01"/>
      <point x="768" y="1272" type="line"/>
      <point x="587" y="1517" type="line" name="ih01"/>
      <point x="407" y="1272" type="line"/>
      <point x="268" y="1272" type="line" name="iv02"/>
    </contour>
    <contour>
      <point x="859" y="-8" type="line" smooth="yes" name="ab01"/>
      <point x="752" y="-8"/>
      <point x="668" y="23" name="sh01"/>
      <point x="604" y="98" type="curve" smooth="yes" name="sv01"/>
      <point x="543" y="169"/>
      <point x="513" y="269" name="dh01"/>
      <point x="513" y="398" type="curve" smooth="yes" name="dh02"/>
      <point x="513" y="976" type="line"/>
      <point x="268" y="976" type="line"/>
      <point x="268" y="1120" type="line" name="sv02"/>
      <point x="697" y="1120" type="line"/>
      <point x="697" y="398" type="line" smooth="yes"/>
      <point x="697" y="315"/>
      <point x="712" y="252"/>
      <point x="743" y="211" type="curve" smooth="yes"/>
      <point x="775" y="167"/>
      <point x="820" y="148"/>
      <point x="877" y="148" type="curve" smooth="yes"/>
      <point x="1092" y="148" type="line"/>
      <point x="1092" y="-8" type="line"/>
    </contour>
  </outline>
</glyph>
<glyph name="idieresis" format="1">
  <advance width="1233"/>
  <unicode hex="00EF"/>
  <outline>
    <contour>
      <point x="328" y="1350" type="line" smooth="yes" name="dv01"/>
      <point x="308" y="1350" name="ih01"/>
      <point x="298" y="1360"/>
      <point x="298" y="1380" type="curve" smooth="yes" name="dv02"/>
      <point x="298" y="1522" type="line" smooth="yes"/>
      <point x="298" y="1542"/>
      <point x="308" y="1552" name="sh01"/>
      <point x="328" y="1552" type="curve" smooth="yes"/>
      <point x="471" y="1552" type="line" smooth="yes" name="sv01"/>
      <point x="491" y="1552" name="sh02"/>
      <point x="501" y="1542"/>
      <point x="501" y="1522" type="curve" smooth="yes" name="sv02"/>
      <point x="501" y="1380" type="line" smooth="yes"/>
      <point x="501" y="1360"/>
      <point x="491" y="1350" name="sh03"/>
      <point x="471" y="1350" type="curve" smooth="yes"/>
    </contour>
    <contour>
      <point x="720" y="1350" type="line" smooth="yes" name="ab01"/>
      <point x="700" y="1350"/>
      <point x="690" y="1360" name="sh04"/>
      <point x="690" y="1380" type="curve" smooth="yes" name="sv03"/>
      <point x="690" y="1522" type="line" smooth="yes"/>
      <point x="690" y="1542" name="dh01"/>
      <point x="700" y="1552" name="dh02"/>
      <point x="720" y="1552" type="curve" smooth="yes"/>
      <point x="862" y="1552" type="line" smooth="yes"/>
      <point x="882" y="1552" name="sv04"/>
      <point x="892" y="1542"/>
      <point x="892" y="1522" type="curve" smooth="yes" name="hr02"/>
      <point x="892" y="1380" type="line" smooth="yes"/>
      <point x="892" y="1360"/>
      <point x="882" y="1350"/>
      <point x="862" y="1350" type="curve" smooth="yes"/>
    </contour>
    <contour>
      <point x="859" y="-8" type="line" smooth="yes"/>
      <point x="752" y="-8"/>
      <point x="668" y="23"/>
      <point x="604" y="98" type="curve" smooth="yes"/>
      <point x="543" y="169"/>
      <point x="513" y="269"/>
      <point x="513" y="398" type="curve" smooth="yes"/>
      <point x="513" y="976" type="line"/>
      <point x="268" y="976" type="line"/>
      <point x="268" y="1120" type="line"/>
      <point x="697" y="1120" type="line"/>
      <point x="697" y="398" type="line" smooth="yes"/>
      <point x="697" y="315"/>
      <point x="712" y="252"/>
      <point x="743" y="211" type="curve" smooth="yes"/>
      <point x="775" y="167"/>
      <point x="820" y="148"/>
      <point x="877" y="148" type="curve" smooth="yes"/>
      <point x="1092" y="148" type="line"/>
      <point x="1092" y="-8" type="line"/>
    </contour>
  </outline>
</glyph>
<glyph name="ntilde" format="1">
  <advance width="1233"/>
  <unicode hex="00F1"/>
  <outline>
    <contour>
      <point x="287" y="1286" type="line" name="sv01"/>
      <point x="288" y="1376"/>
      <point x="306" y="1445" name="at01"/>
      <point x="339" y="1494" type="curve" smooth="yes" name="at02"/>
      <point x="373" y="1543"/>
      <point x="420" y="1568"/>
      <point x="480" y="1568" type="curve" smooth="yes"/>
      <point x="506" y="1568"/>
      <point x="530" y="1563"/>
      <point x="552" y="1554" type="curve" smooth="yes" name="at03"/>
      <point x="572" y="1545"/>
      <point x="595" y="1530"/>
      <point x="621" y="1507" type="curve" name="sv02"/>
      <point x="678" y="1452" type="line"/>
      <point x="693" y="1439"/>
      <point x="708" y="1428"/>
      <point x="716" y="1423" type="curve" smooth="yes"/>
      <point x="729" y="1415"/>
      <point x="735" y="1413"/>
      <point x="746" y="1413" type="curve" smooth="yes"/>
      <point x="771" y="1413" name="sh01"/>
      <point x="790" y="1425"/>
      <point x="802" y="1450" type="curve" smooth="yes" name="sh02"/>
      <point x="813" y="1474"/>
      <point x="820" y="1513" name="dv02"/>
      <point x="821" y="1568" type="curve"/>
      <point x="946" y="1568" type="line"/>
      <point x="945" y="1478" name="sh03"/>
      <point x="927" y="1409" name="ah02"/>
      <point x="894" y="1360" type="curve" smooth="yes"/>
      <point x="860" y="1311"/>
      <point x="813" y="1286" name="dv01"/>
      <point x="753" y="1286" type="curve" smooth="yes"/>
      <point x="727" y="1286" name="sh04"/>
      <point x="703" y="1291" name="ab01"/>
      <point x="681" y="1300" type="curve" smooth="yes"/>
      <point x="661" y="1309" name="ah01"/>
      <point x="638" y="1324" name="sh05"/>
      <point x="612" y="1347" type="curve" name="hr01"/>
      <point x="555" y="1402" type="line" smooth="yes"/>
      <point x="538" y="1418"/>
      <point x="525" y="1427"/>
      <point x="517" y="1432" type="curve" smooth="yes"/>
      <point x="505" y="1439"/>
      <point x="498" y="1441"/>
      <point x="487" y="1441" type="curve" smooth="yes"/>
      <point x="462" y="1441"/>
      <point x="443" y="1429"/>
      <point x="431" y="1404" type="curve" smooth="yes"/>
      <point x="418" y="1378"/>
      <point x="412" y="1339"/>
      <point x="411" y="1286" type="curve"/>
    </contour>
    <contour>
      <point x="195" y="1120" type="line"/>
      <point x="361" y="1120" type="line"/>
      <point x="379" y="952" type="line"/>
      <point x="412" y="1017"/>
      <point x="457" y="1065"/>
      <point x="512" y="1098" type="curve" smooth="yes"/>
      <point x="567" y="1131"/>
      <point x="633" y="1147"/>
      <point x="710" y="1147" type="curve" smooth="yes"/>
      <point x="830" y="1147"/>
      <point x="912" y="1107"/>
      <point x="967" y="1035" type="curve" smooth="yes"/>
      <point x="1023" y="960"/>
      <point x="1051" y="846"/>
      <point x="1051" y="694" type="curve" smooth="yes"/>
      <point x="1051" y="0" type="line"/>
      <point x="866" y="0" type="line"/>
      <point x="866" y="694" type="line" smooth="yes"/>
      <point x="866" y="795"/>
      <point x="848" y="869"/>
      <point x="813" y="916" type="curve" smooth="yes"/>
      <point x="778" y="963"/>
      <point x="722" y="987"/>
      <point x="646" y="987" type="curve" smooth="yes"/>
      <point x="558" y="987"/>
      <point x="494" y="956"/>
      <point x="449" y="896" type="curve" smooth="yes"/>
      <point x="402" y="835"/>
      <point x="379" y="748"/>
      <point x="379" y="633" type="curve" smooth="yes"/>
      <point x="379" y="0" type="line"/>
      <point x="195" y="0" type="line"/>
    </contour>
  </outline>
</glyph>
<glyph name="ograve" format="1">
  <advance width="1233"/>
  <unicode hex="00F2"/>
  <outline>
    <contour>
      <point x="279" y="1673" type="line" name="ih01"/>
      <point x="477" y="1673" type="line"/>
      <point x="758" y="1297" type="line" name="ih02"/>
      <point x="604" y="1297" type="line"/>
    </contour>
    <contour>
      <point x="616" y="-29" type="curve" smooth="yes" name="dv01"/>
      <point x="463" y="-29"/>
      <point x="343" y="21" name="sh01"/>
      <point x="260" y="121" type="curve"/>
      <point x="176" y="225" name="dv04"/>
      <point x="137" y="373"/>
      <point x="137" y="560" type="curve" smooth="yes" name="sh03"/>
      <point x="137" y="749"/>
      <point x="178" y="895"/>
      <point x="260" y="996" type="curve" smooth="yes" name="dv02"/>
      <point x="342" y="1097"/>
      <point x="461" y="1147" name="ah02"/>
      <point x="616" y="1147" type="curve" smooth="yes"/>
      <point x="776" y="1147" name="dv03"/>
      <point x="893" y="1095"/>
      <point x="973" y="996" type="curve" smooth="yes" name="sh02"/>
      <point x="1055" y="895"/>
      <point x="1096" y="750"/>
      <point x="1096" y="561" type="curve" smooth="yes" name="ah01"/>
      <point x="1096" y="370" name="sh04"/>
      <point x="1056" y="221"/>
      <point x="973" y="121" type="curve"/>
      <point x="893" y="22"/>
      <point x="773" y="-29"/>
    </contour>
    <contour>
      <point x="616" y="127" type="curve" smooth="yes"/>
      <point x="710" y="127"/>
      <point x="781" y="164"/>
      <point x="829" y="237" type="curve" smooth="yes"/>
      <point x="877" y="310"/>
      <point x="901" y="417"/>
      <point x="901" y="559" type="curve" smooth="yes"/>
      <point x="901" y="701"/>
      <point x="877" y="809"/>
      <point x="829" y="882" type="curve" smooth="yes"/>
      <point x="781" y="955"/>
      <point x="710" y="991"/>
      <point x="616" y="991" type="curve" smooth="yes"/>
      <point x="523" y="991"/>
      <point x="452" y="955"/>
      <point x="404" y="882" type="curve" smooth="yes"/>
      <point x="356" y="809"/>
      <point x="332" y="701"/>
      <point x="332" y="559" type="curve" smooth="yes"/>
      <point x="332" y="417"/>
      <point x="356" y="310"/>
      <point x="404" y="237" type="curve" smooth="yes"/>
      <point x="452" y="164"/>
      <point x="523" y="127"/>
    </contour>
  </outline>
</glyph>
<glyph name="otilde" format="1">
  <advance width="1233"/>
  <unicode hex="00F5"/>
  <outline>
    <contour>
      <point x="287" y="1286" type="line" name="sv01"/>
      <point x="288" y="1376" name="sh03"/>
      <point x="306" y="1445" name="at01"/>
      <point x="339" y="1494" type="curve" smooth="yes" name="at02"/>
      <point x="373" y="1543"/>
      <point x="420" y="1568"/>
      <point x="480" y="1568" type="curve" smooth="yes"/>
      <point x="506" y="1568"/>
      <point x="530" y="1563"/>
      <point x="552" y="1554" type="curve" smooth="yes" name="at03"/>
      <point x="572" y="1545"/>
      <point x="595" y="1530" name="sh04"/>
      <point x="621" y="1507" type="curve" name="sv02"/>
      <point x="678" y="1452" type="line"/>
      <point x="693" y="1439"/>
      <point x="708" y="1428"/>
      <point x="716" y="1423" type="curve" smooth="yes"/>
      <point x="729" y="1415"/>
      <point x="735" y="1413"/>
      <point x="746" y="1413" type="curve" smooth="yes"/>
      <point x="771" y="1413" name="dv01"/>
      <point x="790" y="1425"/>
      <point x="802" y="1450" type="curve" smooth="yes" name="sh01"/>
      <point x="813" y="1474"/>
      <point x="820" y="1513" name="dv04"/>
      <point x="821" y="1568" type="curve"/>
      <point x="946" y="1568" type="line" name="sh05"/>
      <point x="945" y="1478"/>
      <point x="927" y="1409"/>
      <point x="894" y="1360" type="curve" smooth="yes" name="dv02"/>
      <point x="860" y="1311"/>
      <point x="813" y="1286" name="ah02"/>
      <point x="753" y="1286" type="curve" smooth="yes"/>
      <point x="727" y="1286" name="dv03"/>
      <point x="703" y="1291"/>
      <point x="681" y="1300" type="curve" smooth="yes" name="sh02"/>
      <point x="661" y="1309"/>
      <point x="638" y="1324"/>
      <point x="612" y="1347" type="curve" name="ah01"/>
      <point x="555" y="1402" type="line" smooth="yes" name="sh06"/>
      <point x="538" y="1418"/>
      <point x="525" y="1427"/>
      <point x="517" y="1432" type="curve" smooth="yes"/>
      <point x="505" y="1439"/>
      <point x="498" y="1441"/>
      <point x="487" y="1441" type="curve" smooth="yes"/>
      <point x="462" y="1441"/>
      <point x="443" y="1429"/>
      <point x="431" y="1404" type="curve" smooth="yes"/>
      <point x="418" y="1378"/>
      <point x="412" y="1339"/>
      <point x="411" y="1286" type="curve"/>
    </contour>
    <contour>
      <point x="616" y="-29" type="curve" smooth="yes"/>
      <point x="463" y="-29"/>
      <point x="343" y="21"/>
      <point x="260" y="121" type="curve"/>
      <point x="176" y="225"/>
      <point x="137" y="373"/>
      <point x="137" y="560" type="curve" smooth="yes"/>
      <point x="137" y="749"/>
      <point x="178" y="895"/>
      <point x="260" y="996" type="curve" smooth="yes"/>
      <point x="342" y="1097"/>
      <point x="461" y="1147"/>
      <point x="616" y="1147" type="curve" smooth="yes"/>
      <point x="776" y="1147"/>
      <point x="893" y="1095"/>
      <point x="973" y="996" type="curve" smooth="yes"/>
      <point x="1055" y="895"/>
      <point x="1096" y="750"/>
      <point x="1096" y="561" type="curve" smooth="yes"/>
      <point x="1096" y="370"/>
      <point x="1056" y="221"/>
      <point x="973" y="121" type="curve"/>
      <point x="893" y="22"/>
      <point x="773" y="-29"/>
    </contour>
    <contour>
      <point x="616" y="127" type="curve" smooth="yes"/>
      <point x="710" y="127"/>
      <point x="781" y="164"/>
      <point x="829" y="237" type="curve" smooth="yes"/>
      <point x="877" y="310"/>
      <point x="901" y="417"/>
      <point x="901" y="559" type="curve" smooth="yes"/>
      <point x="901" y="701"/>
      <point x="877" y="809"/>
      <point x="829" y="882" type="curve" smooth="yes"/>
      <point x="781" y="955"/>
      <point x="710" y="991"/>
      <point x="616" y="991" type="curve" smooth="yes"/>
      <point x="523" y="991"/>
      <point x="452" y="955"/>
      <point x="404" y="882" type="curve" smooth="yes"/>
      <point x="356" y="809"/>
      <point x="332" y="701"/>
      <point x="332" y="559" type="curve" smooth="yes"/>
      <point x="332" y="417"/>
      <point x="356" y="310"/>
      <point x="404" y="237" type="curve" smooth="yes"/>
      <point x="452" y="164"/>
      <point x="523" y="127"/>
    </contour>
  </outline>
</glyph>
<glyph name="divide" format="1">
  <advance width="1233"/>
  <unicode hex="00F7"/>
  <outline>
    <contour>
      <point x="524" y="889" type="line" smooth="yes" name="sv01"/>
      <point x="504" y="889" name="dh01"/>
      <point x="494" y="899"/>
      <point x="494" y="919" type="curve" smooth="yes" name="at01"/>
      <point x="494" y="1105" type="line" smooth="yes"/>
      <point x="494" y="1125"/>
      <point x="504" y="1135" name="dh02"/>
      <point x="524" y="1135" type="curve" smooth="yes"/>
      <point x="709" y="1135" type="line" smooth="yes"/>
      <point x="729" y="1135" name="dv04"/>
      <point x="739" y="1125" name="dv03"/>
      <point x="739" y="1105" type="curve" smooth="yes"/>
      <point x="739" y="919" type="line" smooth="yes" name="dv01"/>
      <point x="739" y="899" name="sh01"/>
      <point x="729" y="889"/>
      <point x="709" y="889" type="curve" smooth="yes" name="dv02"/>
    </contour>
    <contour>
      <point x="88" y="727" type="line"/>
      <point x="1145" y="727" type="line" name="sh02"/>
      <point x="1145" y="557" type="line"/>
      <point x="88" y="557" type="line"/>
    </contour>
    <contour>
      <point x="524" y="150" type="line" smooth="yes"/>
      <point x="504" y="150"/>
      <point x="494" y="160"/>
      <point x="494" y="180" type="curve" smooth="yes"/>
      <point x="494" y="365" type="line" smooth="yes"/>
      <point x="494" y="385"/>
      <point x="504" y="395"/>
      <point x="524" y="395" type="curve" smooth="yes"/>
      <point x="709" y="395" type="line" smooth="yes"/>
      <point x="729" y="395"/>
      <point x="739" y="385"/>
      <point x="739" y="365" type="curve" smooth="yes"/>
      <point x="739" y="180" type="line" smooth="yes"/>
      <point x="739" y="160"/>
      <point x="729" y="150"/>
      <point x="709" y="150" type="curve" smooth="yes"/>
    </contour>
  </outline>
</glyph>
